<?xml version="1.0" encoding="utf-8"?>
<!-- Generator: Adobe Illustrator 20.1.0, SVG Export Plug-In . SVG Version: 6.00 Build 0)  -->
<svg version="1.1" id="Layer_1" xmlns="http://www.w3.org/2000/svg" xmlns:xlink="http://www.w3.org/1999/xlink" x="0px" y="0px"
	 viewBox="0 0 822.5 509.9" style="enable-background:new 0 0 822.5 509.9;" xml:space="preserve">
<style type="text/css">
	.st0{fill:#E6E6E6;}
	.st1{fill:#E6E6E6;stroke:#FFFFFF;stroke-miterlimit:10;}
	.st2{fill:none;stroke:#CFD0D2;stroke-miterlimit:10;}
	.st3{fill:none;stroke:#FFFFFF;stroke-miterlimit:10;}
	.st4{fill:#1B75BB;stroke:#CFD0D2;stroke-miterlimit:10;}
	.st5{fill:#00A14B;stroke:#FFFFFF;stroke-miterlimit:10;}
	.st6{fill:#00A14B;stroke:#CFD0D2;stroke-miterlimit:10;}
	.st7{fill:#010303;}
	.st8{clip-path:url(#SVGID_2_);}
	.st9{fill:#FFDD38;}
	.st10{fill:#FFFFFF;}
	.st11{clip-path:url(#_x32__x5F_Yellow_2_);}
	.st12{fill:#FFDE38;}
</style>
<title>map</title>
<g id="Buildings">
	<polygon class="st0" points="348.5,438.2 324.7,468.5 200.6,468.5 200.6,420.4 324.2,420.4 	"/>
	<rect x="0.5" y="420.4" class="st0" width="37.7" height="48.2"/>
	<rect x="0.5" y="325.4" class="st0" width="37.7" height="44.5"/>
	<rect x="0.5" y="369.9" class="st0" width="37.7" height="39.5"/>
	<polygon class="st1" points="103.2,236.5 65.4,274.2 43,296.6 38.2,301.5 38.2,325.4 0.5,325.4 0.5,268.5 67.8,201.1 	"/>
	<rect x="38.2" y="420.4" class="st0" width="113.5" height="48.2"/>
	<polygon class="st0" points="630.2,46.4 643.1,59.4 607.9,93.8 587.7,73.6 596.1,50.5 612.8,50.5 612.8,37.7 302,37.7 289.6,50.1 
		271.1,68.5 245.2,42.6 281.7,6.1 287.8,0 634.8,0 655.8,20.9 	"/>
	<polygon class="st0" points="796.5,161.6 778.1,180 773.2,175.1 763.6,184.8 761.3,182.6 755.7,188.2 747.6,180.1 720.9,206.8 
		615.8,101.7 657,60.5 649.5,53 668.7,33.8 	"/>
	
		<rect x="541.2" y="370.2" transform="matrix(0.7071 -0.7071 0.7071 0.7071 -86.0629 549.2299)" class="st0" width="157.4" height="16.5"/>
	<polygon class="st0" points="822.5,187.7 794.5,215.7 783.8,205 811.8,177 	"/>
	<polygon class="st0" points="811.8,177 783.8,205 774.1,195.3 783.8,185.7 778.1,180 796.5,161.6 	"/>
	
		<rect x="245.2" y="42.6" transform="matrix(0.7071 -0.7071 0.7071 0.7071 30.956 196.6024)" class="st0" width="15.2" height="36.7"/>
	
		<rect x="234.6" y="53.3" transform="matrix(0.7071 -0.7071 0.7071 0.7071 20.2604 192.1709)" class="st0" width="15" height="36.7"/>
	<polygon class="st0" points="249.8,89.9 239.8,99.9 231.5,91.7 226,97.2 208.3,79.5 223.8,64 	"/>
	<polygon class="st0" points="228.4,111.2 194.1,145.5 158.8,110.2 184.1,84.9 193.5,94.3 208.3,79.5 226,97.2 220.2,103 	"/>
	<polygon class="st0" points="194.1,145.5 172,167.7 103.2,236.5 67.8,201.1 158.8,110.2 	"/>
	<polygon class="st0" points="734.4,237.3 606.5,365.1 550.1,308.4 599.5,259 578.1,237.6 578.1,206 593.8,221.7 607.1,208.5 
		577.9,179.3 627.1,130 681.2,184.1 	"/>
	<polygon class="st0" points="615.2,117.3 565.7,166.8 554.7,166.8 554.7,222.6 524.8,222.6 524.8,315.3 500.2,321.4 500.2,341 
		403,341 403,321.6 378.7,315.1 378.7,222.6 348.3,222.6 348.3,166.7 338.2,166.7 265.8,94.2 309,51 548.8,51 	"/>
	<polygon class="st0" points="347,301.5 260.8,387.6 116.5,243.6 232.2,127.9 252.4,148.2 273.6,127 286.5,139.8 265.8,160.6 
		286.5,181.3 256.3,211.5 274.9,229.8 287.6,242.6 325.7,204.6 325.7,237.5 304.4,258.8 	"/>
	
		<rect x="237.9" y="113.1" transform="matrix(0.7071 -0.7071 0.7071 0.7071 -16.057 216.1561)" class="st0" width="30" height="28.7"/>
	<polygon class="st0" points="307.2,160.6 286.5,181.3 265.8,160.6 286.5,139.8 	"/>
	<polygon class="st0" points="325.7,179 274.9,229.8 256.3,211.5 286.5,181.3 307.2,160.6 	"/>
	<polygon class="st0" points="210.3,351.7 152.5,409.8 118.1,375.3 81.8,411.6 51.2,381.1 68.3,364.1 51.5,347.4 70.7,328.2 
		51.2,308.7 73.5,286.4 109.2,250.6 	"/>
	
		<rect x="729.7" y="187.5" transform="matrix(0.7071 -0.7071 0.7071 0.7071 72.3332 590.193)" class="st1" width="37.8" height="40.5"/>
	<polygon class="st1" points="783.8,185.3 774.1,194.9 763.6,184.4 773.2,174.7 778.1,179.6 	"/>
	
		<rect x="683.5" y="284.2" transform="matrix(0.7072 -0.707 0.707 0.7072 0.2088 585.0239)" class="st0" width="45.9" height="16.2"/>
	<rect x="151.7" y="420.4" class="st0" width="48.9" height="48.2"/>
	<polygon class="st1" points="668.7,33.8 649.5,53 643.1,59.4 630.2,46.4 655.8,20.9 	"/>
	<rect x="222" y="95.7" transform="matrix(0.7071 -0.7071 0.7071 0.7071 -4.3812 192.3601)" class="st1" width="16" height="11.6"/>
</g>
<g id="Layer_1_1_">
	<line class="st2" x1="200.6" y1="420.4" x2="200.6" y2="420"/>
	<line class="st2" x1="0.5" y1="369.9" x2="0.2" y2="369.9"/>
	<line class="st2" x1="0.5" y1="325.4" x2="0.2" y2="325.4"/>
	<line class="st3" x1="42.8" y1="296.5" x2="7.8" y2="261.4"/>
	<line class="st3" x1="30.2" y1="238.9" x2="65.3" y2="274"/>
	<line class="st3" x1="136.6" y1="132.4" x2="172" y2="167.7"/>
	<line class="st3" x1="208.3" y1="79.5" x2="233.9" y2="105.2"/>
	<line class="st2" x1="103.2" y1="236.5" x2="103.2" y2="236.5"/>
	<line class="st2" x1="67.8" y1="201.1" x2="67.8" y2="201.1"/>
	<line class="st3" x1="193.5" y1="94.3" x2="219.2" y2="119.9"/>
	<line class="st2" x1="194.3" y1="145.7" x2="194.1" y2="145.5"/>
	<line class="st2" x1="239.8" y1="100" x2="239.8" y2="99.9"/>
	<line class="st2" x1="228.5" y1="111.3" x2="228.4" y2="111.2"/>
	<path class="st2" d="M208.4,79.4"/>
	<line class="st2" x1="249.8" y1="90" x2="249.8" y2="89.9"/>
	<line class="st2" x1="260.5" y1="79.4" x2="260.4" y2="79.3"/>
	<line class="st3" x1="289.6" y1="50.1" x2="263.8" y2="24.4"/>
	<polyline class="st3" points="309.7,37.6 309.7,28.7 304.3,28.7 281.7,6.1 	"/>
	<line class="st3" x1="321.1" y1="37.6" x2="321.1" y2="0"/>
	<line class="st3" x1="332.8" y1="0.1" x2="332.8" y2="37.7"/>
	<line class="st3" x1="484.9" y1="0.1" x2="484.9" y2="37.6"/>
	<line class="st3" x1="513.3" y1="0.1" x2="513.3" y2="37.6"/>
	<line class="st3" x1="541.8" y1="0.1" x2="541.8" y2="37.7"/>
	<line class="st3" x1="561.7" y1="0.1" x2="561.7" y2="37.6"/>
	<line class="st3" x1="602.2" y1="37.6" x2="602.2" y2="0.1"/>
	<path class="st2" d="M612.1,105.5"/>
	<path class="st2" d="M615.8,101.7"/>
	<path class="st2" d="M668.7,33.8"/>
	<polyline class="st3" points="659.4,145.3 692.1,112.5 703.3,123.7 730.6,96.4 	"/>
	<polyline class="st3" points="681.5,167.4 714.3,134.7 703.3,123.7 	"/>
	<line class="st3" x1="781.1" y1="146.7" x2="747.6" y2="180.1"/>
	<line class="st2" x1="747.6" y1="180.1" x2="747.5" y2="180"/>
	<line class="st2" x1="763.6" y1="184.8" x2="763.5" y2="184.8"/>
	<path class="st2" d="M796,161.1"/>
	<line class="st2" x1="728.5" y1="281.8" x2="728.4" y2="281.7"/>
	<line class="st3" x1="600.7" y1="156.5" x2="708.1" y2="263.6"/>
	<line class="st3" x1="681.2" y1="184.1" x2="654.9" y2="210.3"/>
	<polyline class="st3" points="170.5,297.4 208.2,259.6 256.4,211.4 	"/>
	<path class="st2" d="M154.4,205.7"/>
	<line class="st3" x1="235.6" y1="231.9" x2="182.1" y2="178"/>
	<line class="st3" x1="154.4" y1="205.7" x2="208.2" y2="259.6"/>
	<path class="st4" d="M643.1,59.4"/>
	<path class="st4" d="M649.5,53"/>
	<line class="st3" x1="797.8" y1="160.4" x2="778.2" y2="180"/>
	<polyline class="st5" points="73.5,286.4 99.6,312.6 174.6,387.6 	"/>
	<line class="st3" x1="134.8" y1="276.2" x2="99.6" y2="312.6"/>
	<line class="st3" x1="159.8" y1="301.2" x2="123.8" y2="337"/>
	<line class="st3" x1="70.7" y1="328.2" x2="93" y2="305.9"/>
	<path class="st6" d="M61.6,357.4"/>
	<polyline class="st3" points="105.8,387.6 67.6,349.4 60.4,356.2 	"/>
	<polyline class="st3" points="132.8,345.8 110.8,367.6 117.9,375.5 	"/>
	<line class="st3" x1="137.4" y1="394.6" x2="159.8" y2="372.8"/>
	<line class="st3" x1="649.5" y1="53" x2="668.7" y2="33.8"/>
	<line class="st3" x1="811.8" y1="177" x2="783.8" y2="205"/>
	<polyline class="st3" points="348,166.7 348.2,124.7 554.1,124.7 555.1,166.8 	"/>
	<line class="st3" x1="0.5" y1="369.9" x2="38.2" y2="369.9"/>
	<line class="st3" x1="67.9" y1="201.5" x2="103.1" y2="236.6"/>
	<line class="st3" x1="158.8" y1="110.2" x2="194.1" y2="145.5"/>
	<line class="st3" x1="234.5" y1="53.2" x2="260.5" y2="79.3"/>
	<line class="st3" x1="246.5" y1="41.6" x2="272.3" y2="67.4"/>
	<polyline class="st3" points="273.6,127 252.2,148.7 252.3,148.5 232,128.1 	"/>
	<polyline class="st3" points="286.5,181.3 265.3,160.3 265.4,160.5 286.3,139.6 	"/>
	<polyline class="st3" points="274.9,229.8 256.3,211.2 256.4,211.4 307.2,160.6 	"/>
	<line class="st3" x1="37.9" y1="468.5" x2="37.9" y2="420.4"/>
	<line class="st3" x1="151.7" y1="468.5" x2="151.7" y2="420.4"/>
	<line class="st3" x1="200.6" y1="468.4" x2="200.6" y2="421"/>
	<line class="st3" x1="200.6" y1="468.5" x2="200.6" y2="420.4"/>
	<line class="st3" x1="151" y1="468.8" x2="151" y2="420.6"/>
</g>
<g id="Buttons">
	<path d="M255,452L255,452c0-1.8,1-3.2,2.7-3.2c1.6,0,2.6,1.5,2.6,3.2l0,0c0,1.8-1,3.2-2.6,3.2C256,455.2,255,453.7,255,452z
		 M259.5,452L259.5,452c0-1.4-0.8-2.6-1.9-2.6c-1.2,0-1.9,1.2-1.9,2.6l0,0c0,1.4,0.8,2.6,1.9,2.6C258.8,454.5,259.5,453.3,259.5,452
		z"/>
	<path d="M261.4,452L261.4,452c0-1.8,1-3.2,2.7-3.2c1.6,0,2.6,1.5,2.6,3.2l0,0c0,1.8-1,3.2-2.6,3.2S261.4,453.7,261.4,452z
		 M265.9,452L265.9,452c0-1.4-0.8-2.6-1.9-2.6c-1.2,0-1.9,1.2-1.9,2.6l0,0c0,1.4,0.8,2.6,1.9,2.6C265.2,454.5,265.9,453.3,265.9,452
		z"/>
	<path d="M271,453.6h-3.3l-0.2-0.5l3.5-4.3h0.6v4.2h1v0.6h-1v1.5H271V453.6z M271,453v-3.2l-2.6,3.2L271,453z"/>
	<path d="M83.6,445.8L83.6,445.8c0-1.8,1-3.2,2.6-3.2s2.6,1.5,2.6,3.2l0,0c0,1.8-1,3.2-2.6,3.2S83.6,447.6,83.6,445.8z M88.1,445.8
		L88.1,445.8c0-1.4-0.8-2.6-1.9-2.6s-1.9,1.2-1.9,2.6l0,0c0,1.4,0.8,2.6,1.9,2.6S88.1,447.2,88.1,445.8L88.1,445.8z"/>
	<path d="M89.9,445.8L89.9,445.8c0-1.8,1-3.2,2.6-3.2s2.6,1.5,2.6,3.2l0,0c0,1.8-1,3.2-2.6,3.2S89.9,447.6,89.9,445.8z M94.5,445.8
		L94.5,445.8c0-1.4-0.8-2.6-1.9-2.6s-1.9,1.2-1.9,2.6l0,0c0,1.4,0.8,2.6,1.9,2.6S94.5,447.2,94.5,445.8L94.5,445.8z"/>
	<path d="M97.1,448.4c-0.6-0.7-0.9-1.5-0.8-2.4l0,0c0-1.9,1-3.4,2.6-3.4c0.7,0,1.3,0.3,1.9,0.7l-0.4,0.5c-0.4-0.4-0.9-0.6-1.5-0.6
		c-1.2,0-1.8,1.3-1.8,2.7v0.1c0.4-0.6,1.1-1,1.8-1c1.1-0.1,2.1,0.7,2.2,1.8c0,0,0,0.1,0,0.1l0,0c0,1.2-1,2.1-2.1,2.1
		c0,0-0.1,0-0.1,0C98.2,449,97.6,448.8,97.1,448.4z M100.3,447L100.3,447c0-0.8-0.7-1.4-1.4-1.3c0,0-0.1,0-0.1,0
		c-0.8-0.1-1.5,0.5-1.6,1.4c0,0,0,0,0,0l0,0c0,0.8,0.7,1.4,1.5,1.4c0,0,0,0,0.1,0c0.8,0.1,1.5-0.5,1.5-1.3
		C100.3,447.1,100.3,447,100.3,447L100.3,447z"/>
	<path d="M12,389.5L12,389.5c0-1.8,1-3.2,2.6-3.2s2.6,1.5,2.6,3.2l0,0c0,1.8-1,3.2-2.6,3.2S12,391.2,12,389.5z M16.5,389.5
		L16.5,389.5c0-1.4-0.8-2.6-1.9-2.6s-1.9,1.2-1.9,2.6l0,0c0,1.4,0.8,2.6,1.9,2.6S16.5,390.8,16.5,389.5z"/>
	<path d="M19.3,387l-1.2,0.4l-0.2-0.6l1.5-0.5H20v6.3h-0.7L19.3,387z"/>
	<path d="M21.5,389.5L21.5,389.5c0-1.8,1-3.2,2.6-3.2s2.6,1.5,2.6,3.2l0,0c0,1.8-1,3.2-2.6,3.2S21.5,391.2,21.5,389.5z M26,389.5
		L26,389.5c0-1.4-0.8-2.6-1.9-2.6s-1.9,1.2-1.9,2.6l0,0c0,1.4,0.8,2.6,1.9,2.6S26,390.8,26,389.5z"/>
	<path d="M10,304.4L10,304.4c0-1.8,1-3.2,2.6-3.2s2.6,1.5,2.6,3.2l0,0c0,1.8-1,3.2-2.6,3.2S10,306.2,10,304.4z M14.5,304.4
		L14.5,304.4c0-1.4-0.8-2.6-1.9-2.6s-1.9,1.2-1.9,2.6l0,0c0,1.4,0.8,2.6,1.9,2.6S14.5,305.8,14.5,304.4z"/>
	<path d="M17.4,302l-1.2,0.4l-0.2-0.6l1.5-0.5h0.6v6.3h-0.7L17.4,302z"/>
	<path d="M19.4,306.5l0.5-0.5c0.4,0.6,1.1,0.9,1.8,0.9c0.7,0.1,1.3-0.5,1.4-1.1c0,0,0,0,0-0.1l0,0c0-0.8-0.7-1.2-1.8-1.2H21
		l-0.1-0.4l2-2.2h-3.1v-0.6h4v0.5l-2,2.2c1.1,0.1,2.1,0.6,2.1,1.8l0,0c0,1.1-0.9,1.9-2,1.9c0,0-0.1,0-0.1,0
		C20.8,307.7,20,307.2,19.4,306.5z"/>
	<path d="M29.1,270.1L29.1,270.1c0-1.8,1-3.2,2.6-3.2s2.6,1.5,2.6,3.2l0,0c0,1.8-1,3.2-2.6,3.2S29.1,271.8,29.1,270.1z M33.6,270.1
		L33.6,270.1c0-1.4-0.8-2.6-1.9-2.6s-1.9,1.2-1.9,2.6l0,0c0,1.4,0.8,2.6,1.9,2.6S33.7,271.4,33.6,270.1L33.6,270.1z"/>
	<path d="M36.5,267.6l-1.2,0.4l-0.2-0.6l1.5-0.5h0.5v6.3h-0.7L36.5,267.6z"/>
	<path d="M42,271.7h-3.3l-0.2-0.5l3.5-4.3h0.6v4.2h1v0.6h-1v1.5H42L42,271.7z M42,271.1v-3.2l-2.6,3.2H42z"/>
	<path d="M58.2,239.9L58.2,239.9c0-1.8,1-3.2,2.6-3.2s2.6,1.5,2.6,3.2l0,0c0,1.8-1,3.2-2.6,3.2S58.2,241.7,58.2,239.9z M62.7,239.9
		L62.7,239.9c0-1.4-0.8-2.6-1.9-2.6s-1.9,1.2-1.9,2.6l0,0c0,1.4,0.8,2.6,1.9,2.6S62.7,241.3,62.7,239.9z"/>
	<path d="M65.6,237.4l-1.2,0.4l-0.2-0.6l1.5-0.5h0.5v6.3h-0.7L65.6,237.4z"/>
	<path d="M67.6,242.1l0.5-0.5c0.5,0.5,1.1,0.8,1.8,0.9c0.8,0.1,1.4-0.5,1.5-1.3c0,0,0-0.1,0-0.1l0,0c0-0.8-0.7-1.4-1.4-1.3
		c0,0-0.1,0-0.1,0c-0.5,0-0.9,0.1-1.3,0.4l-0.5-0.3l0.2-3h3.6v0.6h-3l-0.1,2c0.4-0.2,0.8-0.3,1.2-0.3c1.1-0.1,2.1,0.7,2.2,1.8
		c0,0,0,0.1,0,0.1l0,0c0,1.1-0.9,2.1-2,2.1c-0.1,0-0.1,0-0.2,0C69,243.1,68.2,242.7,67.6,242.1z"/>
	<path d="M114.8,183.4L114.8,183.4c0-1.8,1-3.2,2.6-3.2s2.6,1.5,2.6,3.2l0,0c0,1.8-1,3.2-2.6,3.2S114.8,185.2,114.8,183.4z
		 M119.4,183.4L119.4,183.4c0-1.4-0.8-2.6-1.9-2.6s-1.9,1.2-1.9,2.6l0,0c0,1.4,0.8,2.6,1.9,2.6S119.4,184.8,119.4,183.4L119.4,183.4
		z"/>
	<path d="M122.2,181l-1.2,0.4l-0.2-0.6l1.5-0.5h0.5v6.3h-0.7L122.2,181z"/>
	<path d="M128.3,183.4v-0.1c-0.4,0.6-1,1-1.8,1c-1.1,0.1-2.1-0.7-2.2-1.8c0,0,0-0.1,0-0.1l0,0c0-1.2,1-2.1,2.1-2.1c0,0,0.1,0,0.1,0
		c0.6,0,1.2,0.2,1.6,0.6c0.6,0.7,0.9,1.5,0.8,2.4l0,0c0,2-1,3.4-2.6,3.4c-0.7,0-1.4-0.3-1.9-0.8l0.4-0.5c0.4,0.4,1,0.7,1.5,0.7
		C127.7,186,128.3,184.8,128.3,183.4z M128.2,182.3L128.2,182.3c0-0.8-0.7-1.4-1.5-1.4c0,0-0.1,0-0.1,0c-0.8,0-1.5,0.6-1.5,1.4
		c0,0,0,0.1,0,0.1l0,0c0,0.8,0.6,1.4,1.4,1.4c0,0,0.1,0,0.1,0C127.5,183.7,128.1,183.1,128.2,182.3
		C128.2,182.3,128.2,182.3,128.2,182.3z"/>
	<path d="M156.1,140.2L156.1,140.2c0-1.8,1-3.2,2.6-3.2s2.6,1.5,2.6,3.2l0,0c0,1.8-1,3.2-2.6,3.2S156.1,141.9,156.1,140.2z
		 M160.7,140.2L160.7,140.2c0-1.4-0.8-2.6-1.9-2.6s-1.9,1.2-1.9,2.6l0,0c0,1.4,0.8,2.6,1.9,2.6S160.7,141.5,160.7,140.2L160.7,140.2
		z"/>
	<path d="M162.3,142.7l2.3-2c1-0.9,1.3-1.3,1.3-2c0-0.7-0.5-1.2-1.2-1.2c0,0-0.1,0-0.1,0c-0.7,0-1.4,0.4-1.7,1.1l-0.5-0.4
		c0.4-0.8,1.3-1.4,2.2-1.3c1-0.1,1.9,0.7,1.9,1.7c0,0,0,0.1,0,0.1l0,0c0,0.9-0.5,1.5-1.6,2.4l-1.7,1.5h3.3v0.6h-4.4V142.7z"/>
	<path d="M167.6,142.7l2.3-2c1-0.9,1.3-1.3,1.3-2c0-0.7-0.5-1.2-1.2-1.2c0,0-0.1,0-0.1,0c-0.7,0-1.4,0.4-1.7,1.1l-0.5-0.4
		c0.4-0.8,1.3-1.4,2.2-1.3c1-0.1,1.9,0.7,1.9,1.7c0,0,0,0.1,0,0.1l0,0c0,0.9-0.5,1.5-1.6,2.4l-1.7,1.5h3.3v0.6h-4.4L167.6,142.7z"/>
	<path d="M180.5,117.7L180.5,117.7c0-1.8,1-3.2,2.6-3.2s2.6,1.5,2.6,3.2l0,0c0,1.8-1,3.2-2.6,3.2S180.5,119.5,180.5,117.7z
		 M185,117.7L185,117.7c0-1.4-0.8-2.6-1.9-2.6s-1.9,1.2-1.9,2.6l0,0c0,1.4,0.8,2.6,1.9,2.6S185.1,119.1,185,117.7L185,117.7z"/>
	<path d="M186.7,120.3l2.3-2c1-0.9,1.3-1.3,1.3-2c0-0.7-0.5-1.2-1.2-1.2c0,0-0.1,0-0.1,0c-0.7,0-1.4,0.4-1.7,1.1l-0.5-0.4
		c0.4-0.8,1.3-1.4,2.2-1.3c1-0.1,1.9,0.7,1.9,1.7c0,0,0,0.1,0,0.1l0,0c0,0.9-0.5,1.5-1.6,2.4l-1.7,1.5h3.3v0.6h-4.4V120.3z"/>
	<path d="M192,119.8l0.5-0.5c0.4,0.6,1.1,0.9,1.8,0.9c0.7,0.1,1.3-0.5,1.4-1.1c0,0,0,0,0-0.1l0,0c0-0.8-0.7-1.2-1.8-1.2h-0.4
		l-0.1-0.4l2-2.2h-3v-0.6h4v0.5l-2,2.2c1.1,0.1,2.1,0.6,2.1,1.8l0,0c0,1.1-0.9,1.9-2,1.9c0,0-0.1,0-0.1,0
		C193.5,120.9,192.6,120.5,192,119.8z"/>
	<path d="M296.9,13.4L296.9,13.4c0-1.9,1.1-3.4,2.8-3.4s2.8,1.5,2.8,3.4l0,0c0,1.9-1.1,3.4-2.8,3.4C298,16.8,296.9,15.2,296.9,13.4z
		 M301.7,13.4L301.7,13.4c0-1.4-0.8-2.8-2-2.8s-2,1.3-2,2.7l0,0c0,1.4,0.8,2.8,2,2.8S301.7,14.8,301.7,13.4L301.7,13.4z"/>
	<path d="M303.5,16.1l2.4-2.1c1-0.9,1.4-1.4,1.4-2.1c0-0.7-0.5-1.3-1.2-1.3c0,0-0.1,0-0.1,0c-0.8,0-1.4,0.5-1.8,1.1l-0.5-0.4
		c0.5-0.9,1.4-1.4,2.4-1.4c1.1-0.1,2,0.7,2.1,1.8c0,0,0,0.1,0,0.1l0,0c0,1-0.5,1.6-1.7,2.6l-1.8,1.6h3.5v0.7h-4.6L303.5,16.1z"/>
	<path d="M309.2,14.9L309.2,14.9c0-0.8,0.6-1.4,1.4-1.6c-0.7-0.2-1.1-0.8-1.1-1.5l0,0c0.3-1.3,1.6-2,2.9-1.7
		c0.8,0.2,1.5,0.9,1.7,1.7l0,0c0,0.7-0.5,1.3-1.1,1.5c0.8,0.2,1.3,0.8,1.4,1.6l0,0c0,1.1-1.1,1.9-2.5,1.9
		C310.2,16.8,309.2,16,309.2,14.9z M313.4,14.9L313.4,14.9c0-0.7-0.8-1.3-1.7-1.3s-1.7,0.5-1.7,1.3l0,0c0,0.7,0.6,1.2,1.7,1.2
		C312.8,16.1,313.4,15.6,313.4,14.9L313.4,14.9z M313.2,11.8L313.2,11.8c0-0.6-0.6-1.1-1.5-1.1s-1.5,0.5-1.5,1.1l0,0
		c0,0.7,0.7,1.2,1.5,1.2S313.2,12.5,313.2,11.8L313.2,11.8z"/>
	<path d="M400.9,18.8L400.9,18.8c0-1.8,1-3.2,2.7-3.2s2.6,1.5,2.6,3.2l0,0c0,1.8-1,3.2-2.6,3.2S400.9,20.5,400.9,18.8z M405.5,18.8
		L405.5,18.8c0-1.4-0.8-2.6-1.9-2.6s-1.9,1.2-1.9,2.6l0,0c0,1.4,0.8,2.6,1.9,2.6S405.5,20.1,405.5,18.8z"/>
	<path d="M407.1,21.3l2.3-2c1-0.9,1.3-1.3,1.3-2c0-0.7-0.5-1.2-1.2-1.2c0,0-0.1,0-0.1,0c-0.7,0-1.4,0.4-1.7,1.1l-0.5-0.4
		c0.4-0.8,1.3-1.4,2.2-1.3c1-0.1,1.9,0.7,1.9,1.7c0,0,0,0.1,0,0.1l0,0c0,0.9-0.5,1.5-1.6,2.4l-1.7,1.5h3.3v0.6h-4.3V21.3z"/>
	<path d="M416.5,18.7v-0.1c-0.4,0.6-1,1-1.8,1c-1.1,0.1-2.1-0.7-2.2-1.8c0,0,0-0.1,0-0.1l0,0c0-1.2,1-2.1,2.1-2.1c0,0,0.1,0,0.1,0
		c0.6,0,1.2,0.2,1.6,0.6c0.6,0.7,0.9,1.5,0.8,2.4l0,0c0,2-1,3.4-2.6,3.4c-0.7,0-1.4-0.3-1.9-0.8l0.4-0.5c0.4,0.4,1,0.7,1.5,0.7
		C415.9,21.3,416.5,20.1,416.5,18.7z M416.4,17.6L416.4,17.6c0-0.8-0.7-1.4-1.5-1.4c0,0-0.1,0-0.1,0c-0.8,0-1.5,0.6-1.5,1.4
		c0,0,0,0.1,0,0.1l0,0c0,0.8,0.6,1.4,1.4,1.4c0,0,0.1,0,0.1,0C415.7,19,416.4,18.4,416.4,17.6C416.4,17.6,416.4,17.6,416.4,17.6
		L416.4,17.6z"/>
	<path d="M432,91.2L432,91.2c0-1.8,1-3.2,2.7-3.2s2.6,1.5,2.6,3.2l0,0c0,1.8-1,3.2-2.6,3.2S432,92.9,432,91.2z M436.5,91.2
		L436.5,91.2c0-1.4-0.8-2.6-1.9-2.6s-1.9,1.2-1.9,2.6l0,0c0,1.4,0.8,2.6,1.9,2.6S436.5,92.6,436.5,91.2L436.5,91.2z"/>
	<path d="M438.1,93.3l0.5-0.5c0.4,0.6,1.1,0.9,1.8,0.9c0.7,0.1,1.3-0.4,1.4-1.1c0,0,0-0.1,0-0.1l0,0c0-0.8-0.7-1.2-1.8-1.2h-0.4
		l-0.1-0.4l2-2.2h-3v-0.6h4v0.5l-2,2.2c1.1,0.1,2.1,0.6,2.1,1.8l0,0c0,1.1-0.9,1.9-2,1.9c0,0-0.1,0-0.1,0
		C439.5,94.4,438.7,94,438.1,93.3z"/>
	<path d="M443.7,91.2L443.7,91.2c0-1.8,1-3.2,2.7-3.2s2.6,1.5,2.6,3.2l0,0c0,1.8-1,3.2-2.6,3.2S443.7,92.9,443.7,91.2z M448.2,91.2
		L448.2,91.2c0-1.4-0.8-2.6-1.9-2.6s-1.9,1.2-1.9,2.6l0,0c0,1.4,0.8,2.6,1.9,2.6S448.3,92.6,448.2,91.2L448.2,91.2z"/>
	<path d="M491.8,19.6L491.8,19.6c0-1.8,1-3.2,2.7-3.2s2.6,1.4,2.6,3.2l0,0c0,1.8-1,3.2-2.6,3.2S491.8,21.3,491.8,19.6z M496.4,19.6
		L496.4,19.6c0-1.4-0.8-2.6-1.9-2.6s-1.9,1.2-1.9,2.6l0,0c0,1.4,0.8,2.6,1.9,2.6S496.4,20.9,496.4,19.6z"/>
	<path d="M498,21.7l0.5-0.5c0.4,0.6,1.1,0.9,1.8,0.9c0.7,0.1,1.3-0.5,1.4-1.1c0,0,0,0,0-0.1l0,0c0-0.8-0.7-1.2-1.8-1.2h-0.4
		l-0.1-0.4l2-2.2h-3v-0.6h4V17l-2,2.2c1.1,0.1,2.1,0.6,2.1,1.8l0,0c0,1.1-0.9,1.9-2,1.9c0,0-0.1,0-0.1,0
		C499.4,22.8,498.6,22.4,498,21.7z"/>
	<path d="M504.6,17.1l-1.2,0.4l-0.2-0.6l1.5-0.5h0.5v6.3h-0.7L504.6,17.1z"/>
	<path d="M519.5,19.3L519.5,19.3c0-1.8,1-3.2,2.7-3.2s2.6,1.5,2.6,3.2l0,0c0,1.8-1,3.2-2.6,3.2S519.5,21.1,519.5,19.3z M524,19.3
		L524,19.3c0-1.4-0.8-2.6-1.9-2.6s-1.9,1.2-1.9,2.6l0,0c0,1.4,0.8,2.6,1.9,2.6S524,20.7,524,19.3z"/>
	<path d="M525.7,21.4l0.5-0.5c0.4,0.6,1.1,0.9,1.8,0.9c0.7,0.1,1.3-0.5,1.4-1.1c0,0,0,0,0-0.1l0,0c0-0.8-0.7-1.2-1.8-1.2h-0.4
		l-0.1-0.4l2-2.2H526v-0.6h4v0.5l-2,2.2c1.1,0.1,2.1,0.6,2.1,1.8l0,0c0,1.1-0.9,1.9-2,1.9c0,0-0.1,0-0.1,0
		C527.1,22.6,526.2,22.2,525.7,21.4z"/>
	<path d="M531.1,21.9l2.3-2c1-0.9,1.3-1.3,1.3-2c0-0.7-0.5-1.2-1.2-1.2c0,0-0.1,0-0.1,0c-0.7,0-1.4,0.4-1.7,1.1l-0.5-0.4
		c0.4-0.8,1.3-1.4,2.2-1.3c1-0.1,1.9,0.7,1.9,1.7c0,0,0,0.1,0,0.1l0,0c0,0.9-0.5,1.5-1.6,2.4l-1.7,1.5h3.3v0.6h-4.4V21.9z"/>
	<path d="M544,19.3L544,19.3c0-1.8,1-3.2,2.7-3.2s2.6,1.5,2.6,3.2l0,0c0,1.8-1,3.2-2.6,3.2S544,21.1,544,19.3z M548.6,19.3
		L548.6,19.3c0-1.4-0.8-2.6-1.9-2.6s-1.9,1.2-1.9,2.6l0,0c0,1.4,0.8,2.6,1.9,2.6S548.6,20.7,548.6,19.3L548.6,19.3z"/>
	<path d="M550.2,21.4l0.5-0.5c0.4,0.6,1.1,0.9,1.8,0.9c0.7,0.1,1.3-0.5,1.4-1.1c0,0,0,0,0-0.1l0,0c0-0.8-0.7-1.2-1.8-1.2h-0.4
		l-0.1-0.4l2-2.2h-3v-0.6h4v0.5l-2,2.2c1.1,0.1,2.1,0.6,2.1,1.8l0,0c0,1.1-0.9,1.9-2,1.9c0,0-0.1,0-0.1,0
		C551.6,22.6,550.8,22.1,550.2,21.4z"/>
	<path d="M555.7,21.4l0.5-0.5c0.4,0.6,1.1,0.9,1.8,0.9c0.7,0.1,1.3-0.5,1.4-1.1c0,0,0,0,0-0.1l0,0c0-0.8-0.7-1.2-1.8-1.2h-0.4
		l-0.1-0.4l2-2.2H556v-0.6h4v0.5l-2,2.2c1.1,0.1,2.1,0.6,2.1,1.8l0,0c0,1.1-0.9,1.9-2,1.9c0,0-0.1,0-0.1,0
		C557.1,22.6,556.2,22.1,555.7,21.4z"/>
	<path d="M574.1,18.8L574.1,18.8c0-1.8,1-3.2,2.7-3.2s2.6,1.5,2.6,3.2l0,0c0,1.8-1,3.2-2.6,3.2S574.1,20.5,574.1,18.8z M578.6,18.8
		L578.6,18.8c0-1.4-0.8-2.6-1.9-2.6s-1.9,1.2-1.9,2.6l0,0c0,1.4,0.8,2.6,1.9,2.6S578.7,20.1,578.6,18.8L578.6,18.8z"/>
	<path d="M580.3,20.9l0.5-0.5c0.4,0.6,1.1,0.9,1.8,0.9c0.7,0.1,1.3-0.5,1.4-1.1c0,0,0,0,0-0.1l0,0c0-0.8-0.7-1.2-1.8-1.2h-0.4
		l-0.1-0.4l2-2.2h-3v-0.7h4v0.5l-2,2.2c1.1,0.1,2.1,0.6,2.1,1.8l0,0c0,1.1-0.9,1.9-2,1.9c0,0-0.1,0-0.1,0
		C581.8,22,580.9,21.6,580.3,20.9z"/>
	<path d="M589.2,20.4h-3.3l-0.2-0.5l3.5-4.3h0.6v4.2h1v0.6h-1v1.5h-0.7L589.2,20.4z M589.2,19.8v-3.2l-2.6,3.2L589.2,19.8z"/>
	<path d="M614.5,24.2L614.5,24.2c0-1.8,1-3.2,2.7-3.2s2.6,1.5,2.6,3.2l0,0c0,1.8-1,3.2-2.6,3.2S614.5,26,614.5,24.2z M619,24.2
		L619,24.2c0-1.4-0.8-2.6-1.9-2.6s-1.9,1.2-1.9,2.6l0,0c0,1.4,0.8,2.6,1.9,2.6S619,25.6,619,24.2L619,24.2z"/>
	<path d="M620.6,26.3l0.5-0.5c0.4,0.6,1.1,0.9,1.8,0.9c0.7,0.1,1.3-0.5,1.4-1.1c0,0,0,0,0-0.1l0,0c0-0.8-0.7-1.2-1.8-1.2h-0.4
		l-0.1-0.4l2-2.2h-3v-0.6h4v0.5l-2,2.2c1.1,0.1,2.1,0.6,2.1,1.8l0,0c0,1.1-0.9,1.9-2,1.9c0,0-0.1,0-0.1,0
		C622.1,27.4,621.2,27,620.6,26.3z"/>
	<path d="M626.1,26.4l0.5-0.5c0.5,0.5,1.1,0.8,1.8,0.9c0.8,0.1,1.4-0.5,1.5-1.3c0,0,0-0.1,0-0.1l0,0c0-0.8-0.7-1.4-1.4-1.3
		c0,0-0.1,0-0.1,0c-0.5,0-0.9,0.1-1.3,0.4l-0.5-0.3l0.2-3h3.6v0.6h-3l-0.1,2c0.4-0.2,0.8-0.3,1.2-0.3c1.1-0.1,2.1,0.7,2.2,1.8
		c0,0,0,0.1,0,0.1l0,0c0,1.1-0.9,2.1-2,2.1c-0.1,0-0.1,0-0.2,0C627.5,27.4,626.7,27.1,626.1,26.4z"/>
	<path d="M661.5,96.8L661.5,96.8c0-1.8,1-3.2,2.7-3.2s2.6,1.5,2.6,3.2l0,0c0,1.8-1,3.2-2.6,3.2S661.5,98.6,661.5,96.8z M666.1,96.8
		L666.1,96.8c0-1.4-0.8-2.6-1.9-2.6s-1.9,1.2-1.9,2.6l0,0c0,1.4,0.8,2.6,1.9,2.6S666.1,98.2,666.1,96.8L666.1,96.8z"/>
	<path d="M671.2,98.4h-3.3l-0.2-0.5l3.5-4.3h0.6v4.2h1v0.6h-1v1.5h-0.7L671.2,98.4z M671.2,97.9v-3.3l-2.6,3.2L671.2,97.9z"/>
	<path d="M674.8,94.4l-1.2,0.4l-0.2-0.6l1.5-0.5h0.5v6.3h-0.7L674.8,94.4z"/>
	<path d="M677.9,139.6L677.9,139.6c0-1.8,1-3.2,2.7-3.2s2.6,1.5,2.6,3.2l0,0c0,1.8-1,3.2-2.6,3.2S677.9,141.3,677.9,139.6z
		 M682.4,139.6L682.4,139.6c0-1.4-0.8-2.6-1.9-2.6s-1.9,1.2-1.9,2.6l0,0c0,1.4,0.8,2.6,1.9,2.6S682.4,140.9,682.4,139.6z"/>
	<path d="M687.6,141.2h-3.3l-0.2-0.5l3.5-4.3h0.6v4.2h1v0.6h-1v1.5h-0.7L687.6,141.2z M687.6,140.6v-3.2l-2.6,3.2L687.6,140.6z"/>
	<path d="M690.1,142.2l2.3-2c1-0.9,1.3-1.3,1.3-2c0-0.7-0.5-1.2-1.2-1.2c0,0-0.1,0-0.1,0c-0.7,0-1.4,0.4-1.7,1.1l-0.5-0.4
		c0.4-0.8,1.3-1.4,2.2-1.3c1-0.1,1.9,0.7,1.9,1.7c0,0,0,0.1,0,0.1l0,0c0,0.9-0.5,1.5-1.6,2.4l-1.7,1.5h3.3v0.6h-4.4V142.2z"/>
	<path d="M722.2,153.4L722.2,153.4c0-1.8,1-3.2,2.7-3.2s2.6,1.5,2.6,3.2l0,0c0,1.8-1,3.2-2.6,3.2S722.2,155.1,722.2,153.4z
		 M726.8,153.4L726.8,153.4c0-1.4-0.8-2.6-1.9-2.6s-1.9,1.2-1.9,2.6l0,0c0,1.4,0.8,2.6,1.9,2.6S726.8,154.7,726.8,153.4L726.8,153.4
		z"/>
	<path d="M731.9,155h-3.3l-0.2-0.5l3.5-4.3h0.6v4.2h1v0.6h-1v1.5h-0.7L731.9,155z M731.9,154.4v-3.2l-2.6,3.2H731.9z"/>
	<path d="M734.5,155.5l0.5-0.5c0.4,0.6,1.1,0.9,1.8,0.9c0.7,0.1,1.3-0.5,1.4-1.1c0,0,0,0,0-0.1l0,0c0-0.8-0.7-1.2-1.8-1.2h-0.4
		l-0.1-0.4l2-2.2h-3v-0.6h4v0.5l-2,2.2c1.1,0.1,2.1,0.6,2.1,1.8l0,0c0,1.1-0.9,1.9-2,1.9c0,0-0.1,0-0.1,0
		C735.9,156.6,735.1,156.2,734.5,155.5z"/>
	<path d="M740,208.2L740,208.2c0-1.8,1-3.2,2.7-3.2s2.6,1.5,2.6,3.2l0,0c0,1.8-1,3.2-2.6,3.2S740,210,740,208.2z M744.5,208.2
		L744.5,208.2c0-1.4-0.8-2.6-1.9-2.6s-1.9,1.2-1.9,2.6l0,0c0,1.4,0.8,2.6,1.9,2.6S744.5,209.6,744.5,208.2L744.5,208.2z"/>
	<path d="M749.6,209.8h-3.3l-0.2-0.5l3.5-4.3h0.6v4.2h1v0.6h-1v1.5h-0.7L749.6,209.8z M749.6,209.3V206l-2.6,3.2H749.6z"/>
	<path d="M755.6,209.8h-3.3l-0.2-0.5l3.5-4.3h0.6v4.2h1v0.6h-1v1.5h-0.7L755.6,209.8z M755.6,209.3V206l-2.6,3.2H755.6z"/>
	<path d="M686.6,226.7L686.6,226.7c0-1.8,1-3.2,2.7-3.2s2.6,1.5,2.6,3.2l0,0c0,1.8-1,3.2-2.6,3.2S686.6,228.5,686.6,226.7z
		 M691.2,226.7L691.2,226.7c0-1.4-0.8-2.6-1.9-2.6s-1.9,1.2-1.9,2.6l0,0c0,1.4,0.8,2.6,1.9,2.6S691.2,228.1,691.2,226.7z"/>
	<path d="M696.3,228.3H693l-0.2-0.5l3.5-4.3h0.6v4.2h1v0.6h-1v1.5h-0.7L696.3,228.3z M696.3,227.7v-3.2l-2.6,3.2H696.3z"/>
	<path d="M698.9,228.9l0.5-0.5c0.5,0.5,1.1,0.8,1.8,0.9c0.8,0.1,1.4-0.5,1.5-1.3c0,0,0-0.1,0-0.1l0,0c0-0.8-0.7-1.4-1.4-1.3
		c0,0-0.1,0-0.1,0c-0.5,0-0.9,0.1-1.3,0.4l-0.5-0.3l0.2-3h3.6v0.6h-3l-0.1,2c0.4-0.2,0.8-0.3,1.2-0.3c1.1-0.1,2.1,0.7,2.2,1.8
		c0,0,0,0.1,0,0.1l0,0c0,1.1-0.9,2.1-2,2.1c-0.1,0-0.1,0-0.2,0C700.3,229.9,699.5,229.6,698.9,228.9z"/>
	<path d="M634.9,175.4L634.9,175.4c0-1.8,1-3.2,2.7-3.2s2.6,1.5,2.6,3.2l0,0c0,1.8-1,3.2-2.6,3.2S634.9,177.2,634.9,175.4z
		 M639.5,175.4L639.5,175.4c0-1.4-0.8-2.6-1.9-2.6s-1.9,1.2-1.9,2.6l0,0c0,1.4,0.8,2.6,1.9,2.6S639.5,176.8,639.5,175.4z"/>
	<path d="M641.1,177.6l0.5-0.5c0.4,0.6,1.1,0.9,1.8,0.9c0.7,0.1,1.3-0.5,1.4-1.1c0,0,0,0,0-0.1l0,0c0-0.8-0.7-1.2-1.8-1.2h-0.4
		l-0.1-0.4l2-2.2h-3v-0.6h4v0.5l-2,2.2c1.1,0.1,2.1,0.6,2.1,1.8l0,0c0,1.1-0.9,1.9-2,1.9c0,0-0.1,0-0.1,0
		C642.5,178.7,641.7,178.3,641.1,177.6z"/>
	<path d="M647.5,178c-0.6-0.7-0.9-1.5-0.8-2.4l0,0c0-1.9,1-3.4,2.6-3.4c0.7,0,1.3,0.3,1.8,0.7l-0.4,0.5c-0.4-0.4-0.9-0.6-1.5-0.6
		c-1.2,0-1.8,1.3-1.8,2.7v0.1c0.4-0.6,1.1-1,1.8-1c1.1-0.1,2.1,0.7,2.2,1.8c0,0,0,0.1,0,0.1l0,0c0,1.2-1,2.1-2.1,2.1
		c0,0-0.1,0-0.1,0C648.5,178.6,647.9,178.4,647.5,178z M650.6,176.6L650.6,176.6c0-0.8-0.7-1.4-1.4-1.3c0,0-0.1,0-0.1,0
		c-0.8-0.1-1.5,0.6-1.6,1.4l0,0c0,0.8,0.7,1.4,1.5,1.4c0,0,0,0,0.1,0c0.8,0.1,1.5-0.5,1.5-1.3C650.6,176.7,650.6,176.6,650.6,176.6z
		"/>
	<path d="M244.7,129.3L244.7,129.3c0-1.8,1-3.2,2.6-3.2s2.6,1.5,2.6,3.2l0,0c0,1.8-1,3.2-2.6,3.2S244.7,131.1,244.7,129.3z
		 M249.2,129.3L249.2,129.3c0-1.4-0.8-2.6-1.9-2.6s-1.9,1.2-1.9,2.6l0,0c0,1.4,0.8,2.6,1.9,2.6S249.2,130.7,249.2,129.3z"/>
	<path d="M250.8,131.9l2.3-2c1-0.9,1.3-1.3,1.3-2c0-0.7-0.5-1.2-1.2-1.2c0,0-0.1,0-0.1,0c-0.7,0-1.4,0.4-1.7,1.1l-0.5-0.4
		c0.4-0.8,1.3-1.4,2.2-1.3c1-0.1,1.9,0.7,1.9,1.7c0,0,0,0.1,0,0.1l0,0c0,0.9-0.5,1.5-1.6,2.4l-1.7,1.5h3.3v0.6h-4.4V131.9z"/>
	<path d="M259.4,130.9h-3.2l-0.2-0.5l3.5-4.3h0.6v4.2h1v0.6h-1v1.5h-0.7L259.4,130.9z M259.4,130.4v-3.2l-2.6,3.2H259.4z"/>
	<path d="M277.8,163.1L277.8,163.1c0-1.8,1-3.2,2.7-3.2c1.6,0,2.6,1.5,2.6,3.2l0,0c0,1.8-1,3.2-2.6,3.2S277.8,164.9,277.8,163.1z
		 M282.3,163.1L282.3,163.1c0-1.4-0.8-2.6-1.9-2.6c-1.2,0-1.9,1.2-1.9,2.6l0,0c0,1.4,0.8,2.6,1.9,2.6
		C281.6,165.7,282.3,164.5,282.3,163.1z"/>
	<path d="M284,165.7l2.3-2c1-0.9,1.3-1.3,1.3-2c0-0.7-0.5-1.2-1.2-1.2c0,0-0.1,0-0.1,0c-0.7,0-1.4,0.4-1.7,1.1l-0.5-0.4
		c0.4-0.8,1.3-1.4,2.2-1.3c1-0.1,1.9,0.7,1.9,1.7c0,0,0,0.1,0,0.1l0,0c0,0.9-0.5,1.5-1.6,2.4l-1.7,1.5h3.3v0.6H284V165.7z"/>
	<path d="M290.2,165.7c-0.6-0.7-0.9-1.5-0.8-2.4l0,0c0-1.9,1-3.4,2.6-3.4c0.7,0,1.3,0.3,1.8,0.7l-0.4,0.5c-0.4-0.4-0.9-0.6-1.5-0.6
		c-1.2,0-1.8,1.3-1.8,2.7v0.1c0.4-0.6,1.1-1,1.8-1c1.1-0.1,2.1,0.7,2.2,1.8c0,0,0,0.1,0,0.1l0,0c0,1.2-1,2.1-2.1,2.1
		c0,0-0.1,0-0.1,0C291.2,166.3,290.6,166.1,290.2,165.7z M293.4,164.3L293.4,164.3c0-0.8-0.7-1.4-1.4-1.3c0,0-0.1,0-0.1,0
		c-0.8-0.1-1.5,0.5-1.6,1.4c0,0,0,0,0,0l0,0c0,0.8,0.7,1.4,1.5,1.4c0,0,0,0,0.1,0c0.8,0.1,1.5-0.5,1.5-1.3
		C293.4,164.4,293.4,164.3,293.4,164.3z"/>
	<path d="M281.7,196.7L281.7,196.7c0-1.8,1-3.2,2.6-3.2c1.7,0,2.6,1.5,2.6,3.2l0,0c0,1.8-1,3.2-2.6,3.2S281.7,198.4,281.7,196.7z
		 M286.2,196.7L286.2,196.7c0-1.4-0.8-2.6-1.9-2.6c-1.2,0-1.9,1.2-1.9,2.6l0,0c0,1.4,0.8,2.6,1.9,2.6
		C285.5,199.2,286.2,198,286.2,196.7L286.2,196.7z"/>
	<path d="M287.9,199.2l2.3-2c1-0.9,1.3-1.3,1.3-2c0-0.7-0.5-1.2-1.2-1.2c0,0-0.1,0-0.1,0c-0.7,0-1.4,0.4-1.7,1.1l-0.5-0.4
		c0.4-0.8,1.3-1.4,2.2-1.3c1-0.1,1.9,0.7,1.9,1.7c0,0,0,0.1,0,0.1l0,0c0,0.9-0.5,1.5-1.6,2.4l-1.7,1.5h3.3v0.6h-4.4V199.2z"/>
	<path d="M296.7,194.2h-3.4v-0.6h4.2v0.5l-2.8,5.7h-0.8L296.7,194.2z"/>
	<path d="M226.5,183.4L226.5,183.4c0-1.8,1-3.2,2.6-3.2s2.6,1.5,2.6,3.2l0,0c0,1.8-1,3.2-2.6,3.2S226.5,185.2,226.5,183.4z
		 M231,183.4L231,183.4c0-1.4-0.8-2.6-1.9-2.6s-1.9,1.2-1.9,2.6l0,0c0,1.4,0.8,2.6,1.9,2.6S231,184.8,231,183.4L231,183.4z"/>
	<path d="M232.6,186l2.3-2c1-0.9,1.3-1.3,1.3-2c0-0.7-0.5-1.2-1.2-1.2c0,0-0.1,0-0.1,0c-0.7,0-1.4,0.4-1.7,1.1l-0.5-0.4
		c0.4-0.8,1.3-1.4,2.2-1.3c1-0.1,1.9,0.7,1.9,1.7c0,0,0,0.1,0,0.1l0,0c0,0.9-0.5,1.5-1.6,2.4l-1.7,1.5h3.3v0.7h-4.4V186z"/>
	<path d="M238,185.7l0.5-0.5c0.5,0.5,1.1,0.8,1.8,0.9c0.8,0.1,1.4-0.5,1.5-1.3c0,0,0-0.1,0-0.1l0,0c0-0.8-0.7-1.4-1.4-1.3
		c0,0-0.1,0-0.1,0c-0.5,0-0.9,0.1-1.3,0.4l-0.5-0.3l0.2-3h3.6v0.6h-3l-0.1,2c0.4-0.2,0.8-0.3,1.2-0.3c1.1-0.1,2.1,0.7,2.2,1.8
		c0,0,0,0.1,0,0.1l0,0c0,1.1-0.9,2.1-2,2.1c-0.1,0-0.1,0-0.2,0C239.4,186.7,238.6,186.3,238,185.7z"/>
	<path d="M186.7,220.5L186.7,220.5c0-1.8,1-3.2,2.6-3.2s2.6,1.5,2.6,3.2l0,0c0,1.8-1,3.2-2.6,3.2S186.7,222.2,186.7,220.5z
		 M191.2,220.5L191.2,220.5c0-1.4-0.8-2.6-1.9-2.6s-1.9,1.2-1.9,2.6l0,0c0,1.4,0.8,2.6,1.9,2.6S191.2,221.8,191.2,220.5L191.2,220.5
		z"/>
	<path d="M192.8,223l2.3-2c1-0.9,1.3-1.3,1.3-2c0-0.7-0.5-1.2-1.2-1.2c0,0-0.1,0-0.1,0c-0.7,0-1.4,0.4-1.7,1.1l-0.5-0.4
		c0.4-0.8,1.3-1.4,2.2-1.3c1-0.1,1.9,0.7,1.9,1.7c0,0,0,0.1,0,0.1l0,0c0,0.9-0.5,1.5-1.6,2.4l-1.7,1.5h3.3v0.7h-4.4V223z"/>
	<path d="M199.3,218l-1.2,0.4l-0.2-0.6l1.5-0.5h0.5v6.3h-0.7L199.3,218z"/>
	<path d="M152.7,252.3L152.7,252.3c0-1.8,1-3.2,2.6-3.2s2.6,1.5,2.6,3.2l0,0c0,1.8-1,3.2-2.6,3.2S152.7,254.1,152.7,252.3z
		 M157.3,252.3L157.3,252.3c0-1.4-0.8-2.6-1.9-2.6s-1.9,1.2-1.9,2.6l0,0c0,1.4,0.8,2.6,1.9,2.6S157.3,253.7,157.3,252.3z"/>
	<path d="M158.9,254.9l2.3-2c1-0.9,1.3-1.3,1.3-2c0-0.7-0.5-1.2-1.2-1.2c0,0-0.1,0-0.1,0c-0.7,0-1.4,0.4-1.7,1.1l-0.5-0.4
		c0.4-0.8,1.3-1.4,2.2-1.3c1-0.1,1.9,0.7,1.9,1.7c0,0,0,0.1,0,0.1l0,0c0,0.9-0.5,1.5-1.6,2.4l-1.7,1.5h3.3v0.6h-4.4V254.9z"/>
	<path d="M164.4,252.3L164.4,252.3c0-1.8,1-3.2,2.6-3.2s2.6,1.5,2.6,3.2l0,0c0,1.8-1,3.2-2.6,3.2S164.4,254.1,164.4,252.3z
		 M168.9,252.3L168.9,252.3c0-1.4-0.8-2.6-1.9-2.6s-1.9,1.2-1.9,2.6l0,0c0,1.4,0.8,2.6,1.9,2.6S168.9,253.7,168.9,252.3L168.9,252.3
		z"/>
	<path d="M126.4,370.6L126.4,370.6c0-1.8,1-3.2,2.6-3.2s2.6,1.5,2.6,3.2l0,0c0,1.8-1,3.2-2.6,3.2S126.4,372.4,126.4,370.6z
		 M130.9,370.6L130.9,370.6c0-1.4-0.8-2.6-1.9-2.6s-1.9,1.2-1.9,2.6l0,0c0,1.4,0.8,2.6,1.9,2.6S130.9,372,130.9,370.6L130.9,370.6z"
		/>
	<path d="M132.8,370.6L132.8,370.6c0-1.8,1-3.2,2.6-3.2s2.6,1.5,2.6,3.2l0,0c0,1.8-1,3.2-2.6,3.2S132.8,372.4,132.8,370.6z
		 M137.3,370.6L137.3,370.6c0-1.4-0.8-2.6-1.9-2.6s-1.9,1.2-1.9,2.6l0,0c0,1.4,0.8,2.6,1.9,2.6S137.3,372,137.3,370.6z"/>
	<path d="M142.4,368.1h-3.4v-0.6h4.2v0.5l-2.8,5.7h-0.8L142.4,368.1z"/>
	<path d="M67.7,384.5L67.7,384.5c0-1.8,1-3.2,2.6-3.2s2.6,1.5,2.6,3.2l0,0c0,1.8-1,3.2-2.6,3.2S67.7,386.3,67.7,384.5z M72.3,384.5
		L72.3,384.5c0-1.4-0.8-2.6-1.9-2.6s-1.9,1.2-1.9,2.6l0,0c0,1.4,0.8,2.6,1.9,2.6S72.3,385.9,72.3,384.5L72.3,384.5z"/>
	<path d="M74.1,384.5L74.1,384.5c0-1.8,1-3.2,2.6-3.2s2.6,1.5,2.6,3.2l0,0c0,1.8-1,3.2-2.6,3.2S74.1,386.3,74.1,384.5z M78.6,384.5
		L78.6,384.5c0-1.4-0.8-2.6-1.9-2.6s-1.9,1.2-1.9,2.6l0,0c0,1.4,0.8,2.6,1.9,2.6S78.6,385.9,78.6,384.5z"/>
	<path d="M84.4,384.5v-0.1c-0.4,0.6-1,1-1.8,1c-1.1,0.1-2.1-0.7-2.2-1.8c0,0,0-0.1,0-0.1l0,0c0-1.2,1-2.1,2.1-2.1c0,0,0.1,0,0.1,0
		c0.6,0,1.2,0.2,1.6,0.6c0.6,0.7,0.9,1.5,0.8,2.4l0,0c0,2-1.1,3.4-2.6,3.4c-0.7,0-1.4-0.3-1.9-0.8l0.4-0.5c0.4,0.4,1,0.7,1.5,0.7
		C83.8,387.1,84.4,385.8,84.4,384.5z M84.3,383.3L84.3,383.3c0-0.8-0.7-1.4-1.5-1.4c0,0-0.1,0-0.1,0c-0.8,0-1.5,0.6-1.5,1.4
		c0,0,0,0.1,0,0.1l0,0c0,0.8,0.6,1.4,1.4,1.4c0,0,0.1,0,0.1,0C83.6,384.8,84.3,384.2,84.3,383.3C84.3,383.3,84.3,383.3,84.3,383.3
		L84.3,383.3z"/>
	<path d="M124.8,303.9L124.8,303.9c0-1.8,1-3.2,2.6-3.2s2.6,1.5,2.6,3.2l0,0c0,1.8-1,3.2-2.6,3.2S124.8,305.6,124.8,303.9z
		 M129.4,303.9L129.4,303.9c0-1.4-0.8-2.6-1.9-2.6s-1.9,1.2-1.9,2.6l0,0c0,1.4,0.8,2.6,1.9,2.6S129.4,305.2,129.4,303.9L129.4,303.9
		z"/>
	<path d="M132.2,301.4l-1.2,0.4l-0.2-0.6l1.5-0.5h0.5v6.3h-0.7L132.2,301.4z"/>
	<path d="M137.8,301.4h-3.4v-0.6h4.2v0.5l-2.8,5.7H135L137.8,301.4z"/>
	<path d="M96.5,282.7L96.5,282.7c0-1.8,1-3.2,2.6-3.2s2.6,1.5,2.6,3.2l0,0c0,1.8-1,3.2-2.6,3.2S96.5,284.5,96.5,282.7z M101,282.7
		L101,282.7c0-1.4-0.8-2.6-1.9-2.6s-1.9,1.2-1.9,2.6l0,0c0,1.4,0.8,2.6,1.9,2.6S101,284.1,101,282.7z"/>
	<path d="M103.8,280.2l-1.2,0.4l-0.2-0.6l1.5-0.5h0.5v6.3h-0.7L103.8,280.2z"/>
	<path d="M106.8,285.3c-0.6-0.7-0.9-1.5-0.8-2.4l0,0c0-1.9,1-3.4,2.6-3.4c0.7,0,1.3,0.3,1.9,0.7l-0.4,0.5c-0.4-0.4-0.9-0.6-1.5-0.6
		c-1.2,0-1.8,1.3-1.8,2.7v0.1c0.4-0.6,1.1-1,1.8-1c1.1-0.1,2.1,0.7,2.2,1.8c0,0,0,0.1,0,0.1l0,0c0,1.2-1,2.1-2.1,2.1
		c0,0-0.1,0-0.1,0C107.8,285.9,107.2,285.7,106.8,285.3z M109.9,283.9L109.9,283.9c0-0.8-0.7-1.4-1.4-1.3c0,0-0.1,0-0.1,0
		c-0.8-0.1-1.5,0.5-1.6,1.4c0,0,0,0,0,0l0,0c0,0.8,0.7,1.4,1.5,1.4c0,0,0,0,0.1,0c0.8,0.1,1.5-0.5,1.5-1.3
		C109.9,284,109.9,283.9,109.9,283.9L109.9,283.9z"/>
	<path d="M147.5,391.5L147.5,391.5c0-1.8,1-3.2,2.6-3.2s2.6,1.5,2.6,3.2l0,0c0,1.8-1,3.2-2.6,3.2S147.5,393.2,147.5,391.5z
		 M152,391.5L152,391.5c0-1.4-0.8-2.6-1.9-2.6s-1.9,1.2-1.9,2.6l0,0c0,1.4,0.8,2.6,1.9,2.6S152,392.9,152,391.5z"/>
	<path d="M153.8,391.5L153.8,391.5c0-1.8,1-3.2,2.6-3.2s2.6,1.5,2.6,3.2l0,0c0,1.8-1,3.2-2.6,3.2S153.8,393.2,153.8,391.5z
		 M158.4,391.5L158.4,391.5c0-1.4-0.8-2.6-1.9-2.6s-1.9,1.2-1.9,2.6l0,0c0,1.4,0.8,2.6,1.9,2.6S158.4,392.9,158.4,391.5z"/>
	<path d="M160.1,393.7l0.5-0.5c0.5,0.5,1.1,0.8,1.8,0.9c0.8,0.1,1.4-0.5,1.5-1.3c0,0,0-0.1,0-0.1l0,0c0-0.8-0.7-1.4-1.4-1.3
		c0,0-0.1,0-0.1,0c-0.5,0-0.9,0.1-1.3,0.4l-0.5-0.3l0.2-3h3.6v0.6h-3l-0.1,2c0.4-0.2,0.8-0.3,1.2-0.3c1.1-0.1,2.1,0.7,2.2,1.8
		c0,0,0,0.1,0,0.1l0,0c0,1.1-0.9,2.1-2,2.1c-0.1,0-0.1,0-0.2,0C161.5,394.7,160.7,394.3,160.1,393.7z"/>
	<path d="M78.1,343.4L78.1,343.4c0-1.8,1-3.2,2.6-3.2s2.6,1.5,2.6,3.2l0,0c0,1.8-1,3.2-2.6,3.2S78.1,345.2,78.1,343.4z M82.6,343.4
		L82.6,343.4c0-1.4-0.8-2.6-1.9-2.6s-1.9,1.2-1.9,2.6l0,0c0,1.4,0.8,2.6,1.9,2.6S82.6,344.8,82.6,343.4L82.6,343.4z"/>
	<path d="M84.4,343.4L84.4,343.4c0-1.8,1-3.2,2.6-3.2s2.6,1.5,2.6,3.2l0,0c0,1.8-1,3.2-2.6,3.2S84.4,345.2,84.4,343.4z M89,343.4
		L89,343.4c0-1.4-0.8-2.6-1.9-2.6s-1.9,1.2-1.9,2.6l0,0c0,1.4,0.8,2.6,1.9,2.6S89,344.8,89,343.4L89,343.4z"/>
	<path d="M90.7,344.8L90.7,344.8c0-0.7,0.6-1.4,1.3-1.5c-0.6-0.2-1-0.8-1.1-1.4l0,0c0.3-1.2,1.5-1.9,2.7-1.6
		c0.8,0.2,1.4,0.8,1.6,1.6l0,0c0,0.7-0.5,1.2-1.1,1.4c0.7,0.2,1.2,0.8,1.3,1.5l0,0c0,1.1-1,1.8-2.4,1.8S90.7,345.9,90.7,344.8z
		 M94.7,344.8L94.7,344.8c0-0.7-0.7-1.2-1.6-1.2s-1.6,0.5-1.6,1.2l0,0c0,0.6,0.6,1.2,1.6,1.2S94.7,345.5,94.7,344.8L94.7,344.8z
		 M94.5,341.9L94.5,341.9c0-0.6-0.6-1.1-1.4-1.1s-1.4,0.5-1.4,1.1l0,0c0.1,0.7,0.7,1.2,1.4,1.1c0,0,0,0,0,0
		C93.9,343,94.5,342.6,94.5,341.9L94.5,341.9z"/>
	<path d="M142.1,341.4h4.6v1h-3.5v1.6h3.1v1h-3.1v1.7h3.6v1h-4.7V341.4z"/>
	<path d="M153.7,347.8l-0.8-0.7c-0.6,0.4-1.2,0.6-1.9,0.6c-1.8,0-3.2-1.3-3.3-3.1c0,0,0-0.1,0-0.1l0,0c0.1-1.8,1.6-3.2,3.4-3.1
		c1.7,0.1,3,1.4,3.1,3.1l0,0c0,0.7-0.2,1.4-0.6,1.9l0.7,0.6L153.7,347.8z M152.1,346.4l-1.1-0.9l0.7-0.8l1.1,1
		c0.2-0.4,0.3-0.8,0.3-1.2l0,0c0-1.2-0.9-2.2-2.1-2.2c0,0,0,0-0.1,0c-1.2,0-2.1,0.9-2.1,2.1c0,0,0,0.1,0,0.1l0,0
		c0,1.2,0.9,2.2,2.1,2.2C151.4,346.7,151.8,346.6,152.1,346.4L152.1,346.4z"/>
	<path d="M155.6,345v-3.6h1.1v3.5c0,1.2,0.6,1.8,1.6,1.8s1.6-0.6,1.6-1.7v-3.6h1.1v3.5c0.2,1.4-0.8,2.6-2.1,2.8c-0.2,0-0.4,0-0.5,0
		c-1.4,0.1-2.5-0.9-2.7-2.2C155.5,345.3,155.5,345.1,155.6,345z"/>
	<path d="M162.5,341.4h1.1v6.2h-1.1V341.4z"/>
	<path d="M165.2,341.4h2.5c1.2-0.1,2.2,0.7,2.4,1.8c0,0.1,0,0.2,0,0.3l0,0c0,1.4-1.1,2.1-2.5,2.1h-1.2v2h-1.1L165.2,341.4z
		 M167.6,344.6c0.8,0,1.4-0.5,1.4-1.1l0,0c0-0.7-0.5-1.1-1.4-1.1h-1.3v2.2H167.6z"/>
	<path d="M171.2,341.4h1.2l1.9,3l1.9-3h1.2v6.2h-1.1v-4.5l-2,3l0,0l-2-2.9v4.5h-1.1L171.2,341.4z"/>
	<path d="M178.9,341.4h4.6v1H180v1.6h3.1v1H180v1.7h3.6v1h-4.7V341.4z"/>
	<path d="M184.9,341.4h1l3.4,4.3v-4.3h1.1v6.2h-0.9l-3.5-4.5v4.5h-1.1L184.9,341.4z"/>
	<path d="M193.5,342.4h-2v-1h5.1v1h-2v5.2h-1.1L193.5,342.4z"/>
	<path d="M150.7,355.2L150.7,355.2c0-1.7,1.3-3.2,3.1-3.2c0,0,0.1,0,0.1,0c0.9,0,1.8,0.3,2.5,1l-0.7,0.8c-0.5-0.5-1.1-0.8-1.8-0.8
		c-1.2,0-2.1,1-2.1,2.1c0,0,0,0,0,0.1l0,0c-0.1,1.2,0.8,2.2,2,2.2c0,0,0,0,0.1,0c0.7,0,1.3-0.3,1.8-0.8l0.7,0.7
		c-0.6,0.7-1.6,1.1-2.5,1.1c-1.7,0-3.2-1.4-3.2-3.1C150.7,355.3,150.7,355.3,150.7,355.2z"/>
	<path d="M157.6,352.1h4.6v1h-3.5v1.6h3.1v1h-3.1v1.7h3.6v1h-4.7V352.1z"/>
	<path d="M163.6,352.1h1l3.4,4.3v-4.3h1.1v6.2h-0.9l-3.5-4.5v4.5h-1.1L163.6,352.1z"/>
	<path d="M172.1,353.1h-2v-1h5.1v1h-2v5.2h-1.1V353.1z"/>
	<path d="M176.4,352.1h4.6v1h-3.5v1.6h3.1v1h-3.1v1.7h3.6v1h-4.7L176.4,352.1z"/>
	<path d="M182.4,352.1h2.8c0.7,0,1.3,0.2,1.8,0.6c0.3,0.4,0.5,0.8,0.5,1.3l0,0c0,0.9-0.6,1.7-1.5,1.9l1.7,2.4h-1.3l-1.5-2.2h-1.4
		v2.2h-1.1L182.4,352.1z M185.1,355.2c0.8,0,1.3-0.4,1.3-1l0,0c0-0.7-0.5-1-1.3-1h-1.6v2.1L185.1,355.2z"/>
	<path d="M13,347.5L13,347.5c0-1.8,1-3.2,2.6-3.2s2.6,1.5,2.6,3.2l0,0c0,1.8-1,3.2-2.6,3.2S13,349.2,13,347.5z M17.5,347.5
		L17.5,347.5c0-1.4-0.8-2.6-1.9-2.6s-1.9,1.2-1.9,2.6l0,0c0,1.4,0.8,2.6,1.9,2.6S17.5,348.8,17.5,347.5L17.5,347.5z"/>
	<path d="M20.4,345l-1.2,0.4l-0.2-0.6l1.5-0.5h0.6v6.3h-0.7L20.4,345z"/>
	<path d="M23.6,345l-1.2,0.4l-0.2-0.6l1.5-0.5h0.5v6.3h-0.7L23.6,345z"/>
	<path d="M604.1,291.9h3.2c0.7,0,1.3,0.2,1.8,0.6c0.3,0.3,0.5,0.7,0.5,1.2l0,0c0,0.7-0.4,1.3-1,1.6c0.8,0.2,1.4,0.9,1.4,1.7l0,0
		c0,1.3-1,1.9-2.6,1.9h-3.3V291.9z M608.3,293.9c0-0.5-0.4-0.9-1.2-0.9h-1.8v1.9h1.7C607.8,294.9,608.3,294.6,608.3,293.9
		L608.3,293.9z M607.3,295.9h-2v1.9h2c0.8,0,1.4-0.3,1.4-1l0,0C608.7,296.3,608.2,295.9,607.3,295.9L607.3,295.9z"/>
	<path d="M611.3,291.9h1.2v5.9h3.7v1.1h-4.9V291.9z"/>
	<path d="M617.2,296v-4h1.2v4c0,1.3,0.7,2,1.8,2s1.8-0.6,1.8-2v-4h1.2v4c0.2,1.5-0.9,2.9-2.4,3.1c-0.2,0-0.4,0-0.6,0
		c-1.5,0.2-2.9-0.9-3-2.5C617.2,296.5,617.2,296.2,617.2,296z"/>
	<path d="M624.9,291.9h5.2v1.1h-4v1.8h3.5v1.1h-3.5v1.9h4v1.1h-5.3L624.9,291.9z"/>
	<path d="M634.7,291.9h1.2v2.9h3.3v-2.9h1.2v7h-1.2v-3h-3.3v3h-1.2V291.9z"/>
	<path d="M644.8,291.9h1.1l3.1,7.1h-1.3l-0.7-1.7h-3.3L643,299h-1.3L644.8,291.9z M646.6,296.2l-1.2-2.8l-1.2,2.8L646.6,296.2z"/>
	<path d="M650.2,291.9h1.2v5.9h3.7v1.1h-4.9L650.2,291.9z"/>
	<path d="M656.4,291.9h1.2v5.9h3.7v1.1h-4.9V291.9z"/>
	<path d="M220.3,437.3h2.8c1.6,0,2.7,0.9,2.7,2.3l0,0c0,1.6-1.3,2.4-2.8,2.4h-1.4v2.3h-1.2L220.3,437.3z M223,440.9
		c0.9,0,1.5-0.5,1.5-1.3l0,0c0-0.8-0.6-1.2-1.5-1.2h-1.4v2.5L223,440.9z"/>
	<path d="M227.1,437.3h3.1c0.7,0,1.4,0.2,2,0.7c0.4,0.4,0.6,1,0.6,1.5l0,0c0,1-0.7,1.9-1.7,2.1l1.9,2.7h-1.5l-1.7-2.5h-1.5v2.5H227
		L227.1,437.3z M230.1,440.8c0.9,0,1.5-0.5,1.5-1.2l0,0c0-0.8-0.5-1.2-1.5-1.2h-1.8v2.4L230.1,440.8z"/>
	<path d="M234,440.8L234,440.8c0.1-2,1.8-3.6,3.9-3.5c1.9,0.1,3.4,1.6,3.5,3.5l0,0c-0.1,2-1.8,3.6-3.9,3.5
		C235.6,444.2,234.1,442.7,234,440.8z M240.1,440.8L240.1,440.8c0-1.3-1-2.4-2.3-2.5c0,0,0,0-0.1,0c-1.3,0-2.4,1.1-2.4,2.4
		c0,0,0,0.1,0,0.1l0,0c0,1.3,1,2.4,2.3,2.5c0,0,0.1,0,0.1,0c1.3,0,2.4-1,2.4-2.4C240.1,440.9,240.1,440.8,240.1,440.8L240.1,440.8z"
		/>
	<path d="M241.8,443.3l0.8-0.8c0.3,0.5,0.8,0.8,1.4,0.8c0.7,0,1.1-0.4,1.1-1.4v-4.6h1.3v4.6c0,0.7-0.2,1.4-0.7,1.9
		c-0.5,0.4-1.1,0.7-1.7,0.6C243.2,444.4,242.4,444,241.8,443.3z"/>
	<path d="M248.2,437.3h5.2v1.1h-4v1.8h3.5v1.1h-3.5v1.9h4v1.1h-5.3L248.2,437.3z"/>
	<path d="M254.6,440.8L254.6,440.8c0-2,1.5-3.6,3.5-3.6c0,0,0.1,0,0.1,0c1,0,2,0.4,2.8,1.1l-0.8,0.9c-0.5-0.5-1.2-0.9-2-0.9
		c-1.3,0-2.3,1.1-2.3,2.4c0,0,0,0,0,0.1l0,0c-0.1,1.3,0.9,2.4,2.2,2.5c0,0,0,0,0.1,0c0.8,0,1.5-0.3,2-0.9l0.8,0.8
		c-0.7,0.8-1.8,1.3-2.9,1.2C256.2,444.4,254.6,442.8,254.6,440.8C254.6,440.9,254.6,440.8,254.6,440.8z"/>
	<path d="M264,438.4h-2.2v-1.1h5.7v1.1h-2.2v5.9H264L264,438.4z"/>
	<path d="M271.3,443.3l0.7-0.9c0.6,0.6,1.4,0.9,2.2,0.9c0.8,0,1.2-0.4,1.2-0.9l0,0c0-0.5-0.3-0.8-1.6-1.1c-1.5-0.4-2.3-0.8-2.3-2.1
		l0,0c0.1-1.2,1.1-2.1,2.3-2c0,0,0.1,0,0.1,0c0.9,0,1.8,0.3,2.5,0.9l-0.7,0.9c-0.5-0.4-1.2-0.7-1.9-0.7c-0.7,0-1.1,0.4-1.1,0.8l0,0
		c0,0.5,0.3,0.8,1.7,1.1s2.2,0.9,2.2,2.1l0,0c0,1.3-1,2.1-2.5,2.1C273.2,444.4,272.1,444,271.3,443.3z"/>
	<path d="M278.2,437.3h2.8c1.6,0,2.7,0.9,2.7,2.3l0,0c0,1.6-1.3,2.4-2.8,2.4h-1.4v2.3h-1.2V437.3z M280.9,440.9
		c0.9,0,1.5-0.5,1.5-1.3l0,0c0-0.8-0.6-1.2-1.5-1.2h-1.4v2.5L280.9,440.9z"/>
	<path d="M286.7,437.2h1.1l3.1,7.1h-1.3l-0.7-1.7h-3.3l-0.7,1.7h-1.3L286.7,437.2z M288.5,441.5l-1.2-2.8l-1.2,2.8H288.5z"/>
	<path d="M291.4,440.8L291.4,440.8c0-2,1.5-3.6,3.5-3.6c0,0,0.1,0,0.1,0c1,0,2,0.4,2.8,1.1l-0.8,0.9c-0.5-0.5-1.2-0.9-2-0.9
		c-1.3,0-2.3,1.1-2.3,2.4c0,0,0,0,0,0.1l0,0c-0.1,1.3,0.9,2.4,2.2,2.5c0,0,0,0,0.1,0c0.8,0,1.5-0.3,2-0.9l0.8,0.8
		c-0.7,0.8-1.8,1.3-2.8,1.2C293,444.4,291.4,442.8,291.4,440.8C291.4,440.9,291.4,440.8,291.4,440.8z"/>
	<path d="M299.1,437.3h5.2v1.1h-4v1.8h3.5v1.1h-3.5v1.9h4v1.1h-5.2V437.3z"/>
	<path d="M438.1,351.2h1.1v5.2h3.3v1h-4.4V351.2z"/>
	<path d="M443,354.3L443,354.3c0.1-1.8,1.6-3.2,3.4-3.1c1.7,0.1,3,1.4,3.1,3.1l0,0c-0.1,1.8-1.6,3.2-3.4,3.1
		C444.4,357.3,443.1,356,443,354.3z M448.4,354.3L448.4,354.3c0-1.2-0.9-2.2-2.1-2.2c0,0,0,0-0.1,0c-1.2,0-2.1,0.9-2.1,2.1
		c0,0,0,0.1,0,0.1l0,0c0,1.2,0.9,2.2,2,2.2c0,0,0,0,0.1,0c1.2,0,2.1-0.9,2.1-2.1C448.4,354.4,448.4,354.4,448.4,354.3L448.4,354.3z"
		/>
	<path d="M450.8,351.2h2.8c0.6,0,1.2,0.2,1.6,0.5c0.3,0.3,0.4,0.6,0.4,1l0,0c0,0.6-0.3,1.1-0.9,1.4c0.7,0.1,1.2,0.8,1.2,1.5l0,0
		c0,1.1-0.9,1.7-2.3,1.7h-2.9L450.8,351.2z M454.6,353c0-0.5-0.4-0.8-1.1-0.8h-1.6v1.7h1.5C454.1,353.8,454.6,353.5,454.6,353
		L454.6,353z M453.7,354.8h-1.7v1.7h1.8c0.8,0,1.2-0.3,1.2-0.9l0,0C455,355.1,454.5,354.8,453.7,354.8L453.7,354.8z"/>
	<path d="M457.3,351.2h2.8c0.6,0,1.2,0.2,1.6,0.5c0.3,0.3,0.4,0.6,0.4,1l0,0c0,0.6-0.3,1.1-0.9,1.4c0.7,0.1,1.2,0.8,1.2,1.5l0,0
		c0,1.1-0.9,1.7-2.3,1.7h-2.9L457.3,351.2z M461,353c0-0.5-0.4-0.8-1.1-0.8h-1.6v1.7h1.5C460.6,353.8,461,353.5,461,353L461,353z
		 M460.1,354.8h-1.7v1.7h1.8c0.8,0,1.2-0.3,1.2-0.9l0,0C461.4,355.1,461,354.8,460.1,354.8L460.1,354.8z"/>
	<path d="M465.3,355l-2.5-3.8h1.3l1.7,2.8l1.8-2.8h1.3l-2.5,3.8v2.5h-1.1L465.3,355z"/>
	<path class="st7" d="M414,494.7h7.8v1.7h-6v2.8h5.3v1.7h-5.3v2.8h6.1v1.7H414L414,494.7z"/>
	<path class="st7" d="M427.9,494.6h1.7l4.7,10.7h-2l-1.1-2.6h-5l-1.1,2.6h-1.9L427.9,494.6z M430.5,501.1l-1.8-4.2l-1.8,4.2H430.5z"
		/>
	<path class="st7" d="M435.2,503.8l1.1-1.3c0.9,0.9,2.1,1.4,3.3,1.4c1.2,0,1.9-0.5,1.9-1.3l0,0c0-0.8-0.4-1.2-2.4-1.6
		c-2.2-0.5-3.5-1.2-3.5-3.2l0,0c0-1.8,1.5-3.1,3.6-3.1c1.4,0,2.8,0.4,3.8,1.3l-1,1.4c-0.8-0.7-1.8-1-2.9-1.1c-1.1,0-1.7,0.6-1.7,1.3
		l0,0c0,0.8,0.5,1.2,2.5,1.7c2.2,0.5,3.4,1.3,3.4,3.1l0,0c0,2-1.6,3.2-3.8,3.2C438,505.5,436.4,504.9,435.2,503.8z"/>
	<path class="st7" d="M447.9,496.4h-3.4v-1.7h8.6v1.7h-3.4v8.9h-1.9L447.9,496.4z"/>
	<path class="st7" d="M459.7,494.7h4.2c2.5,0,4,1.4,4,3.5l0,0c0,2.4-1.9,3.6-4.2,3.6h-2.1v3.4h-1.9L459.7,494.7z M463.7,500.2
		c1.4,0,2.3-0.8,2.3-1.9l0,0c0-1.2-0.9-1.9-2.3-1.9h-2.2v3.8L463.7,500.2z"/>
	<path class="st7" d="M469.8,494.7h1.9v8.9h5.6v1.7h-7.4V494.7z"/>
	<path class="st7" d="M482.9,494.6h1.7l4.7,10.7h-2l-1.1-2.6h-5l-1.1,2.6h-1.9L482.9,494.6z M485.5,501.1l-1.8-4.2l-1.8,4.2H485.5z"
		/>
	<path class="st7" d="M490.7,503.9l6.2-7.6h-6v-1.7h8.5v1.4l-6.3,7.6h6.3v1.7h-8.7V503.9z"/>
	<path class="st7" d="M505.4,494.6h1.7l4.7,10.7h-2l-1.1-2.6h-5l-1.1,2.6h-1.9L505.4,494.6z M508.1,501.1l-1.8-4.2l-1.8,4.2H508.1z"
		/>
	<g id="Y1">
		<defs>
			<rect id="SVGID_1_" x="520.2" y="490.1" width="19.8" height="19.8"/>
		</defs>
		<clipPath id="SVGID_2_">
			<use xlink:href="#SVGID_1_"  style="overflow:visible;"/>
		</clipPath>
		<g class="st8">
			<path class="st9" d="M540,500c0,5.5-4.4,9.9-9.9,9.9s-9.9-4.4-9.9-9.9c0-5.5,4.4-9.9,9.9-9.9S540,494.5,540,500L540,500"/>
		</g>
	</g>
	<polygon class="st10" points="529.3,496.5 527.5,497.1 527.1,495.6 529.9,494.7 531.1,494.7 531.1,505 529.3,505 	"/>
	<g id="_x32_-Yellow">
		<defs>
			<rect id="_x32__x5F_Yellow_1_" x="542.3" y="489.6" width="20" height="20"/>
		</defs>
		<clipPath id="_x32__x5F_Yellow_2_">
			<use xlink:href="#_x32__x5F_Yellow_1_"  style="overflow:visible;"/>
		</clipPath>
		<g class="st11">
			<path class="st12" d="M562.3,499.6c0,5.5-4.5,10-10,10s-10-4.5-10-10s4.5-10,10-10S562.3,494.1,562.3,499.6"/>
			<path class="st10" d="M548.7,503.2l3.4-2.9c1.4-1.2,1.9-1.8,1.9-2.7c0-0.8-0.6-1.5-1.4-1.6c-0.1,0-0.1,0-0.2,0
				c-0.9,0-1.5,0.5-2.3,1.5l-1.3-1c0.7-1.3,2.2-2.1,3.7-2.1c1.6-0.2,3.1,1,3.3,2.7c0,0.1,0,0.2,0,0.3l0,0c0,1.6-0.8,2.4-2.6,3.9
				l-2,1.7h4.8v1.5h-7.2V503.2z"/>
		</g>
	</g>
</g>
</svg>
