<?xml version="1.0" encoding="utf-8"?>
<!-- Generator: Adobe Illustrator 22.1.0, SVG Export Plug-In . SVG Version: 6.00 Build 0)  -->
<svg version="1.1" id="Layer_1" xmlns="http://www.w3.org/2000/svg" xmlns:xlink="http://www.w3.org/1999/xlink" x="0px" y="0px"
	 viewBox="0 0 947.1 662.5" style="enable-background:new 0 0 947.1 662.5;" xml:space="preserve">
<style type="text/css">
	.st0{stroke:#FFFFFF;stroke-width:2.0471;stroke-miterlimit:10;}
	.st1{fill:none;stroke:#FFFFFF;stroke-width:2.0471;stroke-miterlimit:10;}
	.st2{fill:#FFFFFF;stroke:#FFFFFF;stroke-width:0.2559;stroke-miterlimit:10;}
	.st3{fill:none;stroke:#FDFEFF;stroke-width:2.0471;stroke-miterlimit:10;}
	.st4{fill:none;stroke:#F9F9FA;stroke-width:2.0471;stroke-miterlimit:10;}
	.st5{fill:none;stroke:#FFFFFF;stroke-width:3.0706;stroke-miterlimit:10;}
	.st6{fill:#FEFFFF;}
	.st7{fill:#939598;}
	.st8{fill:#EE3524;}
	.st9{fill:#ED1C24;}
	.st10{fill:none;stroke:#ED1C24;stroke-width:2.0933;stroke-miterlimit:10;}
	.st11{fill:none;stroke:#ED1C24;stroke-width:2.34;stroke-miterlimit:10;}
	.st12{fill:#FFD200;}
	.st13{fill:#9F6307;}
	.st14{fill:#F29D22;}
	.st15{fill:#FFFFFF;}
	.st16{fill:#9F647A;}
	.st17{fill:#9FBE7B;}
	.st18{fill:#5A91B3;}
	.st19{fill:#33457D;}
</style>
<g id="Base_Map">
	<g id="first_x5F_floor_x5F_map">
		<g>
			<g>
				<g>
					<g>
						<rect x="81.2" y="471.7" class="st0" width="300.8" height="72.4"/>
						<polygon class="st0" points="81.2,544.1 53.3,544.1 32.3,525.5 32.3,471.7 81.2,471.7 						"/>
						<rect x="32.3" y="425.8" class="st0" width="20" height="33.1"/>
						<polygon class="st0" points="707.6,71.3 722.4,86.1 685.5,122.9 662.6,100 651.8,89.3 626.2,63.7 389.8,62.2 389.8,22.1 
							712.5,22.1 734.6,44.3 						"/>
						<polygon class="st0" points="913.8,223.9 883.6,254.1 842.5,213 837.1,218.5 856.4,237.5 828.9,265.5 803.6,241 761.9,199.3 
							738.5,175.9 685.5,122.9 722.4,86.1 707.6,71.3 734.6,44.3 						"/>
						
							<rect x="618" y="415.3" transform="matrix(0.7071 -0.7071 0.7071 0.7071 -94.4255 620.0721)" class="st0" width="166.6" height="17.5"/>
						<polygon class="st0" points="819.9,276.4 685.5,413 622.8,351.1 675.2,298.9 652.5,276.2 652.5,245.6 668.3,245.5 
							684.2,261.7 745.1,201.4 						"/>
						<polygon class="st0" points="689,148.1 636.6,200.5 625,200.5 625,259.5 593.4,259.5 593.4,357.6 567.4,364 567.4,384.8 
							464.6,384.8 464.6,364.2 438.8,357.3 438.8,259.5 406.6,259.5 406.6,200.3 396,200.3 319.3,123.6 365.1,77.9 618.8,77.9 
													"/>
						<polygon class="st0" points="404.3,342.9 313.2,434.1 160.5,281.7 282.8,159.3 305.1,137.2 326.7,158.3 340.3,171.9 
							381.8,213.4 363.9,231.3 328.2,267 337.3,275.9 366.7,246 383,246 381.8,275.2 359.2,297.8 						"/>
						<polyline class="st0" points="151.7,290.2 237.1,375.9 201.6,411.3 201.6,458.9 88.3,458.9 88.3,352 						"/>
						<rect x="55.8" y="425.8" class="st0" width="20" height="33.1"/>
						<rect x="52.3" y="385.8" class="st0" width="23.4" height="35.3"/>
						<rect x="32.3" y="349.7" class="st0" width="20" height="76.1"/>
						<rect x="58.5" y="342.5" class="st0" width="17.3" height="36"/>
						
							<rect x="71.7" y="276.8" transform="matrix(0.7072 -0.707 0.707 0.7072 -191.9556 145.4401)" class="st0" width="15.9" height="55.3"/>
						
							<rect x="44.7" y="304.7" transform="matrix(0.7071 -0.7071 0.7071 0.7071 -205.2891 133.7618)" class="st0" width="28.3" height="20"/>
						
							<rect x="37.8" y="250" transform="matrix(0.7071 -0.7071 0.7071 0.7071 -159.0381 130.3433)" class="st0" width="80.1" height="14.3"/>
						
							<rect x="94.4" y="271.3" transform="matrix(0.7071 -0.7071 0.7071 0.7071 -172.0148 162.0065)" class="st0" width="30.3" height="34.7"/>
						
							<rect x="71.2" y="313.8" transform="matrix(0.7072 -0.707 0.707 0.7072 -207.5732 151.4818)" class="st0" width="15.8" height="25.1"/>
						
							<rect x="276.4" y="60.7" transform="matrix(0.7071 -0.7071 0.7071 0.7071 34.7336 245.2671)" class="st0" width="74" height="40"/>
						
							<rect x="100.6" y="153.8" transform="matrix(0.7071 -0.7071 0.7071 0.7071 -78.8263 186.2007)" class="st0" width="169.5" height="68.9"/>
						
							<rect x="248.9" y="102.7" transform="matrix(0.7071 -0.7071 0.7071 0.7071 -7.2916 227.8105)" class="st0" width="44.9" height="40"/>
						<rect x="477.8" y="420" class="st0" width="78.4" height="30.6"/>
						<polygon class="st0" points="466.2,450.6 418.6,510.2 395.9,492.8 443.9,432.7 						"/>
						
							<rect x="593.8" y="429.7" transform="matrix(0.7071 -0.7071 0.7071 0.7071 -154.522 568.4403)" class="st0" width="30.3" height="82.1"/>
						<polygon class="st0" points="418,510.9 392.8,544.1 382,544.1 382,493.6 395.5,493.6 						"/>
						<polyline class="st0" points="477.4,420 453.3,420 444.4,432.2 467.3,450.6 477.4,450.6 						"/>
						<polyline class="st0" points="556.5,450.6 556.5,420 580.5,420 590,430.6 568.6,451.9 567.4,450.6 						"/>
						
							<rect x="656.3" y="182.2" transform="matrix(0.7071 -0.7071 0.7071 0.7071 58.9226 550.685)" class="st0" width="75.8" height="44"/>
						<polygon class="st0" points="868.3,269.5 766.4,371.3 754,358.9 855.8,257 						"/>
						<g>
							
								<rect x="117.3" y="232.1" transform="matrix(0.7072 -0.707 0.707 0.7072 -146.525 164.3777)" class="st0" width="15.8" height="54"/>
							<line class="st1" x1="100.4" y1="245.5" x2="111.5" y2="234.3"/>
						</g>
						<polygon class="st0" points="52.3,335.4 52.3,349.7 32.3,349.7 32.3,326.3 41.7,317.6 55.9,331.8 						"/>
						<polyline class="st0" points="209.6,459 209.6,415.1 251.8,372.9 251.8,372.9 268,389 233.2,423.9 233.2,459 						"/>
					</g>
				</g>
				<g>
					<path class="st0" d="M288.9,436c0,10-9.6,18.1-21.5,18.1s-21.5-8.1-21.5-18.1s9.6-18.1,21.5-18.1S288.9,426,288.9,436z"/>
					<rect x="260.5" y="453" class="st0" width="13.9" height="5.9"/>
				</g>
			</g>
			<g>
				<g>
					<path class="st2" d="M658.7,148.6l-1.1,0.4l-0.1-0.3l1.3-0.5h0.3v5.7h-0.4V148.6z"/>
					<path class="st2" d="M661.3,153.4c-0.5-0.5-0.7-1-0.7-2.2l0,0c0-1.7,0.9-3.1,2.3-3.1c0.6,0,1.1,0.3,1.6,0.7l-0.3,0.3
						c-0.4-0.4-0.9-0.6-1.4-0.6c-1.1,0-1.9,1.2-1.9,2.8v0.2c0.4-0.7,1-1.1,1.8-1.1c1,0,2,0.7,2,1.7l0,0c0,1.1-0.9,1.9-2,1.9
						C662.1,154,661.6,153.7,661.3,153.4z M664.2,152.1L664.2,152.1c0-0.8-0.6-1.4-1.5-1.4s-1.6,0.7-1.6,1.4l0,0
						c0,0.8,0.7,1.4,1.6,1.4C663.6,153.6,664.2,152.9,664.2,152.1z"/>
					<path class="st2" d="M666.5,148.6l-1.1,0.4l-0.1-0.3l1.3-0.5h0.3v5.7h-0.4V148.6z"/>
				</g>
				<g>
					<path class="st2" d="M743.3,119.8l-1.1,0.4l-0.1-0.3l1.3-0.5h0.3v5.7h-0.4V119.8z"/>
					<path class="st2" d="M745.8,124.6c-0.5-0.5-0.7-1-0.7-2.2l0,0c0-1.7,0.9-3.1,2.3-3.1c0.6,0,1.1,0.3,1.6,0.7l-0.3,0.3
						c-0.4-0.4-0.9-0.6-1.4-0.6c-1.1,0-1.9,1.2-1.9,2.8v0.2c0.4-0.7,1-1.1,1.8-1.1c1,0,2,0.7,2,1.7l0,0c0,1.1-0.9,1.9-2,1.9
						C746.7,125.2,746.2,125,745.8,124.6z M748.8,123.4L748.8,123.4c0-0.8-0.6-1.4-1.5-1.4s-1.6,0.7-1.6,1.4l0,0
						c0,0.8,0.7,1.4,1.6,1.4C748.2,124.8,748.8,124.2,748.8,123.4z"/>
					<path class="st2" d="M750.3,124.3l0.3-0.3c0.5,0.5,1.1,0.8,1.7,0.8c0.9,0,1.5-0.6,1.5-1.4l0,0c0-0.8-0.6-1.3-1.6-1.3
						c-0.5,0-0.9,0.2-1.3,0.4l-0.3-0.2l0.2-2.8h3.2v0.4h-2.8L751,122c0.4-0.2,0.7-0.3,1.3-0.3c1.1,0,1.9,0.7,1.9,1.7l0,0
						c0,1.1-0.8,1.8-2,1.8C751.5,125.2,750.8,124.8,750.3,124.3z"/>
				</g>
				<g>
					<path class="st2" d="M810.2,188.6l-1.1,0.4l-0.1-0.3l1.3-0.5h0.3v5.7h-0.4V188.6z"/>
					<path class="st2" d="M815.4,188.6h-3.3v-0.4h3.8v0.3l-2.6,5.4h-0.5L815.4,188.6z"/>
					<path class="st2" d="M819.2,192.5h-3.1l-0.1-0.3l3.2-4h0.4v4h0.9v0.4h-0.9v1.4h-0.4L819.2,192.5L819.2,192.5z M819.2,192.1
						v-3.4l-2.7,3.4H819.2z"/>
				</g>
				<g>
					<path class="st2" d="M840.1,277l-1.1,0.4l-0.1-0.3l1.3-0.5h0.3v5.7h-0.4V277z"/>
					<path class="st2" d="M845.2,277h-3.3v-0.4h3.8v0.3l-2.6,5.4h-0.5L845.2,277z"/>
					<path class="st2" d="M847.2,281.8c-0.5-0.5-0.7-1-0.7-2.2l0,0c0-1.7,0.9-3.1,2.3-3.1c0.6,0,1.1,0.3,1.6,0.7l-0.3,0.3
						c-0.4-0.4-0.9-0.6-1.4-0.6c-1.1,0-1.9,1.2-1.9,2.8v0.2c0.4-0.7,1-1.1,1.8-1.1c1,0,2,0.7,2,1.7l0,0c0,1.1-0.9,1.9-2,1.9
						C848,282.4,847.5,282.2,847.2,281.8z M850.2,280.5L850.2,280.5c0-0.8-0.6-1.4-1.5-1.4s-1.6,0.7-1.6,1.4l0,0
						c0,0.8,0.7,1.4,1.6,1.4C849.6,282,850.2,281.3,850.2,280.5z"/>
				</g>
				<g>
					<path class="st2" d="M805.9,311.8l-1.1,0.4l-0.1-0.3l1.3-0.5h0.3v5.7h-0.4V311.8z"/>
					<path class="st2" d="M811,311.8h-3.3v-0.4h3.8v0.3l-2.6,5.4h-0.5L811,311.8z"/>
					<path class="st2" d="M815.8,311.8h-3.3v-0.4h3.8v0.3l-2.6,5.4h-0.5L815.8,311.8z"/>
				</g>
				<g>
					<path class="st2" d="M773.2,344.3l-1.1,0.4l-0.1-0.3l1.3-0.5h0.3v5.7h-0.4V344.3z"/>
					<path class="st2" d="M778.3,344.4H775V344h3.8v0.3l-2.6,5.4h-0.5L778.3,344.4z"/>
					<path class="st2" d="M779.5,348.1L779.5,348.1c0-0.7,0.5-1.2,1.3-1.4c-0.6-0.2-1.1-0.6-1.1-1.3l0,0c0-0.9,0.9-1.5,1.9-1.5
						s1.9,0.6,1.9,1.5l0,0c0,0.7-0.5,1.1-1.1,1.3c0.7,0.2,1.3,0.7,1.3,1.4l0,0c0,0.9-0.9,1.6-2.1,1.6
						C780.5,349.7,779.5,349.1,779.5,348.1z M783.3,348.1L783.3,348.1c0-0.7-0.7-1.2-1.7-1.2c-0.9,0-1.7,0.5-1.7,1.2l0,0
						c0,0.6,0.6,1.2,1.7,1.2C782.7,349.3,783.3,348.8,783.3,348.1z M783.1,345.4L783.1,345.4c0-0.7-0.6-1.1-1.5-1.1
						c-0.8,0-1.5,0.5-1.5,1.1l0,0c0,0.7,0.7,1.2,1.5,1.2C782.5,346.5,783.1,346.1,783.1,345.4z"/>
				</g>
				<g>
					<path class="st2" d="M721.9,396.1l-1.1,0.4l-0.1-0.3l1.3-0.5h0.3v5.7h-0.4V396.1z"/>
					<path class="st2" d="M727,396.2h-3.3v-0.4h3.8v0.3l-2.6,5.4h-0.5L727,396.2z"/>
					<path class="st2" d="M732.1,398.4v-0.2c-0.4,0.7-1,1.1-1.8,1.1c-1.1,0-2-0.8-2-1.7l0,0c0-1,0.8-1.9,2-1.9
						c0.6,0,1.1,0.2,1.4,0.6c0.4,0.4,0.7,1.1,0.7,2.2l0,0c0,1.8-1,3.1-2.3,3.1c-0.7,0-1.2-0.3-1.7-0.7l0.3-0.3
						c0.5,0.4,0.9,0.6,1.5,0.6C731.3,401.1,732.1,400,732.1,398.4z M731.9,397.5L731.9,397.5c0-0.8-0.7-1.5-1.6-1.5
						c-0.9,0-1.5,0.7-1.5,1.5l0,0c0,0.8,0.6,1.4,1.5,1.4C731.3,398.9,731.9,398.2,731.9,397.5z"/>
				</g>
				<g>
					<path class="st2" d="M461.1,430.8l-1.1,0.4l-0.1-0.3l1.3-0.5h0.3v5.7h-0.4L461.1,430.8L461.1,430.8z"/>
					<path class="st2" d="M462.8,434.6L462.8,434.6c0-0.7,0.5-1.2,1.3-1.4c-0.6-0.2-1.1-0.6-1.1-1.3l0,0c0-0.9,0.9-1.5,1.9-1.5
						s1.9,0.6,1.9,1.5l0,0c0,0.7-0.5,1.1-1.1,1.3c0.7,0.2,1.3,0.7,1.3,1.4l0,0c0,0.9-0.9,1.6-2.1,1.6
						C463.7,436.2,462.8,435.5,462.8,434.6z M466.6,434.6L466.6,434.6c0-0.7-0.7-1.2-1.7-1.2c-0.9,0-1.7,0.5-1.7,1.2l0,0
						c0,0.6,0.6,1.2,1.7,1.2C466,435.8,466.6,435.3,466.6,434.6z M466.4,431.9L466.4,431.9c0-0.7-0.6-1.1-1.5-1.1
						c-0.8,0-1.5,0.5-1.5,1.1l0,0c0,0.7,0.7,1.2,1.5,1.2C465.7,433,466.4,432.6,466.4,431.9z"/>
					<path class="st2" d="M471.7,433.1v-0.2c-0.4,0.7-1,1.1-1.8,1.1c-1.1,0-2-0.8-2-1.7l0,0c0-1,0.8-1.9,2-1.9
						c0.6,0,1.1,0.2,1.4,0.6c0.4,0.4,0.7,1.1,0.7,2.2l0,0c0,1.8-1,3.1-2.3,3.1c-0.7,0-1.2-0.3-1.7-0.7l0.3-0.3
						c0.5,0.4,0.9,0.6,1.5,0.6C471,435.8,471.7,434.6,471.7,433.1z M471.5,432.2L471.5,432.2c0-0.8-0.7-1.5-1.6-1.5
						s-1.5,0.7-1.5,1.5l0,0c0,0.8,0.6,1.4,1.5,1.4C470.9,433.6,471.5,432.9,471.5,432.2z"/>
				</g>
				<g>
					<path class="st2" d="M168.7,516.3l-1.1,0.4l-0.1-0.3l1.3-0.5h0.3v5.7h-0.4V516.3z"/>
					<path class="st2" d="M171.4,516.3l-1.1,0.4l-0.1-0.3l1.3-0.5h0.3v5.7h-0.4V516.3z"/>
					<path class="st2" d="M173,521.3l2.1-1.9c0.9-0.9,1.3-1.3,1.3-1.9c0-0.7-0.6-1.2-1.3-1.2s-1.2,0.4-1.7,1.1l-0.3-0.2
						c0.5-0.8,1-1.2,2-1.2s1.7,0.7,1.7,1.6l0,0c0,0.8-0.4,1.3-1.4,2.2l-1.7,1.6h3.2v0.4H173V521.3z"/>
				</g>
				<g>
					<path class="st2" d="M107.8,516.5l-1.1,0.4l-0.1-0.3l1.3-0.5h0.3v5.7h-0.4C107.8,521.8,107.8,516.5,107.8,516.5z"/>
					<path class="st2" d="M110.5,516.5l-1.1,0.4l-0.1-0.3l1.3-0.5h0.3v5.7h-0.4C110.5,521.8,110.5,516.5,110.5,516.5z"/>
					<path class="st2" d="M113,521.3c-0.5-0.5-0.7-1-0.7-2.2l0,0c0-1.7,0.9-3.1,2.3-3.1c0.6,0,1.1,0.3,1.6,0.7L116,517
						c-0.4-0.4-0.9-0.6-1.4-0.6c-1.1,0-1.9,1.2-1.9,2.8v0.2c0.4-0.7,1-1.1,1.8-1.1c1,0,2,0.7,2,1.7l0,0c0,1.1-0.9,1.9-2,1.9
						C113.9,521.9,113.3,521.7,113,521.3z M116,520L116,520c0-0.8-0.6-1.4-1.5-1.4s-1.6,0.7-1.6,1.4l0,0c0,0.8,0.7,1.4,1.6,1.4
						C115.4,521.5,116,520.8,116,520z"/>
				</g>
				<g>
					<path class="st2" d="M56.4,516.3l-1.1,0.4l-0.1-0.3l1.3-0.5h0.3v5.7h-0.4V516.3z"/>
					<path class="st2" d="M59.1,516.3l-1.1,0.4l-0.1-0.3l1.3-0.5h0.3v5.7h-0.4V516.3z"/>
					<path class="st2" d="M60.8,520.1L60.8,520.1c0-0.7,0.5-1.2,1.3-1.4c-0.6-0.2-1.1-0.6-1.1-1.3l0,0c0-0.9,0.9-1.5,1.9-1.5
						s1.9,0.6,1.9,1.5l0,0c0,0.7-0.5,1.1-1.1,1.3c0.7,0.2,1.3,0.7,1.3,1.4l0,0c0,0.9-0.9,1.6-2.1,1.6
						C61.8,521.7,60.8,521,60.8,520.1z M64.6,520.1L64.6,520.1c0-0.7-0.7-1.2-1.7-1.2c-0.9,0-1.7,0.5-1.7,1.2l0,0
						c0,0.6,0.6,1.2,1.7,1.2S64.6,520.7,64.6,520.1z M64.4,517.3L64.4,517.3c0-0.7-0.6-1.1-1.5-1.1c-0.8,0-1.5,0.5-1.5,1.1l0,0
						c0,0.7,0.7,1.2,1.5,1.2S64.4,518,64.4,517.3z"/>
				</g>
				<g>
					<path class="st2" d="M187.2,441.2l-1.1,0.4l-0.1-0.3l1.3-0.5h0.3v5.7h-0.4V441.2z"/>
					<path class="st2" d="M189.9,441.2l-1.1,0.4l-0.1-0.3l1.3-0.5h0.3v5.7h-0.4V441.2z"/>
					<path class="st2" d="M192.6,441.2l-1.1,0.4l-0.1-0.3l1.3-0.5h0.3v5.7h-0.4V441.2z"/>
				</g>
				<g>
					<path class="st2" d="M105.7,384.8l-1.1,0.4l-0.1-0.3l1.3-0.5h0.3v5.7h-0.4C105.7,390.1,105.7,384.8,105.7,384.8z"/>
					<path class="st2" d="M107.3,389.8l2.1-1.9c0.9-0.9,1.3-1.3,1.3-1.9c0-0.7-0.6-1.2-1.3-1.2c-0.7,0-1.2,0.4-1.7,1.1l-0.3-0.2
						c0.5-0.8,1-1.2,2-1.2s1.7,0.7,1.7,1.6l0,0c0,0.8-0.4,1.3-1.4,2.2l-1.7,1.6h3.2v0.4h-3.9C107.3,390.3,107.3,389.8,107.3,389.8z"
						/>
					<path class="st2" d="M115.1,388.7H112l-0.1-0.3l3.2-4h0.4v4h0.9v0.4h-0.9v1.4h-0.4V388.7z M115.1,388.4V385l-2.7,3.4H115.1z"/>
				</g>
				<g>
					<path class="st2" d="M129.5,328.9l-1.1,0.4l-0.1-0.3l1.3-0.5h0.3v5.7h-0.4V328.9z"/>
					<path class="st2" d="M134.3,332.8h-3.1l-0.1-0.3l3.2-4h0.4v4h0.9v0.4h-0.9v1.4h-0.4L134.3,332.8L134.3,332.8z M134.3,332.4V329
						l-2.7,3.4H134.3z"/>
					<path class="st2" d="M136.5,333.9l2.1-1.9c0.9-0.9,1.3-1.3,1.3-1.9c0-0.7-0.6-1.2-1.3-1.2s-1.2,0.4-1.7,1.1l-0.3-0.2
						c0.5-0.8,1-1.2,2-1.2s1.7,0.7,1.7,1.6l0,0c0,0.8-0.4,1.3-1.4,2.2l-1.7,1.6h3.2v0.4h-3.9L136.5,333.9L136.5,333.9z"/>
				</g>
				<g>
					<path class="st2" d="M161.5,351.5l-1.1,0.4l-0.1-0.3l1.3-0.5h0.3v5.7h-0.4V351.5z"/>
					<path class="st2" d="M166.4,355.4h-3.1l-0.1-0.3l3.2-4h0.4v4h0.9v0.4h-0.9v1.4h-0.4L166.4,355.4L166.4,355.4z M166.4,355v-3.4
						l-2.7,3.4H166.4z"/>
					<path class="st2" d="M168.6,355.9l0.3-0.3c0.5,0.6,1,0.9,1.8,0.9s1.4-0.5,1.4-1.3l0,0c0-0.8-0.7-1.2-1.8-1.2H170l-0.1-0.2
						l2-2.3h-3v-0.4h3.6v0.3l-1.9,2.2c1.1,0.1,2,0.6,2,1.6l0,0c0,1-0.9,1.7-1.9,1.7C169.8,356.9,169.1,356.5,168.6,355.9z"/>
				</g>
				<g>
					<path class="st2" d="M165.6,202.6l-1.1,0.4l-0.1-0.3l1.3-0.5h0.3v5.7h-0.4V202.6z"/>
					<path class="st2" d="M170.5,206.5h-3.1l-0.1-0.3l3.2-4h0.4v4h0.9v0.4h-0.9v1.4h-0.4L170.5,206.5L170.5,206.5z M170.5,206.1
						v-3.4l-2.7,3.4H170.5z"/>
					<path class="st2" d="M175.9,206.5h-3.1l-0.1-0.3l3.2-4h0.4v4h0.9v0.4h-0.9v1.4h-0.4L175.9,206.5L175.9,206.5z M175.9,206.1
						v-3.4l-2.7,3.4H175.9z"/>
				</g>
				<g>
					<path class="st2" d="M224.2,143l-1.1,0.4L223,143l1.3-0.5h0.3v5.7h-0.4L224.2,143L224.2,143z"/>
					<path class="st2" d="M229.1,146.9H226l-0.1-0.3l3.2-4h0.4v4h0.9v0.4h-0.9v1.4h-0.4L229.1,146.9L229.1,146.9z M229.1,146.5v-3.4
						l-2.7,3.4H229.1z"/>
					<path class="st2" d="M232.1,147.8c-0.5-0.5-0.7-1-0.7-2.2l0,0c0-1.7,0.9-3.1,2.3-3.1c0.6,0,1.1,0.3,1.6,0.7l-0.3,0.3
						c-0.4-0.4-0.9-0.6-1.4-0.6c-1.1,0-1.9,1.2-1.9,2.8v0.2c0.4-0.7,1-1.1,1.8-1.1c1,0,2,0.7,2,1.7l0,0c0,1.1-0.9,1.9-2,1.9
						C233,148.4,232.4,148.2,232.1,147.8z M235.1,146.5L235.1,146.5c0-0.8-0.6-1.4-1.5-1.4s-1.6,0.7-1.6,1.4l0,0
						c0,0.8,0.7,1.4,1.6,1.4C234.5,148,235.1,147.3,235.1,146.5z"/>
				</g>
				<g>
					<path class="st2" d="M314.5,72.7l-1.1,0.4l-0.1-0.3l1.3-0.5h0.3V78h-0.4L314.5,72.7L314.5,72.7z"/>
					<path class="st2" d="M316.2,77.1l0.3-0.3c0.5,0.5,1.1,0.8,1.7,0.8c0.9,0,1.5-0.6,1.5-1.4l0,0c0-0.8-0.6-1.3-1.6-1.3
						c-0.5,0-0.9,0.2-1.3,0.4l-0.3-0.2l0.2-2.8h3.2v0.4h-2.8l-0.1,2.1c0.4-0.2,0.7-0.3,1.3-0.3c1.1,0,1.9,0.7,1.9,1.7l0,0
						c0,1.1-0.8,1.8-2,1.8C317.4,78,316.7,77.6,316.2,77.1z"/>
					<path class="st2" d="M321,77l0.3-0.3c0.5,0.6,1,0.9,1.8,0.9s1.4-0.5,1.4-1.3l0,0c0-0.8-0.7-1.2-1.8-1.2h-0.3l-0.1-0.2l2-2.3h-3
						v-0.4h3.6v0.3l-1.9,2.2c1.1,0.1,2,0.6,2,1.6l0,0c0,1-0.9,1.7-1.9,1.7C322.2,78,321.5,77.6,321,77z"/>
				</g>
				<g>
					<path class="st2" d="M411.7,39.5l-1.1,0.4l-0.1-0.3l1.3-0.5h0.3v5.7h-0.4L411.7,39.5L411.7,39.5z"/>
					<path class="st2" d="M413.4,43.9l0.3-0.3c0.5,0.5,1.1,0.8,1.7,0.8c0.9,0,1.5-0.6,1.5-1.4l0,0c0-0.8-0.6-1.3-1.6-1.3
						c-0.5,0-0.9,0.2-1.3,0.4l-0.3-0.2l0.2-2.8h3.2v0.4h-2.8l-0.1,2.1c0.4-0.2,0.7-0.3,1.3-0.3c1.1,0,1.9,0.7,1.9,1.7l0,0
						c0,1.1-0.8,1.8-2,1.8C414.6,44.8,413.9,44.4,413.4,43.9z"/>
					<path class="st2" d="M418.3,43.9l0.3-0.3c0.5,0.5,1.1,0.8,1.7,0.8c0.9,0,1.5-0.6,1.5-1.4l0,0c0-0.8-0.6-1.3-1.6-1.3
						c-0.5,0-0.9,0.2-1.3,0.4l-0.3-0.2l0.2-2.8h3.2v0.4h-2.8l-0.1,2.1c0.4-0.2,0.7-0.3,1.3-0.3c1.1,0,1.9,0.7,1.9,1.7l0,0
						c0,1.1-0.8,1.8-2,1.8C419.5,44.8,418.8,44.4,418.3,43.9z"/>
				</g>
				<g>
					<path class="st2" d="M673.3,59.7l-1.1,0.4l-0.1-0.3l1.3-0.5h0.3V65h-0.4V59.7z"/>
					<path class="st2" d="M675,64.1l0.3-0.3c0.5,0.5,1.1,0.8,1.7,0.8c0.9,0,1.5-0.6,1.5-1.4l0,0c0-0.8-0.6-1.3-1.6-1.3
						c-0.5,0-0.9,0.2-1.3,0.4l-0.3-0.2l0.2-2.8h3.2v0.4h-2.8l-0.1,2.1c0.4-0.2,0.7-0.3,1.3-0.3c1.1,0,1.9,0.7,1.9,1.7l0,0
						c0,1.1-0.8,1.8-2,1.8C676.2,65.1,675.5,64.6,675,64.1z"/>
					<path class="st2" d="M683.1,59.7h-3.3v-0.4h3.8v0.3L681,65h-0.5L683.1,59.7z"/>
				</g>
			</g>
			<g>
				<line class="st1" x1="285" y1="136.5" x2="257.2" y2="108.6"/>
				<g>
					<line class="st3" x1="313.4" y1="109" x2="285" y2="80.7"/>
					<line class="st3" x1="444.5" y1="62.6" x2="444.5" y2="22.1"/>
					<line class="st3" x1="660.8" y1="284.5" x2="683.9" y2="261.4"/>
					<line class="st3" x1="716.6" y1="256.8" x2="702.9" y2="243.2"/>
					<line class="st3" x1="738.7" y1="235" x2="725" y2="221.3"/>
					<line class="st3" x1="758.5" y1="214.9" x2="674.7" y2="298.6"/>
					<line class="st3" x1="694.2" y1="131.6" x2="758.5" y2="67.3"/>
					<line class="st3" x1="833.5" y1="304.2" x2="821.1" y2="291.8"/>
					<line class="st3" x1="800.8" y1="336.8" x2="788.5" y2="324.5"/>
					<line class="st3" x1="746.1" y1="391.6" x2="733.7" y2="379.2"/>
					<line class="st3" x1="718.8" y1="419.1" x2="706.3" y2="406.6"/>
					<line class="st3" x1="686.4" y1="451.3" x2="674" y2="438.9"/>
					<line class="st3" x1="608.8" y1="492.1" x2="630.2" y2="470.7"/>
					<line class="st3" x1="594.7" y1="478" x2="616.1" y2="456.6"/>
					<line class="st3" x1="568.9" y1="452.1" x2="590.2" y2="430.7"/>
					<line class="st3" x1="556.2" y1="450.6" x2="556.2" y2="420"/>
					<line class="st3" x1="477.4" y1="450.6" x2="477.4" y2="420"/>
					<line class="st3" x1="466.3" y1="450.4" x2="444.2" y2="432.4"/>
					<line class="st3" x1="455.3" y1="464.2" x2="432.2" y2="447.3"/>
					<line class="st3" x1="444.4" y1="479.2" x2="421.1" y2="461.3"/>
					<line class="st3" x1="431.9" y1="493.6" x2="409.1" y2="476.2"/>
					<line class="st3" x1="362.4" y1="544.1" x2="362.4" y2="471.7"/>
					<line class="st3" x1="317.5" y1="544.1" x2="317.5" y2="470.6"/>
					<line class="st3" x1="230.7" y1="544.1" x2="230.7" y2="471.7"/>
					<line class="st3" x1="203.8" y1="544.1" x2="203.8" y2="471.7"/>
					<line class="st3" x1="142.5" y1="545" x2="142.5" y2="471.7"/>
					<line class="st3" x1="79.4" y1="544.1" x2="79.4" y2="471.7"/>
					<line class="st3" x1="201.6" y1="425.8" x2="88.3" y2="425.8"/>
					<line class="st3" x1="155.4" y1="458.9" x2="155.4" y2="425.8"/>
					<line class="st3" x1="133.4" y1="458.9" x2="133.4" y2="425.4"/>
					<line class="st3" x1="111.6" y1="458.9" x2="111.6" y2="425.4"/>
					<line class="st3" x1="75.7" y1="402.6" x2="32.3" y2="402.6"/>
					<line class="st3" x1="52.3" y1="376.5" x2="32.3" y2="376.5"/>
					<line class="st3" x1="73.2" y1="271.9" x2="63.1" y2="261.8"/>
					<line class="st3" x1="93.1" y1="252.1" x2="83" y2="241.9"/>
					<line class="st3" x1="98.8" y1="299.4" x2="120.3" y2="277.9"/>
					<line class="st1" x1="236.9" y1="185.5" x2="188.1" y2="136.8"/>
					<line class="st3" x1="119.7" y1="264.8" x2="130.9" y2="253.6"/>
					<line class="st1" x1="376.9" y1="280.2" x2="354.8" y2="258.1"/>
					<polyline class="st1" points="224.6,363.3 178.2,409.6 104.2,336.5 					"/>
					<line class="st1" x1="805.8" y1="243.1" x2="869.6" y2="179.4"/>
					<line class="st1" x1="901" y1="211.1" x2="870.6" y2="241.5"/>
					<polyline class="st1" points="734.9,44.5 707.6,71.8 721.8,86 722.5,85.4 749.5,58.4 					"/>
					<polyline class="st1" points="345.4,97.5 367.2,119.3 381.4,106 394,106 394,77.9 					"/>
					<polyline class="st1" points="635.4,151.6 660.5,176.7 635.4,151.6 664,123.1 					"/>
					<polyline class="st4" points="689.4,256.5 696.3,263.4 691.4,268.3 698.2,275.1 					"/>
					<line class="st3" x1="662.6" y1="475.1" x2="650.2" y2="462.7"/>
					<line class="st3" x1="536.4" y1="450.6" x2="536.4" y2="420"/>
					<line class="st3" x1="499.4" y1="450.6" x2="499.4" y2="420"/>
					<polyline class="st1" points="369.6,225.6 349.5,205.6 362,193.2 308.6,246.6 360.5,298.7 					"/>
					<line class="st1" x1="328.9" y1="133.3" x2="355" y2="107.2"/>
					<line class="st1" x1="341.5" y1="120.7" x2="331.9" y2="111"/>
					<line class="st1" x1="787.9" y1="308.9" x2="726.2" y2="247.2"/>
					<line class="st1" x1="382" y1="510.3" x2="362.4" y2="510.3"/>
					<polyline class="st3" points="32.3,504.5 70.4,504.5 70.4,471.7 					"/>
					<line class="st3" x1="216.2" y1="396.6" x2="203.8" y2="384.2"/>
					<polyline class="st3" points="203.2,342 171.4,373.9 190.9,397.3 					"/>
					<line class="st3" x1="210.6" y1="377.2" x2="185.2" y2="360.5"/>
					<line class="st3" x1="197.6" y1="368.3" x2="213.6" y2="352.3"/>
					<polyline class="st3" points="167.3,305.8 151,322.5 135.2,306.4 					"/>
					<polyline class="st3" points="184.8,323 158.6,330.1 128.2,360.5 					"/>
					<polyline class="st3" points="178.2,409.6 178.2,425.2 178.2,424.7 178.2,458.9 					"/>
					<line class="st3" x1="64.9" y1="323.3" x2="87.4" y2="300.9"/>
					<line class="st1" x1="238.8" y1="418.3" x2="222.4" y2="402.3"/>
					<line class="st3" x1="339.6" y1="544.1" x2="339.6" y2="466.6"/>
					<line class="st3" x1="55" y1="290.9" x2="66.2" y2="279.7"/>
					<line class="st3" x1="61.5" y1="298.2" x2="93.2" y2="329.9"/>
					<line class="st3" x1="52.3" y1="352" x2="32.3" y2="352"/>
					<polyline class="st1" points="367.2,119.3 406.6,158.8 406.2,200.3 					"/>
					<line class="st1" x1="354.5" y1="158.9" x2="380.4" y2="133"/>
					<line class="st1" x1="371.2" y1="175.6" x2="397.1" y2="149.6"/>
					<line class="st3" x1="418.3" y1="510.5" x2="395.5" y2="493.2"/>
					<polyline class="st1" points="635.4,151.7 625.6,161.5 625.6,200.5 					"/>
					<line class="st3" x1="582.6" y1="465.4" x2="604" y2="444"/>
					<polyline class="st1" points="250.4,471.7 250.4,496.4 297.3,496.4 297.3,471.7 					"/>
					<line class="st3" x1="52.3" y1="425.8" x2="32.3" y2="425.8"/>
					<line class="st1" x1="336.8" y1="218.7" x2="280.2" y2="162"/>
					<line class="st1" x1="297.9" y1="180.2" x2="323.2" y2="154.9"/>
					<line class="st1" x1="323.8" y1="206.1" x2="349.2" y2="180.7"/>
					<line class="st1" x1="310.8" y1="193.2" x2="336.2" y2="167.8"/>
					<line class="st3" x1="685.2" y1="122.6" x2="721.9" y2="86"/>
				</g>
			</g>
		</g>
		<line class="st5" x1="741.8" y1="179.2" x2="805.9" y2="115"/>
	</g>
</g>
<g id="Pictograms">
	<path class="st6" d="M698.2,441.6h-9.8c-3.3,0-5.9-2.6-5.9-5.9v-8.8c0-3.3,2.6-5.9,5.9-5.9h9.8c3.3,0,5.9,2.6,5.9,5.9v8.8
		C704.1,439,701.5,441.6,698.2,441.6z"/>
	<path class="st6" d="M900.8,241.5H891c-3.3,0-5.9-2.6-5.9-5.9v-8.8c0-3.3,2.6-5.9,5.9-5.9h9.8c3.3,0,5.9,2.6,5.9,5.9v8.8
		C906.7,238.9,904.1,241.5,900.8,241.5z"/>
	<path class="st6" d="M872,208.7h-9.8c-3.3,0-5.9-2.6-5.9-5.9V194c0-3.3,2.6-5.9,5.9-5.9h9.8c3.3,0,5.9,2.6,5.9,5.9v8.8
		C877.9,206.1,875.3,208.7,872,208.7z"/>
	<path class="st6" d="M731.5,70.9h-9.8c-3.3,0-5.9-2.6-5.9-5.9v-8.8c0-3.3,2.6-5.9,5.9-5.9h9.8c3.3,0,5.9,2.6,5.9,5.9V65
		C737.4,68.3,734.7,70.9,731.5,70.9z"/>
	<path class="st6" d="M614.1,252.5h-9.8c-3.3,0-5.9-2.6-5.9-5.9v-8.8c0-3.3,2.6-5.9,5.9-5.9h9.8c3.3,0,5.9,2.6,5.9,5.9v8.8
		C620,249.9,617.4,252.5,614.1,252.5z"/>
	<path class="st6" d="M430.2,251.1h-9.8c-3.3,0-5.9-2.6-5.9-5.9v-8.8c0-3.3,2.6-5.9,5.9-5.9h9.8c3.3,0,5.9,2.6,5.9,5.9v8.8
		C436.1,248.5,433.5,251.1,430.2,251.1z"/>
	<path class="st6" d="M302.4,109.8h-9.8c-3.3,0-5.9-2.6-5.9-5.9v-8.8c0-3.3,2.6-5.9,5.9-5.9h9.8c3.3,0,5.9,2.6,5.9,5.9v8.8
		C308.3,107.2,305.6,109.8,302.4,109.8z"/>
	<path class="st6" d="M275.6,131.5h-9.8c-3.3,0-5.9-2.6-5.9-5.9v-8.8c0-3.3,2.6-5.9,5.9-5.9h9.8c3.3,0,5.9,2.6,5.9,5.9v8.8
		C281.5,128.8,278.8,131.5,275.6,131.5z"/>
	<path class="st6" d="M341.5,518.1h-9.8c-3.3,0-5.9-2.6-5.9-5.9v-8.8c0-3.3,2.6-5.9,5.9-5.9h9.8c3.3,0,5.9,2.6,5.9,5.9v8.8
		C347.4,515.4,344.8,518.1,341.5,518.1z"/>
	<path class="st6" d="M375.3,504.6h-9.8c-3.3,0-5.9-2.6-5.9-5.9v-8.8c0-3.3,2.6-5.9,5.9-5.9h9.8c3.3,0,5.9,2.6,5.9,5.9v8.8
		C381.2,502,378.5,504.6,375.3,504.6z"/>
	<g>
		<path class="st7" d="M608,261.2c2.8,0,5.7,0,8.5,0c1.5,0,2.7,1.1,2.7,2.7c0,5.7,0,11.3,0,17c0,1.6-1.1,2.7-2.7,2.7
			c-5.6,0-11.3,0-16.9,0c-1.4,0-2.4-0.9-2.7-2.2c0-0.1,0-0.3,0-0.4c0-5.7,0-11.4,0-17.2c0-1.4,1.2-2.6,2.6-2.6
			C602.3,261.2,605.2,261.2,608,261.2z M614.3,267.7c-0.5,0-0.9,0-1.4,0c-0.4,0-0.5,0.1-0.5,0.5c0,0.3,0,0.7,0,1
			c0,0.5-0.1,0.6-0.6,0.6c-0.7,0-1.5,0-2.2,0c-0.4,0-0.5,0.2-0.5,0.5s0,0.6,0,1s-0.1,0.5-0.5,0.5c-0.7,0-1.5,0-2.2,0
			c-0.4,0-0.6,0.2-0.6,0.6s0,0.7,0,1.1c0,0.3-0.1,0.4-0.4,0.4c-0.8,0-1.6,0-2.3,0c-0.4,0-0.7,0.2-0.7,0.7c0,0.4,0,0.7,0,1.1
			c0,0.3-0.1,0.4-0.4,0.4c-0.6,0-1.1,0-1.7,0c-0.3,0-0.5,0.2-0.5,0.6s0.1,0.6,0.5,0.6c1,0,1.9,0,2.9,0c0.3,0,0.5-0.2,0.5-0.5
			c0-0.4,0-0.7,0-1.1s0.1-0.5,0.5-0.5c0.8,0,1.6,0,2.3,0c0.4,0,0.6-0.2,0.6-0.6c0-0.3,0-0.7,0-1c0-0.4,0.1-0.5,0.5-0.5
			c0.7,0,1.5,0,2.2,0c0.4,0,0.5-0.2,0.5-0.6c0-0.3,0-0.7,0-1c0-0.5,0.1-0.6,0.6-0.6c0.7,0,1.5,0,2.2,0c0.4,0,0.5-0.2,0.5-0.5
			s0-0.7,0-1c0-0.4,0.1-0.4,0.4-0.4c0.5,0,1.1,0,1.6,0c0.4,0,0.6-0.2,0.6-0.6s-0.2-0.6-0.6-0.6C615.3,267.7,614.8,267.7,614.3,267.7
			z"/>
	</g>
	<g>
		<path class="st7" d="M424.7,261.9c2.8,0,5.7,0,8.5,0c1.5,0,2.7,1.1,2.7,2.7c0,5.7,0,11.3,0,17c0,1.6-1.1,2.7-2.7,2.7
			c-5.6,0-11.3,0-16.9,0c-1.4,0-2.4-0.9-2.7-2.2c0-0.1,0-0.3,0-0.4c0-5.7,0-11.4,0-17.2c0-1.4,1.2-2.6,2.6-2.6
			C419,261.9,421.9,261.9,424.7,261.9z M431,268.3c-0.5,0-0.9,0-1.4,0c-0.4,0-0.5,0.1-0.5,0.5c0,0.3,0,0.7,0,1
			c0,0.5-0.1,0.6-0.6,0.6c-0.7,0-1.5,0-2.2,0c-0.4,0-0.5,0.2-0.5,0.5s0,0.6,0,1s-0.1,0.5-0.5,0.5c-0.7,0-1.5,0-2.2,0
			c-0.4,0-0.6,0.2-0.6,0.6s0,0.7,0,1.1c0,0.3-0.1,0.4-0.4,0.4c-0.8,0-1.6,0-2.3,0c-0.4,0-0.7,0.2-0.7,0.7c0,0.4,0,0.7,0,1.1
			c0,0.3-0.1,0.4-0.4,0.4c-0.6,0-1.1,0-1.7,0c-0.3,0-0.5,0.2-0.5,0.6s0.1,0.6,0.5,0.6c1,0,1.9,0,2.9,0c0.3,0,0.5-0.2,0.5-0.5
			c0-0.4,0-0.7,0-1.1s0.1-0.5,0.5-0.5c0.8,0,1.6,0,2.3,0c0.4,0,0.6-0.2,0.6-0.6c0-0.3,0-0.7,0-1c0-0.4,0.1-0.5,0.5-0.5
			c0.7,0,1.5,0,2.2,0c0.4,0,0.5-0.2,0.5-0.6c0-0.3,0-0.7,0-1c0-0.5,0.1-0.6,0.6-0.6c0.7,0,1.5,0,2.2,0c0.4,0,0.5-0.2,0.5-0.5
			s0-0.7,0-1c0-0.4,0.1-0.4,0.4-0.4c0.5,0,1.1,0,1.6,0c0.4,0,0.6-0.2,0.6-0.6s-0.2-0.6-0.6-0.6C432,268.3,431.5,268.3,431,268.3z"/>
	</g>
	<g>
		<path class="st7" d="M608.7,230.7c2.8,0,5.7,0,8.5,0c1.5,0,2.7,1.1,2.7,2.7c0,5.7,0,11.3,0,17c0,1.5-1.2,2.7-2.7,2.7
			c-5.7,0-11.3,0-17,0c-1.5,0-2.7-1.2-2.7-2.7c0-5.7,0-11.3,0-17c0-1.4,1.3-2.7,2.7-2.7C603.1,230.7,605.9,230.7,608.7,230.7z
			 M608.7,238.8c-1.8,0-3.5,0-5.3,0c-0.7,0-1.4,0.5-1.4,1.4c0,3,0,6,0,9c0,0.8,0.6,1.4,1.4,1.4c3.5,0,7.1,0,10.6,0
			c0.9,0,1.4-0.5,1.4-1.4c0-3,0-6,0-9c0-0.9-0.5-1.4-1.4-1.4C612.3,238.8,610.5,238.8,608.7,238.8z M605.9,235.2c0,0.5,0,1,0,1.5
			c0,0.1,0,0.1,0,0.2c-0.1,0-0.1,0-0.2-0.1c-0.3-0.3-0.6-0.6-0.9-0.9c-0.2-0.2-0.4-0.2-0.5-0.1c-0.2,0.1-0.1,0.3,0.1,0.5
			c0.5,0.5,1.1,1.1,1.7,1.6c0.2,0.2,0.3,0.2,0.5,0c0.6-0.6,1.1-1.1,1.7-1.7c0.2-0.2,0.2-0.4,0-0.5s-0.3-0.1-0.5,0.1
			c-0.3,0.3-0.6,0.6-0.9,0.9c-0.1,0-0.1,0.1-0.2,0.1c-0.1,0,0-0.1,0-0.2c0-0.9,0-1.9,0-2.8c0-0.1,0-0.3-0.1-0.4
			c-0.1-0.1-0.1-0.2-0.3-0.2c-0.1,0-0.2,0.1-0.3,0.2c0,0.1,0,0.2,0,0.3C605.9,234.2,605.9,234.7,605.9,235.2z M611.5,236.2
			c0-0.5,0-1,0-1.5c0-0.1,0-0.1,0-0.2c0.1,0,0.1,0.1,0.2,0.1c0.3,0.3,0.7,0.6,1,1c0.2,0.2,0.4,0.2,0.5,0.1c0.1-0.1,0.1-0.3-0.1-0.5
			c-0.5-0.5-1.1-1.1-1.6-1.6c-0.2-0.2-0.4-0.2-0.6,0c-0.3,0.3-0.5,0.5-0.8,0.8s-0.6,0.6-0.8,0.9c-0.1,0.1-0.2,0.3,0,0.5
			c0.1,0.2,0.3,0.1,0.5,0c0.1,0,0.1-0.1,0.1-0.1c0.3-0.3,0.5-0.5,0.8-0.8c0.1-0.1,0.1-0.1,0.2-0.1c0.1,0,0,0.1,0,0.2
			c0,0.1,0,0.1,0,0.2c0,0.9,0,1.8,0,2.8c0,0.3,0.1,0.4,0.3,0.4s0.3-0.1,0.3-0.4C611.5,237.1,611.5,236.6,611.5,236.2z"/>
		<path class="st7" d="M608.7,239.4c1.7,0,3.5,0,5.2,0c0.6,0,0.8,0.2,0.8,0.8c0,3,0,6,0,8.9c0,0.6-0.2,0.7-0.8,0.8
			c-3.5,0-7,0-10.5,0c-0.6,0-0.8-0.2-0.8-0.8c0-3,0-5.9,0-8.9c0-0.6,0.2-0.8,0.8-0.8C605.2,239.4,607,239.4,608.7,239.4z
			 M608.7,248.8c0.4,0,0.5-0.1,0.5-0.5c0-0.6,0.1-1.1,0.1-1.7c0-0.2,0.1-0.3,0.3-0.3c0.3-0.1,0.4-0.1,0.3-0.5c0-0.1,0-0.2,0-0.2
			c0-0.2,0-0.4,0.2-0.5c0.1-0.1,0.2-0.2,0.2-0.3c-0.2-0.8-0.3-1.6-0.5-2.4c-0.1-0.2-0.2-0.3-0.4-0.1c-0.4,0.4-0.8,0.4-1.2,0
			c-0.2-0.1-0.3-0.1-0.4,0.2c-0.2,0.8-0.3,1.6-0.5,2.4c0,0.2,0,0.3,0.2,0.4c0.1,0.1,0.2,0.2,0.2,0.4s0,0.3-0.1,0.5
			c0,0.2,0,0.3,0.2,0.3c0.4,0,0.4,0.2,0.4,0.6c0,0.5,0.1,1.1,0.1,1.6C608.2,248.7,608.4,248.8,608.7,248.8z M606.4,242.7
			c0-0.5-0.1-0.6-0.4-0.7c-0.3,0-0.4,0.1-0.6,0.3c-0.3,0.3-0.5,0.3-0.8,0c-0.1-0.1-0.1-0.1-0.2-0.2c-0.2-0.2-0.4-0.1-0.6,0
			c-0.1,0.1-0.2,0.2-0.2,0.4c0.1,0.8,0.1,1.5,0.2,2.3c0,0.1,0.1,0.3,0.2,0.3c0.2,0.1,0.3,0.3,0.3,0.5c0,0.1,0,0.3,0,0.4
			c0.1,0.8,0.1,1.7,0.2,2.5c0,0.2,0.1,0.3,0.3,0.4c0.4,0.1,0.6-0.1,0.7-0.5c0-0.9,0.1-1.8,0.2-2.8c0-0.2,0.1-0.4,0.3-0.5
			s0.2-0.2,0.2-0.4C606.3,244,606.4,243.3,606.4,242.7z M611.5,242c-0.4,0-0.6,0.1-0.5,0.5c0,0.7,0.1,1.4,0.2,2.1
			c0,0.2,0.1,0.3,0.2,0.4c0.2,0.1,0.3,0.3,0.3,0.5c0,0.4,0,0.8,0.1,1.2c0,0.6,0.1,1.1,0.1,1.7c0,0.3,0.2,0.4,0.5,0.4
			s0.5-0.1,0.5-0.4c0-0.3,0-0.5,0.1-0.8c0-0.7,0.1-1.4,0.1-2.1c0-0.2,0.1-0.4,0.3-0.5c0.1-0.1,0.2-0.2,0.2-0.3
			c0.1-0.8,0.1-1.5,0.2-2.3c0-0.2-0.1-0.3-0.2-0.4c-0.3-0.1-0.5-0.1-0.7,0.1c-0.4,0.4-0.5,0.4-1,0C611.7,242,611.6,242,611.5,242z
			 M609.3,241.1c0-0.4-0.3-0.7-0.6-0.7c-0.4,0-0.7,0.3-0.7,0.7s0.3,0.6,0.7,0.6C609.1,241.7,609.3,241.5,609.3,241.1z M605.1,241.8
			c0.4,0,0.7-0.3,0.7-0.7c0-0.3-0.3-0.6-0.6-0.6c-0.4,0-0.7,0.3-0.7,0.7C604.4,241.5,604.7,241.8,605.1,241.8z M612.2,241.8
			c0.4,0,0.7-0.3,0.7-0.6s-0.3-0.7-0.6-0.7c-0.4,0-0.7,0.3-0.7,0.6C611.6,241.5,611.9,241.7,612.2,241.8z"/>
	</g>
	<g>
		<path class="st7" d="M726.7,49.4c2.8,0,5.7,0,8.5,0c1.5,0,2.7,1.1,2.7,2.7c0,5.7,0,11.3,0,17c0,1.6-1.1,2.7-2.7,2.7
			c-5.6,0-11.3,0-16.9,0c-1.4,0-2.4-0.9-2.7-2.2c0-0.1,0-0.3,0-0.4c0-5.7,0-11.4,0-17.2c0-1.4,1.2-2.6,2.6-2.6
			C721,49.4,723.9,49.4,726.7,49.4z M733,55.8c-0.5,0-0.9,0-1.4,0c-0.4,0-0.5,0.1-0.5,0.5c0,0.3,0,0.7,0,1c0,0.5-0.1,0.6-0.6,0.6
			c-0.7,0-1.5,0-2.2,0c-0.4,0-0.5,0.2-0.5,0.5s0,0.6,0,1s-0.1,0.5-0.5,0.5c-0.7,0-1.5,0-2.2,0c-0.4,0-0.6,0.2-0.6,0.6
			c0,0.4,0,0.7,0,1.1c0,0.3-0.1,0.4-0.4,0.4c-0.8,0-1.6,0-2.3,0c-0.4,0-0.7,0.2-0.7,0.7c0,0.4,0,0.7,0,1.1c0,0.3-0.1,0.4-0.4,0.4
			c-0.6,0-1.1,0-1.7,0c-0.3,0-0.5,0.2-0.5,0.6s0.1,0.6,0.5,0.6c1,0,1.9,0,2.9,0c0.3,0,0.5-0.2,0.5-0.5c0-0.4,0-0.7,0-1.1
			c0-0.4,0.1-0.5,0.5-0.5c0.8,0,1.6,0,2.3,0c0.4,0,0.6-0.2,0.6-0.6c0-0.3,0-0.7,0-1c0-0.4,0.1-0.5,0.5-0.5c0.7,0,1.5,0,2.2,0
			c0.4,0,0.5-0.2,0.5-0.6c0-0.3,0-0.7,0-1c0-0.5,0.1-0.6,0.6-0.6c0.7,0,1.5,0,2.2,0c0.4,0,0.5-0.2,0.5-0.5s0-0.7,0-1
			c0-0.4,0.1-0.4,0.4-0.4c0.5,0,1.1,0,1.6,0c0.4,0,0.6-0.2,0.6-0.6c0-0.4-0.2-0.6-0.6-0.6C733.9,55.8,733.5,55.8,733,55.8z"/>
	</g>
	<g>
		<path class="st7" d="M425.4,229.8c2.8,0,5.7,0,8.5,0c1.5,0,2.7,1.1,2.7,2.7c0,5.7,0,11.3,0,17c0,1.5-1.2,2.7-2.7,2.7
			c-5.7,0-11.3,0-17,0c-1.5,0-2.7-1.2-2.7-2.7c0-5.7,0-11.3,0-17c0-1.4,1.3-2.7,2.7-2.7C419.8,229.8,422.6,229.8,425.4,229.8z
			 M425.4,237.8c-1.8,0-3.5,0-5.3,0c-0.7,0-1.4,0.5-1.4,1.4c0,3,0,6,0,9c0,0.8,0.6,1.4,1.4,1.4c3.5,0,7.1,0,10.6,0
			c0.9,0,1.4-0.5,1.4-1.4c0-3,0-6,0-9c0-0.9-0.5-1.4-1.4-1.4C429,237.8,427.2,237.8,425.4,237.8z M422.6,234.2c0,0.5,0,1,0,1.5
			c0,0.1,0,0.1,0,0.2c-0.1,0-0.1,0-0.2-0.1c-0.3-0.3-0.6-0.6-0.9-0.9c-0.2-0.2-0.4-0.2-0.5-0.1c-0.2,0.1-0.1,0.3,0.1,0.5
			c0.5,0.5,1.1,1.1,1.7,1.6c0.2,0.2,0.3,0.2,0.5,0c0.6-0.6,1.1-1.1,1.7-1.7c0.2-0.2,0.2-0.4,0-0.5s-0.3-0.1-0.5,0.1
			c-0.3,0.3-0.6,0.6-0.9,0.9c-0.1,0-0.1,0.1-0.2,0.1s0-0.1,0-0.2c0-0.9,0-1.9,0-2.8c0-0.1,0-0.3-0.1-0.4c-0.1-0.1-0.1-0.2-0.3-0.2
			c-0.1,0-0.2,0.1-0.3,0.2c0,0.1,0,0.2,0,0.3C422.6,233.3,422.6,233.8,422.6,234.2z M428.2,235.2c0-0.5,0-1,0-1.5c0-0.1,0-0.1,0-0.2
			c0.1,0,0.1,0.1,0.2,0.1c0.3,0.3,0.7,0.6,1,1c0.2,0.2,0.4,0.2,0.5,0.1c0.1-0.1,0.1-0.3-0.1-0.5c-0.5-0.5-1.1-1.1-1.6-1.6
			c-0.2-0.2-0.4-0.2-0.6,0c-0.3,0.3-0.5,0.5-0.8,0.8s-0.6,0.6-0.8,0.9c-0.1,0.1-0.2,0.3,0,0.5c0.1,0.2,0.3,0.1,0.5,0
			c0.1,0,0.1-0.1,0.1-0.1c0.3-0.3,0.5-0.5,0.8-0.8c0.1-0.1,0.1-0.1,0.2-0.1s0,0.1,0,0.2c0,0.1,0,0.1,0,0.2c0,0.9,0,1.8,0,2.8
			c0,0.3,0.1,0.4,0.3,0.4c0.2,0,0.3-0.1,0.3-0.4C428.2,236.2,428.2,235.7,428.2,235.2z"/>
		<path class="st7" d="M425.5,238.5c1.7,0,3.5,0,5.2,0c0.6,0,0.8,0.2,0.8,0.8c0,3,0,6,0,8.9c0,0.6-0.2,0.7-0.8,0.8
			c-3.5,0-7,0-10.5,0c-0.6,0-0.8-0.2-0.8-0.8c0-3,0-5.9,0-8.9c0-0.6,0.2-0.8,0.8-0.8C421.9,238.5,423.7,238.5,425.5,238.5z
			 M425.4,247.9c0.4,0,0.5-0.1,0.5-0.5c0-0.6,0.1-1.1,0.1-1.7c0-0.2,0.1-0.3,0.3-0.3c0.3-0.1,0.4-0.1,0.3-0.5c0-0.1,0-0.2,0-0.2
			c0-0.2,0-0.4,0.2-0.5c0.1-0.1,0.2-0.2,0.2-0.3c-0.2-0.8-0.3-1.6-0.5-2.4c-0.1-0.2-0.2-0.3-0.4-0.1c-0.4,0.4-0.8,0.4-1.2,0
			c-0.2-0.1-0.3-0.1-0.4,0.2c-0.2,0.8-0.3,1.6-0.5,2.4c0,0.2,0,0.3,0.2,0.4c0.1,0.1,0.2,0.2,0.2,0.4s0,0.3-0.1,0.5
			c0,0.2,0,0.3,0.2,0.3c0.4,0,0.4,0.2,0.4,0.6c0,0.5,0.1,1.1,0.1,1.6C424.9,247.8,425.1,247.9,425.4,247.9z M423.2,241.7
			c0-0.5-0.1-0.6-0.4-0.7c-0.3,0-0.4,0.1-0.6,0.3c-0.3,0.3-0.5,0.3-0.8,0c-0.1-0.1-0.1-0.1-0.2-0.2c-0.2-0.2-0.4-0.1-0.6,0
			c-0.1,0.1-0.2,0.2-0.2,0.4c0.1,0.8,0.1,1.5,0.2,2.3c0,0.1,0.1,0.3,0.2,0.3c0.2,0.1,0.3,0.3,0.3,0.5c0,0.1,0,0.3,0,0.4
			c0.1,0.8,0.1,1.7,0.2,2.5c0,0.2,0.1,0.3,0.3,0.4c0.4,0.1,0.6-0.1,0.7-0.5c0-0.9,0.1-1.8,0.2-2.8c0-0.2,0.1-0.4,0.3-0.5
			c0.2-0.1,0.2-0.2,0.2-0.4C423,243,423.1,242.4,423.2,241.7z M428.2,241c-0.4,0-0.6,0.1-0.5,0.5c0,0.7,0.1,1.4,0.2,2.1
			c0,0.2,0.1,0.3,0.2,0.4c0.2,0.1,0.3,0.3,0.3,0.5c0,0.4,0,0.8,0.1,1.2c0,0.6,0.1,1.1,0.1,1.7c0,0.3,0.2,0.4,0.5,0.4
			s0.5-0.1,0.5-0.4c0-0.3,0-0.5,0.1-0.8c0-0.7,0.1-1.4,0.1-2.1c0-0.2,0.1-0.4,0.3-0.5c0.1-0.1,0.2-0.2,0.2-0.3
			c0.1-0.8,0.1-1.5,0.2-2.3c0-0.2-0.1-0.3-0.2-0.4c-0.3-0.1-0.5-0.1-0.7,0.1c-0.4,0.4-0.5,0.4-1,0C428.4,241.1,428.3,241,428.2,241z
			 M426.1,240.2c0-0.4-0.3-0.7-0.6-0.7c-0.4,0-0.7,0.3-0.7,0.7s0.3,0.6,0.7,0.6C425.8,240.8,426.1,240.5,426.1,240.2z M421.8,240.8
			c0.4,0,0.7-0.3,0.7-0.7c0-0.3-0.3-0.6-0.6-0.6c-0.4,0-0.7,0.3-0.7,0.7C421.2,240.6,421.4,240.8,421.8,240.8z M429,240.8
			c0.4,0,0.7-0.3,0.7-0.6s-0.3-0.7-0.6-0.7c-0.4,0-0.7,0.3-0.7,0.6C428.3,240.5,428.6,240.8,429,240.8z"/>
	</g>
	<g>
		<path class="st7" d="M896.2,219.8c2.8,0,5.7,0,8.5,0c1.5,0,2.7,1.1,2.7,2.7c0,5.7,0,11.3,0,17c0,1.6-1.1,2.7-2.7,2.7
			c-5.6,0-11.3,0-16.9,0c-1.4,0-2.4-0.9-2.7-2.2c0-0.1,0-0.3,0-0.4c0-5.7,0-11.4,0-17.2c0-1.4,1.2-2.6,2.6-2.6
			C890.4,219.8,893.3,219.8,896.2,219.8z M902.4,226.2c-0.5,0-0.9,0-1.4,0c-0.4,0-0.5,0.1-0.5,0.5c0,0.3,0,0.7,0,1
			c0,0.5-0.1,0.6-0.6,0.6c-0.7,0-1.5,0-2.2,0c-0.4,0-0.5,0.2-0.5,0.5s0,0.6,0,1s-0.1,0.5-0.5,0.5c-0.7,0-1.5,0-2.2,0
			c-0.4,0-0.6,0.2-0.6,0.6c0,0.4,0,0.7,0,1.1c0,0.3-0.1,0.4-0.4,0.4c-0.8,0-1.6,0-2.3,0c-0.4,0-0.7,0.2-0.7,0.7c0,0.4,0,0.7,0,1.1
			c0,0.3-0.1,0.4-0.4,0.4c-0.6,0-1.1,0-1.7,0c-0.3,0-0.5,0.2-0.5,0.6c0,0.4,0.1,0.6,0.5,0.6c1,0,1.9,0,2.9,0c0.3,0,0.5-0.2,0.5-0.5
			c0-0.4,0-0.7,0-1.1c0-0.4,0.1-0.5,0.5-0.5c0.8,0,1.6,0,2.3,0c0.4,0,0.6-0.2,0.6-0.6c0-0.3,0-0.7,0-1c0-0.4,0.1-0.5,0.5-0.5
			c0.7,0,1.5,0,2.2,0c0.4,0,0.5-0.2,0.5-0.6c0-0.3,0-0.7,0-1c0-0.5,0.1-0.6,0.6-0.6c0.7,0,1.5,0,2.2,0c0.4,0,0.5-0.2,0.5-0.5
			s0-0.7,0-1c0-0.4,0.1-0.4,0.4-0.4c0.5,0,1.1,0,1.6,0c0.4,0,0.6-0.2,0.6-0.6c0-0.4-0.2-0.6-0.6-0.6
			C903.4,226.2,902.9,226.2,902.4,226.2z"/>
	</g>
	<g>
		<path class="st7" d="M270.7,109.9c2.7,0,5.5,0,8.2,0c1.5,0,2.6,1.1,2.6,2.6c0,5.5,0,11,0,16.5c0,1.5-1.1,2.6-2.6,2.6
			c-5.5,0-11,0-16.5,0c-1.5,0-2.6-1.1-2.6-2.6c0-5.5,0-11,0-16.4c0-1.4,1.2-2.6,2.6-2.6C265.3,110,268,109.9,270.7,109.9z
			 M275.5,128.3L275.5,128.3c0.1,0,0.2,0,0.3,0c0.4,0,0.6-0.2,0.6-0.6c0.1-1,0.1-2,0.2-3c0-0.6,0.1-0.9,0.8-1c0.3,0,0.4-0.3,0.4-0.6
			c0-0.3-0.1-0.6-0.1-0.9c0-0.4,0-0.5,0.3-0.6c0.3-0.2,0.4-0.3,0.3-0.7c-0.3-1.4-0.6-2.9-0.9-4.3c-0.1-0.4-0.4-0.5-0.7-0.3
			c-0.2,0.1-0.5,0.3-0.7,0.5c-0.3,0.2-0.5,0.2-0.8,0c-0.2-0.2-0.5-0.3-0.8-0.5s-0.6-0.1-0.7,0.3c-0.1,0.2-0.1,0.4-0.1,0.6
			c-0.3,1.2-0.5,2.5-0.8,3.7c-0.1,0.4,0,0.6,0.4,0.8c0.2,0.1,0.3,0.3,0.3,0.6c0,0.3-0.1,0.6-0.1,0.8c-0.1,0.5,0.1,0.6,0.5,0.7
			s0.5,0.2,0.6,0.6c0.1,1.1,0.1,2.2,0.2,3.2c0,0.5,0.3,0.7,0.7,0.7C275.3,128.3,275.4,128.3,275.5,128.3z M265.7,128.3
			c0.7,0,0.9-0.2,0.9-0.9c0-0.2,0-0.4,0-0.6c0.1-1.5,0.2-3,0.3-4.5c0-0.4,0.2-0.7,0.5-0.8c0.3-0.1,0.4-0.4,0.4-0.7
			c0-0.5,0.1-0.9,0.1-1.4c0.1-0.9,0.1-1.8,0.2-2.6c0-0.3-0.1-0.6-0.4-0.8c-0.4-0.1-0.7-0.2-1.1,0.1c-0.1,0.2-0.3,0.3-0.5,0.4
			c-0.3,0.3-0.7,0.3-1,0c-0.1-0.1-0.3-0.3-0.4-0.4c-0.4-0.4-0.8-0.3-1.1-0.1c-0.4,0.1-0.4,0.5-0.4,0.8c0,0.1,0,0.3,0,0.4
			c0.1,1.1,0.2,2.3,0.3,3.4c0,0.4,0.1,0.7,0.6,0.9c0.2,0.1,0.4,0.3,0.4,0.6c0.1,0.8,0.1,1.6,0.1,2.4c0.1,0.9,0.1,1.8,0.2,2.7
			c0,0.2,0,0.3,0,0.5C264.9,128.1,265.2,128.3,265.7,128.3z M270.9,120.7c0-1.3,0-2.6,0-3.9c0-1.2,0-2.4,0-3.6
			c0-0.3-0.1-0.4-0.3-0.4c-0.2,0-0.3,0.2-0.3,0.4v0.1c0,4.9,0,9.9,0,14.8c0,0.1,0,0.2,0,0.3c0.1,0.1,0.2,0.2,0.3,0.2
			c0.1,0,0.2-0.1,0.2-0.3c0-0.1,0-0.2,0-0.3C270.9,125.6,270.9,123.2,270.9,120.7z M266.9,114.4c0-0.7-0.5-1.3-1.2-1.3
			s-1.2,0.6-1.2,1.2c0,0.7,0.5,1.2,1.2,1.3C266.4,115.7,266.9,115.1,266.9,114.4z M274.2,114.4c0,0.7,0.5,1.2,1.2,1.2
			s1.2-0.6,1.2-1.2c0-0.7-0.6-1.2-1.2-1.2C274.8,113.2,274.2,113.7,274.2,114.4z"/>
	</g>
	<g>
		<path class="st7" d="M866.4,187.8c2.7,0,5.5,0,8.2,0c1.5,0,2.6,1.1,2.6,2.6c0,5.5,0,11,0,16.5c0,1.5-1.1,2.6-2.6,2.6
			c-5.5,0-11,0-16.5,0c-1.5,0-2.6-1.1-2.6-2.6c0-5.5,0-11,0-16.4c0-1.4,1.2-2.6,2.6-2.6C861,187.9,863.7,187.8,866.4,187.8z
			 M871.2,206.2L871.2,206.2c0.1,0,0.2,0,0.3,0c0.4,0,0.6-0.2,0.6-0.6c0.1-1,0.1-2,0.2-3c0-0.6,0.1-0.9,0.8-1c0.3,0,0.4-0.3,0.4-0.6
			s-0.1-0.6-0.1-0.9c0-0.4,0-0.5,0.3-0.6c0.3-0.2,0.4-0.3,0.3-0.7c-0.3-1.4-0.6-2.9-0.9-4.3c-0.1-0.4-0.4-0.5-0.7-0.3
			c-0.2,0.1-0.5,0.3-0.7,0.5c-0.3,0.2-0.5,0.2-0.8,0c-0.2-0.2-0.5-0.3-0.8-0.5s-0.6-0.1-0.7,0.3c-0.1,0.2-0.1,0.4-0.1,0.6
			c-0.3,1.2-0.5,2.5-0.8,3.7c-0.1,0.4,0,0.6,0.4,0.8c0.2,0.1,0.3,0.3,0.3,0.6s-0.1,0.6-0.1,0.8c-0.1,0.5,0.1,0.6,0.5,0.7
			c0.4,0.1,0.5,0.2,0.6,0.6c0.1,1.1,0.1,2.2,0.2,3.2C870.4,206,870.7,206.2,871.2,206.2C871,206.2,871.1,206.2,871.2,206.2z
			 M861.4,206.2c0.7,0,0.9-0.2,0.9-0.9c0-0.2,0-0.4,0-0.6c0.1-1.5,0.2-3,0.3-4.5c0-0.4,0.2-0.7,0.5-0.8s0.4-0.4,0.4-0.7
			c0-0.5,0.1-0.9,0.1-1.4c0.1-0.9,0.1-1.8,0.2-2.6c0-0.3-0.1-0.6-0.4-0.8c-0.4-0.1-0.7-0.2-1.1,0.1c-0.1,0.2-0.3,0.3-0.5,0.4
			c-0.3,0.3-0.7,0.3-1,0c-0.1-0.1-0.3-0.3-0.4-0.4c-0.4-0.4-0.8-0.3-1.1-0.1c-0.4,0.1-0.4,0.5-0.4,0.8c0,0.1,0,0.3,0,0.4
			c0.1,1.1,0.2,2.3,0.3,3.4c0,0.4,0.1,0.7,0.6,0.9c0.2,0.1,0.4,0.3,0.4,0.6c0.1,0.8,0.1,1.6,0.1,2.4c0.1,0.9,0.1,1.8,0.2,2.7
			c0,0.2,0,0.3,0,0.5C860.6,206,860.9,206.2,861.4,206.2z M866.6,198.6c0-1.3,0-2.6,0-3.9c0-1.2,0-2.4,0-3.6c0-0.3-0.1-0.4-0.3-0.4
			s-0.3,0.2-0.3,0.4v0.1c0,4.9,0,9.9,0,14.8c0,0.1,0,0.2,0,0.3c0.1,0.1,0.2,0.2,0.3,0.2s0.2-0.1,0.2-0.3c0-0.1,0-0.2,0-0.3
			C866.6,203.5,866.6,201.1,866.6,198.6z M862.6,192.3c0-0.7-0.5-1.3-1.2-1.3s-1.2,0.6-1.2,1.2c0,0.7,0.5,1.2,1.2,1.3
			S862.6,193,862.6,192.3z M869.9,192.3c0,0.7,0.5,1.2,1.2,1.2s1.2-0.6,1.2-1.2c0-0.7-0.6-1.2-1.2-1.2S869.9,191.6,869.9,192.3z"/>
	</g>
	<g>
		<path class="st7" d="M694.2,421c2.8,0,5.7,0,8.5,0c1.5,0,2.7,1.1,2.7,2.7c0,5.7,0,11.3,0,17c0,1.6-1.1,2.7-2.7,2.7
			c-5.6,0-11.3,0-16.9,0c-1.4,0-2.4-0.9-2.7-2.2c0-0.1,0-0.3,0-0.4c0-5.7,0-11.4,0-17.2c0-1.4,1.2-2.6,2.6-2.6
			C688.5,421,691.3,421,694.2,421z M700.5,427.4c-0.5,0-0.9,0-1.4,0c-0.4,0-0.5,0.1-0.5,0.5c0,0.3,0,0.7,0,1c0,0.5-0.1,0.6-0.6,0.6
			c-0.7,0-1.5,0-2.2,0c-0.4,0-0.5,0.2-0.5,0.5s0,0.6,0,1s-0.1,0.5-0.5,0.5c-0.7,0-1.5,0-2.2,0c-0.4,0-0.6,0.2-0.6,0.6s0,0.7,0,1.1
			c0,0.3-0.1,0.4-0.4,0.4c-0.8,0-1.6,0-2.3,0c-0.4,0-0.7,0.2-0.7,0.7c0,0.4,0,0.7,0,1.1c0,0.3-0.1,0.4-0.4,0.4c-0.6,0-1.1,0-1.7,0
			c-0.3,0-0.5,0.2-0.5,0.6s0.1,0.6,0.5,0.6c1,0,1.9,0,2.9,0c0.3,0,0.5-0.2,0.5-0.5c0-0.4,0-0.7,0-1.1s0.1-0.5,0.5-0.5
			c0.8,0,1.6,0,2.3,0c0.4,0,0.6-0.2,0.6-0.6c0-0.3,0-0.7,0-1c0-0.4,0.1-0.5,0.5-0.5c0.7,0,1.5,0,2.2,0c0.4,0,0.5-0.2,0.5-0.6
			c0-0.3,0-0.7,0-1c0-0.5,0.1-0.6,0.6-0.6c0.7,0,1.5,0,2.2,0c0.4,0,0.5-0.2,0.5-0.5s0-0.7,0-1c0-0.4,0.1-0.4,0.4-0.4
			c0.5,0,1.1,0,1.6,0c0.4,0,0.6-0.2,0.6-0.6s-0.2-0.6-0.6-0.6C701.4,427.4,701,427.4,700.5,427.4z"/>
	</g>
	<g>
		<path class="st7" d="M336.4,496.5c2.7,0,5.5,0,8.2,0c1.5,0,2.6,1.1,2.6,2.6c0,5.5,0,11,0,16.5c0,1.5-1.1,2.6-2.6,2.6
			c-5.5,0-11,0-16.5,0c-1.5,0-2.6-1.1-2.6-2.6c0-5.5,0-11,0-16.4c0-1.4,1.2-2.6,2.6-2.6C331,496.6,333.7,496.5,336.4,496.5z
			 M341.2,514.9L341.2,514.9c0.1,0,0.2,0,0.3,0c0.4,0,0.6-0.2,0.6-0.6c0.1-1,0.1-2,0.2-3c0-0.6,0.1-0.9,0.8-1c0.3,0,0.4-0.3,0.4-0.6
			c0-0.3-0.1-0.6-0.1-0.9c0-0.4,0-0.5,0.3-0.6c0.3-0.2,0.4-0.3,0.3-0.7c-0.3-1.4-0.6-2.9-0.9-4.3c-0.1-0.4-0.4-0.5-0.7-0.3
			c-0.2,0.1-0.5,0.3-0.7,0.5c-0.3,0.2-0.5,0.2-0.8,0c-0.2-0.2-0.5-0.3-0.8-0.5s-0.6-0.1-0.7,0.3c-0.1,0.2-0.1,0.4-0.1,0.6
			c-0.3,1.2-0.5,2.5-0.8,3.7c-0.1,0.4,0,0.6,0.4,0.8c0.2,0.1,0.3,0.3,0.3,0.6c0,0.3-0.1,0.6-0.1,0.8c-0.1,0.5,0.1,0.6,0.5,0.7
			s0.5,0.2,0.6,0.6c0.1,1.1,0.1,2.2,0.2,3.2c0,0.5,0.3,0.7,0.7,0.7C341.1,514.9,341.1,514.9,341.2,514.9z M331.4,514.9
			c0.7,0,0.9-0.2,0.9-0.9c0-0.2,0-0.4,0-0.6c0.1-1.5,0.2-3,0.3-4.5c0-0.4,0.2-0.7,0.5-0.8c0.3-0.1,0.4-0.4,0.4-0.7
			c0-0.5,0.1-0.9,0.1-1.4c0.1-0.9,0.1-1.8,0.2-2.6c0-0.3-0.1-0.6-0.4-0.8c-0.4-0.1-0.7-0.2-1.1,0.1c-0.1,0.2-0.3,0.3-0.5,0.4
			c-0.3,0.3-0.7,0.3-1,0c-0.1-0.1-0.3-0.3-0.4-0.4c-0.4-0.4-0.8-0.3-1.1-0.1c-0.4,0.1-0.4,0.5-0.4,0.8c0,0.1,0,0.3,0,0.4
			c0.1,1.1,0.2,2.3,0.3,3.4c0,0.4,0.1,0.7,0.6,0.9c0.2,0.1,0.4,0.3,0.4,0.6c0.1,0.8,0.1,1.6,0.1,2.4c0.1,0.9,0.1,1.8,0.2,2.7
			c0,0.2,0,0.3,0,0.5C330.6,514.8,330.9,514.9,331.4,514.9z M336.6,507.4c0-1.3,0-2.6,0-3.9c0-1.2,0-2.4,0-3.6
			c0-0.3-0.1-0.4-0.3-0.4c-0.2,0-0.3,0.2-0.3,0.4v0.1c0,4.9,0,9.9,0,14.8c0,0.1,0,0.2,0,0.3c0.1,0.1,0.2,0.2,0.3,0.2
			c0.1,0,0.2-0.1,0.2-0.3c0-0.1,0-0.2,0-0.3C336.6,512.2,336.6,509.8,336.6,507.4z M332.7,501c0-0.7-0.5-1.3-1.2-1.3
			s-1.2,0.6-1.2,1.2c0,0.7,0.5,1.2,1.2,1.3C332.1,502.3,332.6,501.7,332.7,501z M339.9,501c0,0.7,0.5,1.2,1.2,1.2s1.2-0.6,1.2-1.2
			c0-0.7-0.6-1.2-1.2-1.2S339.9,500.3,339.9,501z"/>
	</g>
	<g>
		<path class="st7" d="M369.7,482.4c2.8,0,5.7,0,8.5,0c1.5,0,2.7,1.1,2.7,2.7c0,5.7,0,11.3,0,17c0,1.6-1.1,2.7-2.7,2.7
			c-5.6,0-11.3,0-16.9,0c-1.4,0-2.4-0.9-2.7-2.2c0-0.1,0-0.3,0-0.4c0-5.7,0-11.4,0-17.2c0-1.4,1.2-2.6,2.6-2.6
			C364,482.4,366.8,482.4,369.7,482.4z M376,488.8c-0.5,0-0.9,0-1.4,0c-0.4,0-0.5,0.1-0.5,0.5c0,0.3,0,0.7,0,1
			c0,0.5-0.1,0.6-0.6,0.6c-0.7,0-1.5,0-2.2,0c-0.4,0-0.5,0.2-0.5,0.5s0,0.6,0,1s-0.1,0.5-0.5,0.5c-0.7,0-1.5,0-2.2,0
			c-0.4,0-0.6,0.2-0.6,0.6s0,0.7,0,1.1c0,0.3-0.1,0.4-0.4,0.4c-0.8,0-1.6,0-2.3,0c-0.4,0-0.7,0.2-0.7,0.7c0,0.4,0,0.7,0,1.1
			c0,0.3-0.1,0.4-0.4,0.4c-0.6,0-1.1,0-1.7,0c-0.3,0-0.5,0.2-0.5,0.6s0.1,0.6,0.5,0.6c1,0,1.9,0,2.9,0c0.3,0,0.5-0.2,0.5-0.5
			c0-0.4,0-0.7,0-1.1s0.1-0.5,0.5-0.5c0.8,0,1.6,0,2.3,0c0.4,0,0.6-0.2,0.6-0.6c0-0.3,0-0.7,0-1c0-0.4,0.1-0.5,0.5-0.5
			c0.7,0,1.5,0,2.2,0c0.4,0,0.5-0.2,0.5-0.6c0-0.3,0-0.7,0-1c0-0.5,0.1-0.6,0.6-0.6c0.7,0,1.5,0,2.2,0c0.4,0,0.5-0.2,0.5-0.5
			s0-0.7,0-1c0-0.4,0.1-0.4,0.4-0.4c0.5,0,1.1,0,1.6,0c0.4,0,0.6-0.2,0.6-0.6s-0.2-0.6-0.6-0.6C376.9,488.8,376.4,488.8,376,488.8z"
			/>
	</g>
	<g>
		<path class="st7" d="M297.3,88.3c2.8,0,5.7,0,8.5,0c1.5,0,2.7,1.1,2.7,2.7c0,5.7,0,11.3,0,17c0,1.6-1.1,2.7-2.7,2.7
			c-5.6,0-11.3,0-16.9,0c-1.4,0-2.4-0.9-2.7-2.2c0-0.1,0-0.3,0-0.4c0-5.7,0-11.4,0-17.2c0-1.4,1.2-2.6,2.6-2.6
			C291.6,88.3,294.5,88.3,297.3,88.3z M303.6,94.7c-0.5,0-0.9,0-1.4,0c-0.4,0-0.5,0.1-0.5,0.5c0,0.3,0,0.7,0,1
			c0,0.5-0.1,0.6-0.6,0.6c-0.7,0-1.5,0-2.2,0c-0.4,0-0.5,0.2-0.5,0.5s0,0.6,0,1s-0.1,0.5-0.5,0.5c-0.7,0-1.5,0-2.2,0
			c-0.4,0-0.6,0.2-0.6,0.6s0,0.7,0,1.1c0,0.3-0.1,0.4-0.4,0.4c-0.8,0-1.6,0-2.3,0c-0.4,0-0.7,0.2-0.7,0.7c0,0.4,0,0.7,0,1.1
			c0,0.3-0.1,0.4-0.4,0.4c-0.6,0-1.1,0-1.7,0c-0.3,0-0.5,0.2-0.5,0.6s0.1,0.6,0.5,0.6c1,0,1.9,0,2.9,0c0.3,0,0.5-0.2,0.5-0.5
			c0-0.4,0-0.7,0-1.1s0.1-0.5,0.5-0.5c0.8,0,1.6,0,2.3,0c0.4,0,0.6-0.2,0.6-0.6c0-0.3,0-0.7,0-1c0-0.4,0.1-0.5,0.5-0.5
			c0.7,0,1.5,0,2.2,0c0.4,0,0.5-0.2,0.5-0.6c0-0.3,0-0.7,0-1c0-0.5,0.1-0.6,0.6-0.6c0.7,0,1.5,0,2.2,0c0.4,0,0.5-0.2,0.5-0.5
			s0-0.7,0-1c0-0.4,0.1-0.4,0.4-0.4c0.5,0,1.1,0,1.6,0c0.4,0,0.6-0.2,0.6-0.6s-0.2-0.6-0.6-0.6C304.5,94.7,304.1,94.7,303.6,94.7z"
			/>
	</g>
</g>
<g id="Wayfinding">
	<g>
		<g>
			<polygon class="st8" points="306.5,124 309,118.5 311.4,124 			"/>
			<polygon class="st8" points="311.4,126.8 309,132.3 306.5,126.8 			"/>
			<polygon class="st8" points="307.6,127.5 302.1,125.1 307.6,122.7 			"/>
			<polygon class="st8" points="310.4,122.7 315.9,125.1 310.4,127.5 			"/>
		</g>
		<rect x="307.6" y="123.1" class="st8" width="2.8" height="4.4"/>
	</g>
	<g>
		<g>
			<polygon class="st8" points="199.6,230.7 202,225.2 204.5,230.7 			"/>
			<polygon class="st8" points="204.5,233.5 202,239 199.6,233.5 			"/>
			<polygon class="st8" points="200.6,234.2 195.1,231.8 200.6,229.4 			"/>
			<polygon class="st8" points="203.4,229.4 208.9,231.8 203.4,234.2 			"/>
		</g>
		<rect x="200.6" y="229.8" class="st8" width="2.8" height="4.4"/>
	</g>
	<g>
		<g>
			<polygon class="st8" points="81,345.7 83.4,340.2 85.8,345.7 			"/>
			<polygon class="st8" points="85.8,348.5 83.4,354 81,348.5 			"/>
			<polygon class="st8" points="82,349.2 76.5,346.8 82,344.4 			"/>
			<polygon class="st8" points="84.8,344.4 90.3,346.8 84.8,349.2 			"/>
		</g>
		<rect x="82" y="344.8" class="st8" width="2.8" height="4.4"/>
	</g>
	<g>
		<g>
			<polygon class="st8" points="79.6,463 82,457.5 84.4,463 			"/>
			<polygon class="st8" points="84.4,465.8 82,471.3 79.6,465.8 			"/>
			<polygon class="st8" points="80.6,466.6 75.1,464.1 80.6,461.7 			"/>
			<polygon class="st8" points="83.4,461.7 88.9,464.1 83.4,466.6 			"/>
		</g>
		<rect x="80.6" y="462.2" class="st8" width="2.8" height="4.4"/>
	</g>
	<g>
		<g>
			<polygon class="st8" points="266.2,401.1 268.6,395.6 271,401.1 			"/>
			<polygon class="st8" points="271,403.9 268.6,409.4 266.2,403.9 			"/>
			<polygon class="st8" points="267.2,404.6 261.7,402.2 267.2,399.8 			"/>
			<polygon class="st8" points="270,399.8 275.5,402.2 270,404.6 			"/>
		</g>
		<rect x="267.2" y="400.2" class="st8" width="2.8" height="4.4"/>
	</g>
	<g>
		<g>
			<polygon class="st8" points="397.3,359.1 399.7,353.6 402.1,359.1 			"/>
			<polygon class="st8" points="402.1,361.9 399.7,367.4 397.3,361.9 			"/>
			<polygon class="st8" points="398.3,362.6 392.8,360.2 398.3,357.8 			"/>
			<polygon class="st8" points="401.1,357.8 406.6,360.2 401.1,362.6 			"/>
		</g>
		<rect x="398.3" y="358.2" class="st8" width="2.8" height="4.4"/>
	</g>
	<g>
		<g>
			<polygon class="st8" points="380.4,197.5 382.8,191.9 385.3,197.5 			"/>
			<polygon class="st8" points="385.3,200.2 382.8,205.8 380.4,200.2 			"/>
			<polygon class="st8" points="381.4,201 375.9,198.6 381.4,196.1 			"/>
			<polygon class="st8" points="384.2,196.1 389.7,198.6 384.2,201 			"/>
		</g>
		<rect x="381.4" y="196.6" class="st8" width="2.8" height="4.4"/>
	</g>
	<g>
		<g>
			<polygon class="st8" points="209,340.6 211.5,335.1 213.9,340.6 			"/>
			<polygon class="st8" points="213.9,343.4 211.5,348.9 209,343.4 			"/>
			<polygon class="st8" points="210.1,344.1 204.6,341.7 210.1,339.3 			"/>
			<polygon class="st8" points="212.9,339.3 218.4,341.7 212.9,344.1 			"/>
		</g>
		<rect x="210.1" y="339.8" class="st8" width="2.8" height="4.4"/>
	</g>
	<g>
		<g>
			<polygon class="st8" points="390.9,68.7 393.3,63.2 395.7,68.7 			"/>
			<polygon class="st8" points="395.7,71.5 393.3,77 390.9,71.5 			"/>
			<polygon class="st8" points="391.9,72.2 386.4,69.8 391.9,67.4 			"/>
			<polygon class="st8" points="394.7,67.4 400.2,69.8 394.7,72.2 			"/>
		</g>
		<rect x="391.9" y="67.8" class="st8" width="2.8" height="4.4"/>
	</g>
	<g>
		<g>
			<polygon class="st8" points="621.7,71.3 624.2,65.8 626.6,71.3 			"/>
			<polygon class="st8" points="626.6,74.1 624.2,79.6 621.7,74.1 			"/>
			<polygon class="st8" points="622.8,74.9 617.2,72.4 622.8,70 			"/>
			<polygon class="st8" points="625.5,70 631.1,72.4 625.5,74.9 			"/>
		</g>
		<rect x="622.8" y="70.5" class="st8" width="2.8" height="4.4"/>
	</g>
	<g>
		<g>
			<polygon class="st8" points="643.4,264.3 645.8,258.8 648.3,264.3 			"/>
			<polygon class="st8" points="648.3,267.1 645.8,272.6 643.4,267.1 			"/>
			<polygon class="st8" points="644.4,267.8 638.9,265.4 644.4,262.9 			"/>
			<polygon class="st8" points="647.2,262.9 652.7,265.4 647.2,267.8 			"/>
		</g>
		<rect x="644.4" y="263.4" class="st8" width="2.8" height="4.4"/>
	</g>
	<g>
		<g>
			<polygon class="st8" points="696.6,148.7 699,143.1 701.5,148.7 			"/>
			<polygon class="st8" points="701.5,151.5 699,157 696.6,151.5 			"/>
			<polygon class="st8" points="697.6,152.2 692.1,149.8 697.6,147.3 			"/>
			<polygon class="st8" points="700.4,147.3 705.9,149.8 700.4,152.2 			"/>
		</g>
		<rect x="697.6" y="147.8" class="st8" width="2.8" height="4.4"/>
	</g>
	<g>
		<g>
			<polygon class="st8" points="825.2,275.3 827.7,269.8 830.1,275.3 			"/>
			<polygon class="st8" points="830.1,278.1 827.7,283.6 825.2,278.1 			"/>
			<polygon class="st8" points="826.3,278.8 820.8,276.4 826.3,274 			"/>
			<polygon class="st8" points="829.1,274 834.6,276.4 829.1,278.8 			"/>
		</g>
		<rect x="826.3" y="274.4" class="st8" width="2.8" height="4.4"/>
	</g>
	<g>
		<g>
			<polygon class="st8" points="523,69 525.5,63.5 527.9,69 			"/>
			<polygon class="st8" points="527.9,71.8 525.5,77.3 523,71.8 			"/>
			<polygon class="st8" points="524.1,72.5 518.5,70.1 524.1,67.7 			"/>
			<polygon class="st8" points="526.8,67.7 532.4,70.1 526.8,72.5 			"/>
		</g>
		<rect x="524.1" y="68.1" class="st8" width="2.8" height="4.4"/>
	</g>
	<g>
		<g>
			<polygon class="st8" points="742.1,192.9 744.5,187.4 746.9,192.9 			"/>
			<polygon class="st8" points="746.9,195.7 744.5,201.2 742.1,195.7 			"/>
			<polygon class="st8" points="743.1,196.4 737.6,194 743.1,191.5 			"/>
			<polygon class="st8" points="745.9,191.5 751.4,194 745.9,196.4 			"/>
		</g>
		<rect x="743.1" y="192" class="st8" width="2.8" height="4.4"/>
	</g>
	<g>
		<rect x="372.1" y="231.6" class="st9" width="10.3" height="10.3"/>
		<polygon class="st9" points="394.2,241.9 383.9,241.9 383.9,231.6 		"/>
		<polygon class="st9" points="387.6,214.5 372,230.1 387.7,230.2 		"/>
		<polygon class="st9" points="399.3,230 389,230 389,219.7 		"/>
		<polygon class="st9" points="386.4,231.6 395.7,231.6 405.6,241.5 395.7,241.5 		"/>
	</g>
	<g>
		<g id="JrMjBg.tif_6_">
			<g>
				<g>
					<path class="st9" d="M447.5,70.7c0-0.3,0-0.6,0-0.9c0.2-0.4,0.5-0.6,1-0.7c0.3-0.1,0.6-0.2,0.9-0.3c0.9-0.3,1.5-0.8,1.5-1.8
						c0-0.3,0.2-0.5,0.5-0.5c0.6,0,1.2,0,1.9,0c0.5,0,0.6,0.2,0.6,0.6c0,0.7,0.4,1.2,1.1,1.5c0.4,0.2,0.8,0.4,1.2,0.5
						c1,0.3,1.2,0.8,1,1.7c-0.5,1.8-1,3.6-1.6,5.4c-0.4,1.1-0.3,2.2,0.2,3.2c0.6,1.3,1,2.7,0.9,4.1c-0.1,1.2-0.3,2.4-0.5,3.7
						c-0.1,0.4,0,0.8-0.4,1.1c-2.3,0-4.6,0-7,0c-0.2-0.2-0.2-0.3-0.3-0.6c-0.3-1.5-0.4-2.9-0.6-4.4c-0.1-1.5,0.4-2.9,1-4.3
						c0.3-0.7,0.5-1.4,0.3-2.2C448.7,74.9,448.2,72.7,447.5,70.7z"/>
				</g>
			</g>
		</g>
		<g id="JrMjBg.tif_2_">
			<g>
				<g>
					<path class="st9" d="M455.1,68c0-0.3,0-0.6,0-0.9c0.2-0.4,0.5-0.6,1-0.7c0.3-0.1,0.6-0.2,0.9-0.3c0.9-0.3,1.5-0.8,1.5-1.8
						c0-0.3,0.2-0.5,0.5-0.5c0.6,0,1.2,0,1.9,0c0.5,0,0.6,0.2,0.6,0.6c0,0.7,0.4,1.2,1.1,1.5c0.4,0.2,0.8,0.4,1.2,0.5
						c1,0.3,1.2,0.8,1,1.7c-0.5,1.8-1,3.6-1.6,5.4c-0.4,1.1-0.3,2.2,0.2,3.2c0.6,1.3,1,2.7,0.9,4.1c-0.1,1.2-0.3,2.4-0.5,3.7
						c-0.1,0.4,0,0.8-0.4,1.1c-2.3,0-4.6,0-7,0c-0.2-0.2-0.2-0.3-0.3-0.6c-0.3-1.5-0.4-2.9-0.6-4.4c-0.1-1.5,0.4-2.9,1-4.3
						c0.3-0.7,0.5-1.4,0.3-2.2C456.3,72.2,455.8,70.1,455.1,68z"/>
				</g>
			</g>
		</g>
		<g id="JrMjBg.tif_1_">
			<g>
				<g>
					<path class="st9" d="M464.5,74.2c0-0.3,0-0.6,0-0.9c0.2-0.4,0.5-0.6,1-0.7c0.3-0.1,0.6-0.2,0.9-0.3c0.9-0.3,1.5-0.8,1.5-1.8
						c0-0.3,0.2-0.5,0.5-0.5c0.6,0,1.2,0,1.9,0c0.5,0,0.6,0.2,0.6,0.6c0,0.7,0.4,1.2,1.1,1.5c0.4,0.2,0.8,0.4,1.2,0.5
						c1,0.3,1.2,0.8,1,1.7c-0.5,1.8-1,3.6-1.6,5.4c-0.4,1.1-0.3,2.2,0.2,3.2c0.6,1.3,1,2.7,0.9,4.1c-0.1,1.2-0.3,2.4-0.5,3.7
						c-0.1,0.4,0,0.8-0.4,1.1c-2.3,0-4.6,0-7,0c-0.2-0.2-0.2-0.3-0.3-0.6c-0.3-1.5-0.4-2.9-0.6-4.4c-0.1-1.5,0.4-2.9,1-4.3
						c0.3-0.7,0.5-1.4,0.3-2.2C465.7,78.4,465.2,76.3,464.5,74.2z"/>
				</g>
			</g>
		</g>
		<line class="st10" x1="452.4" y1="97.5" x2="452.4" y2="86.4"/>
		<line class="st10" x1="460" y1="94.6" x2="460" y2="83.5"/>
		<line class="st10" x1="469.4" y1="97.5" x2="469.4" y2="86.4"/>
	</g>
	<g>
		<path class="st9" d="M250.2,425v17.2h32V425H250.2z M278,439.6h-24.9v-12H278V439.6z"/>
		<line class="st11" x1="274.3" y1="441.3" x2="274.3" y2="427.4"/>
		<line class="st11" x1="281.4" y1="431.4" x2="274.5" y2="431.4"/>
		<line class="st11" x1="280.7" y1="436.5" x2="273.8" y2="436.5"/>
	</g>
	<g>
		<rect x="372.1" y="231.6" class="st9" width="10.3" height="10.3"/>
		<polygon class="st9" points="394.2,241.9 383.9,241.9 383.9,231.6 		"/>
		<polygon class="st9" points="387.6,214.5 372,230.1 387.7,230.2 		"/>
		<polygon class="st9" points="399.3,230 389,230 389,219.7 		"/>
		<polygon class="st9" points="386.4,231.6 395.7,231.6 405.6,241.5 395.7,241.5 		"/>
	</g>
	<g>
		<g id="JrMjBg.tif_9_">
			<g>
				<g>
					<path class="st9" d="M447.5,70.7c0-0.3,0-0.6,0-0.9c0.2-0.4,0.5-0.6,1-0.7c0.3-0.1,0.6-0.2,0.9-0.3c0.9-0.3,1.5-0.8,1.5-1.8
						c0-0.3,0.2-0.5,0.5-0.5c0.6,0,1.2,0,1.9,0c0.5,0,0.6,0.2,0.6,0.6c0,0.7,0.4,1.2,1.1,1.5c0.4,0.2,0.8,0.4,1.2,0.5
						c1,0.3,1.2,0.8,1,1.7c-0.5,1.8-1,3.6-1.6,5.4c-0.4,1.1-0.3,2.2,0.2,3.2c0.6,1.3,1,2.7,0.9,4.1c-0.1,1.2-0.3,2.4-0.5,3.7
						c-0.1,0.4,0,0.8-0.4,1.1c-2.3,0-4.6,0-7,0c-0.2-0.2-0.2-0.3-0.3-0.6c-0.3-1.5-0.4-2.9-0.6-4.4c-0.1-1.5,0.4-2.9,1-4.3
						c0.3-0.7,0.5-1.4,0.3-2.2C448.7,74.9,448.2,72.7,447.5,70.7z"/>
				</g>
			</g>
		</g>
		<g id="JrMjBg.tif_8_">
			<g>
				<g>
					<path class="st9" d="M455.1,68c0-0.3,0-0.6,0-0.9c0.2-0.4,0.5-0.6,1-0.7c0.3-0.1,0.6-0.2,0.9-0.3c0.9-0.3,1.5-0.8,1.5-1.8
						c0-0.3,0.2-0.5,0.5-0.5c0.6,0,1.2,0,1.9,0c0.5,0,0.6,0.2,0.6,0.6c0,0.7,0.4,1.2,1.1,1.5c0.4,0.2,0.8,0.4,1.2,0.5
						c1,0.3,1.2,0.8,1,1.7c-0.5,1.8-1,3.6-1.6,5.4c-0.4,1.1-0.3,2.2,0.2,3.2c0.6,1.3,1,2.7,0.9,4.1c-0.1,1.2-0.3,2.4-0.5,3.7
						c-0.1,0.4,0,0.8-0.4,1.1c-2.3,0-4.6,0-7,0c-0.2-0.2-0.2-0.3-0.3-0.6c-0.3-1.5-0.4-2.9-0.6-4.4c-0.1-1.5,0.4-2.9,1-4.3
						c0.3-0.7,0.5-1.4,0.3-2.2C456.3,72.2,455.8,70.1,455.1,68z"/>
				</g>
			</g>
		</g>
		<g id="JrMjBg.tif_7_">
			<g>
				<g>
					<path class="st9" d="M464.5,74.2c0-0.3,0-0.6,0-0.9c0.2-0.4,0.5-0.6,1-0.7c0.3-0.1,0.6-0.2,0.9-0.3c0.9-0.3,1.5-0.8,1.5-1.8
						c0-0.3,0.2-0.5,0.5-0.5c0.6,0,1.2,0,1.9,0c0.5,0,0.6,0.2,0.6,0.6c0,0.7,0.4,1.2,1.1,1.5c0.4,0.2,0.8,0.4,1.2,0.5
						c1,0.3,1.2,0.8,1,1.7c-0.5,1.8-1,3.6-1.6,5.4c-0.4,1.1-0.3,2.2,0.2,3.2c0.6,1.3,1,2.7,0.9,4.1c-0.1,1.2-0.3,2.4-0.5,3.7
						c-0.1,0.4,0,0.8-0.4,1.1c-2.3,0-4.6,0-7,0c-0.2-0.2-0.2-0.3-0.3-0.6c-0.3-1.5-0.4-2.9-0.6-4.4c-0.1-1.5,0.4-2.9,1-4.3
						c0.3-0.7,0.5-1.4,0.3-2.2C465.7,78.4,465.2,76.3,464.5,74.2z"/>
				</g>
			</g>
		</g>
		<line class="st10" x1="452.4" y1="97.5" x2="452.4" y2="86.4"/>
		<line class="st10" x1="460" y1="94.6" x2="460" y2="83.5"/>
		<line class="st10" x1="469.4" y1="97.5" x2="469.4" y2="86.4"/>
	</g>
	<g>
		<path class="st9" d="M250.2,425v17.2h32V425H250.2z M278,439.6h-24.9v-12H278V439.6z"/>
		<line class="st11" x1="274.3" y1="441.3" x2="274.3" y2="427.4"/>
		<line class="st11" x1="281.4" y1="431.4" x2="274.5" y2="431.4"/>
		<line class="st11" x1="280.7" y1="436.5" x2="273.8" y2="436.5"/>
	</g>
</g>
<g id="sushi">
	
		<rect x="189.7" y="305.1" transform="matrix(0.7071 -0.7071 0.7071 0.7071 -165.1353 235.4764)" class="st12" width="23.9" height="23.9"/>
	<g>
		<path class="st13" d="M202.7,310.8c1,0,1.8,0.1,2.6,0.2c0.1,0,0.2,0.1,0.2,0.2c-0.1,0.9-0.3,1.8-0.4,2.8c0,0.3,0.1,0.5,0.4,0.6
			c0.3,0.1,0.6-0.1,0.6-0.3c0.1-0.3,0.1-0.7,0.2-1c0.1-0.6,0.2-1.2,0.2-1.7c0-0.1,0-0.2,0.2-0.1c1.3,0.5,2.3,1.4,2.8,2.7
			c0.2,0.6,0.3,1.3,0,1.9c0,0.1,0,0.2,0,0.3c0.1,0.4,0.2,0.8,0.2,1.2c0.1,1.2-0.3,2.2-1.2,3c-0.7,0.6-1.4,1-2.2,1.4
			c-1.9,1-3.9,1.6-6,2.1c-0.6,0.1-1.3,0.3-1.9,0.3c-0.8,0.1-1.5,0-2.2-0.4c-0.6-0.3-1-0.8-1.1-1.4c-0.1-0.2-0.2-0.3-0.3-0.4
			c-1.3-0.6-2.2-1.6-2.7-3c-0.3-1-0.3-2,0.1-2.9c0.3-0.6,0.8-1.1,1.2-1.6c0.1-0.1,0.1,0,0.1,0.1c0.1,0.4,0.2,0.9,0.3,1.3
			c0,0.4,0.1,0.7,0.1,1.1s0.3,0.6,0.6,0.5c0.3,0,0.5-0.3,0.5-0.6c-0.1-1-0.2-2.1-0.5-3.1c0-0.2,0-0.2,0.1-0.3c0.6-0.5,1.3-0.9,2-1.2
			c0.1-0.1,0.2-0.1,0.3,0.1c0.3,0.7,0.5,1.4,0.8,2.1c0.1,0.2,0.1,0.4,0.2,0.6c0.1,0.3,0.4,0.4,0.7,0.3c0.2-0.1,0.4-0.4,0.3-0.7
			c-0.3-0.9-0.5-1.9-1-2.7c-0.1-0.2,0-0.2,0.1-0.3c0.8-0.3,1.5-0.5,2.3-0.7c0.1,0,0.2,0,0.2,0.1c0.2,0.9,0.4,1.8,0.5,2.7
			c0,0.1,0,0.3,0,0.4c0.1,0.3,0.3,0.5,0.6,0.4c0.3,0,0.5-0.2,0.5-0.5c0-0.5-0.1-1.1-0.2-1.6c-0.1-0.5-0.2-1.1-0.3-1.6
			c0-0.2,0-0.2,0.2-0.2C202,310.9,202.4,310.8,202.7,310.8z M208.4,318c0-0.2,0-0.3,0-0.5c0-0.1-0.1-0.2-0.2-0.1
			c-0.2,0.1-0.4,0.2-0.6,0.3c-1.1,0.4-2.2,0.6-3.4,0.6c-0.9,0.1-1.8,0.1-2.7,0.3c-1.8,0.4-3.4,1.1-4.5,2.8c-0.2,0.3-0.4,0.6-0.7,0.8
			c-0.3,0.2-0.3,0.3,0,0.6c0.1,0.1,0.1,0.1,0.2,0.2c0.5,0.3,1,0.4,1.5,0.4c0.6,0,1.2-0.1,1.8-0.3c2.1-0.4,4.1-1,6-2.1
			c0.6-0.3,1.2-0.6,1.7-1C208.1,319.4,208.4,318.8,208.4,318z"/>
		<path class="st13" d="M200,320.9c0,0.2-0.1,0.3-0.2,0.4c-0.2,0.2-0.4,0.5-0.7,0.7c-0.2,0.2-0.5,0.3-0.8,0
			c-0.2-0.2-0.3-0.5-0.1-0.8s0.5-0.6,0.8-0.9c0.2-0.2,0.4-0.2,0.6-0.1C199.9,320.4,200,320.6,200,320.9z"/>
		<path class="st13" d="M202.1,321.3c-0.2,0-0.4-0.1-0.5-0.3c-0.1-0.2-0.1-0.4,0-0.6c0.2-0.3,0.5-0.6,0.8-0.8c0.2-0.2,0.6-0.2,0.8,0
			s0.2,0.5,0,0.8s-0.5,0.5-0.7,0.8C202.4,321.3,202.3,321.3,202.1,321.3z"/>
	</g>
</g>
<g id="mashed_potato_bar">
	
		<rect x="223.6" y="453.4" transform="matrix(0.7071 -0.7071 0.7071 0.7071 -260.0726 302.8896)" class="st12" width="23.9" height="23.9"/>
	<g>
		<path class="st13" d="M236.1,464.3c2.9,0,5.9,0,8.8,0c0.5,0,0.5,0,0.5,0.5c-0.4,3.4-2.2,5.8-5.2,7.4c-0.2,0.1-0.4,0.1-0.6,0.1
			c-2.3,0-4.6,0-7,0c-0.2,0-0.4,0-0.5-0.1c-2.9-1.5-4.6-3.8-5.2-7c-0.2-0.9-0.1-0.9,0.8-0.9C230.5,464.3,233.3,464.3,236.1,464.3z"
			/>
		<path class="st13" d="M236.2,463.5c-2.5,0-5,0-7.5,0c-0.5,0-0.6-0.1-0.4-0.6c0.5-1.2,1.5-1.8,2.7-1.9c0.3,0,0.4-0.1,0.5-0.4
			c0.5-1.3,1.4-2,2.8-2.1c1.4-0.1,2.4,0.6,3,1.8c0.1,0.2,0.2,0.3,0.4,0.4c0.7,0.1,1.2,0.4,1.7,0.9c0.2,0.2,0.3,0.2,0.6,0.1
			c1.5-0.7,3.2-0.2,4,1.3c0.3,0.5,0.2,0.6-0.3,0.6C241.2,463.5,238.7,463.5,236.2,463.5z"/>
	</g>
</g>
<g id="mexican">
	
		<rect x="370.1" y="286.7" transform="matrix(0.7071 -0.7071 0.7071 0.7071 -99.292 357.6541)" class="st12" width="23.9" height="23.9"/>
	<g>
		<path class="st13" d="M382.7,303c-3,0-6,0-9.1,0c-1.3,0-2.4-0.8-2.9-2c-0.2-0.6-0.2-1.2-0.1-1.8c0.1-1,0.5-2,1.2-2.7
			c1-1.1,2.3-1.8,3.8-1.9c0.1,0,0.2-0.1,0.3-0.1c0.8-0.8,1.8-1.3,2.9-1.2c0.4,0,0.6-0.1,0.8-0.4c0.8-1.3,2.3-1.9,3.8-1.7
			c0.8,0.1,1.5,0.5,2.1,1.2c0.1,0.1,0.2,0.1,0.4,0.1c1.5-0.3,2.8,0.3,3.8,1.4c0.4,0.5,0.7,1,0.7,1.6c0,0.1,0.1,0.2,0.1,0.2
			c0.8,0.4,1.2,1.1,1.2,2c0,0.5-0.2,0.9-0.5,1.2c-0.1,0.1-0.1,0.2,0,0.3c0.5,0.9,0.8,1.9,0.9,2.9c0,0.3,0.1,0.5,0.1,0.8
			c0,0.1-0.1,0.2-0.2,0.2s-0.1,0-0.2,0C388.8,303,385.8,303,382.7,303z M378.7,294.1c-0.1,0-0.2,0-0.3,0c-0.1,0-0.2,0-0.3,0.1
			c-1.2,0.3-1.9,1.1-2.3,2.3v0.1h0.1c0.7-0.4,1.4-0.4,2.1,0c0.1,0.1,0.2,0,0.3,0c0.7-0.6,1.4-1,2.2-1.3c0.2-0.1,0.2-0.2,0.2-0.3
			c0.1-1.1,1-2,2.1-2c0.9,0,1.8,0.7,2.1,1.6c0,0.2,0.1,0.2,0.3,0.3c0.2,0,0.4,0.1,0.5,0.1c0.8,0.2,1.6,0.5,2.4,1
			c0.1,0,0.1,0.1,0.3,0c0.3-0.2,0.7-0.4,1-0.4c0.1,0,0.1-0.1,0.1-0.2s-0.1-0.2-0.1-0.3c-0.5-1.1-2.1-2.1-3.6-1.6
			c-0.3,0.1-0.5,0.1-0.7-0.2c0-0.1-0.1-0.1-0.1-0.2c-0.7-0.8-1.6-1.2-2.7-1s-1.9,0.8-2.3,1.9c-0.1,0.3-0.3,0.4-0.6,0.3
			C379.2,294.1,378.9,294.1,378.7,294.1z M374,300.9c0,0.3,0.1,0.6,0.3,0.8c0.1,0.2,0.2,0.2,0.4,0c0.5-0.3,0.8-0.8,0.9-1.4
			c0.4-1.1,1-2.2,1.8-3.1c0.1-0.1,0-0.1-0.1-0.2c-0.3-0.1-0.5-0.1-0.8,0c-0.8,0.2-1.1,1.1-0.7,1.8c0.1,0.2,0.1,0.4,0,0.5
			c-0.1,0.2-0.3,0.2-0.5,0.2C374.7,299.6,374,300.1,374,300.9z M390.9,297.5c0-1-1-1.5-1.7-1.2c-0.1,0.1-0.1,0.1,0,0.2
			c0.2,0.2,0.4,0.3,0.6,0.5c0.3,0.3,0.6,0.6,0.9,1c0.1,0.1,0.1,0.1,0.2,0C390.8,297.9,390.9,297.7,390.9,297.5z M383.7,294.5
			c0.1,0,0.1,0,0.2,0h0.1c0-0.1,0-0.1,0-0.1c-0.2-0.4-0.7-0.7-1.3-0.6c-0.4,0.1-0.9,0.4-1,0.9c0,0.2,0,0.2,0.1,0.1
			C382.4,294.6,383,294.6,383.7,294.5z M384.1,298.4c0-0.2-0.2-0.4-0.4-0.4c-0.2,0-0.4,0.2-0.4,0.4c0,0.2,0.2,0.4,0.4,0.4
			S384.1,298.6,384.1,298.4z M389.6,300.9c0-0.2-0.2-0.4-0.4-0.4c-0.2,0-0.4,0.2-0.4,0.4c0,0.2,0.2,0.4,0.4,0.4
			S389.6,301.1,389.6,300.9z M380.7,297.9c0.2,0,0.4-0.2,0.4-0.4c0-0.2-0.2-0.4-0.4-0.4c-0.2,0-0.4,0.2-0.4,0.4
			C380.4,297.7,380.5,297.9,380.7,297.9z M387.5,298c0-0.2-0.2-0.4-0.4-0.4c-0.2,0-0.4,0.2-0.4,0.4c0,0.2,0.2,0.4,0.4,0.4
			S387.5,298.2,387.5,298z M385.8,300.5c0-0.2-0.2-0.4-0.4-0.4c-0.2,0-0.4,0.2-0.4,0.4c0,0.2,0.2,0.4,0.4,0.4
			C385.6,300.9,385.8,300.7,385.8,300.5z M379.5,300.1c0-0.2-0.2-0.4-0.4-0.4c-0.2,0-0.4,0.2-0.4,0.4c0,0.2,0.2,0.4,0.4,0.4
			S379.5,300.3,379.5,300.1z"/>
	</g>
</g>
<g id="fruits">
	
		<rect x="602.8" y="313.9" transform="matrix(0.7071 -0.7071 0.7071 0.7071 -50.341 530.1289)" class="st12" width="23.9" height="23.9"/>
	<g>
		<path class="st13" d="M614.2,322.2c-0.1,0-0.1,0-0.2,0.1c-1.3,0.8-2.9,0.6-4-0.5c-0.1-0.1-0.1-0.2,0-0.4c0.3-0.4,0.7-0.7,1.2-0.8
			c0.2-0.1,0.2-0.1,0.1-0.3c-0.4-0.6-0.7-1.2-0.7-2c0-0.3,0.1-0.3,0.3-0.3c0.7,0,1.4,0.2,2,0.7c0.2,0.1,0.2,0.1,0.3-0.1
			c0.2-0.4,0.4-0.8,0.8-1.2c0.2-0.2,0.3-0.2,0.5,0c0.5,0.5,0.8,1.1,0.9,1.8c0,0.2,0,0.5,0,0.7v0.1c0,0,0.1,0,0.1-0.1
			c0.4-0.4,0.8-0.9,1.3-1.2c1.1-0.8,2.4-1.3,3.7-1.5c0.2,0,0.5-0.1,0.7-0.1s0.3,0.1,0.3,0.3c0,0.4,0,0.7,0,1.1
			c0,0.2-0.1,0.3-0.3,0.3c-0.5,0-1,0-1.5,0.1c-1.4,0.3-2.5,1-3.4,2c-0.6,0.7-1.1,1.5-1.3,2.4c-0.1,0.2-0.1,0.3-0.3,0.2
			c-0.2,0-0.4,0-0.7,0c-0.2,0-0.2,0-0.2-0.2C613.9,322.9,614,322.6,614.2,322.2z"/>
		<path class="st13" d="M618.8,324.4c1,0,1.8,0.8,1.8,1.8s-0.8,1.7-1.8,1.7s-1.8-0.8-1.8-1.8S617.8,324.4,618.8,324.4z"/>
		<path class="st13" d="M616,333.7c0,1-0.8,1.8-1.8,1.7c-0.9,0-1.7-0.7-1.7-1.8c0-1,0.8-1.8,1.8-1.7C615.2,332,616,332.8,616,333.7z
			"/>
		<path class="st13" d="M611.4,326.1c0,1-0.8,1.8-1.7,1.8c-1,0-1.8-0.8-1.8-1.8s0.8-1.7,1.8-1.7
			C610.6,324.4,611.4,325.1,611.4,326.1z"/>
		<path class="st13" d="M611.8,331.8c-1,0-1.8-0.8-1.8-1.7c0-1,0.8-1.8,1.8-1.8s1.7,0.8,1.7,1.8C613.6,331,612.8,331.8,611.8,331.8z
			"/>
		<path class="st13" d="M616.6,331.8c-1,0-1.7-0.8-1.7-1.7c0-1,0.8-1.8,1.7-1.8c1,0,1.8,0.8,1.8,1.8
			C618.4,331,617.6,331.8,616.6,331.8z"/>
		<path class="st13" d="M616,326.1c0,0.9-0.7,1.7-1.8,1.7c-1,0-1.7-0.8-1.7-1.8s0.9-1.8,1.9-1.7C615.2,324.4,616,325.2,616,326.1z"
			/>
	</g>
</g>
<g id="vegan">
	
		<rect x="838.7" y="229.5" transform="matrix(0.7071 -0.7071 0.7071 0.7071 78.418 672.1823)" class="st12" width="23.9" height="23.9"/>
	<g>
		<path class="st13" d="M858.3,234.5c-0.2,0-0.5,0-0.8,0.1c-1.1,0.2-2.1,0.5-3.1,1.1c-1.3,0.9-1.8,2.1-1.7,3.6c0,0.1,0,0.2,0.1,0.2
			s0.1-0.1,0.2-0.2c0,0,0-0.1,0.1-0.1c0.5-0.7,1-1.5,1.7-2c0.2-0.2,0.4-0.3,0.7-0.4c-2.2,2.8-3.6,5.9-4.5,9.2
			c-0.1-0.1-0.1-0.2-0.2-0.3c-0.3-0.9-0.6-1.9-0.9-2.8c-0.7-1.9-1.5-3.7-2.7-5.4c-0.7-0.9-1.4-1.8-2.4-2.4c-0.1-0.1-0.2-0.1-0.3-0.1
			c0,0.1-0.6,0.2-0.5,0.2c0.3,0.3,0.6,0.6,0.8,0.9c0.9,1.2,1.6,2.5,2.2,3.9c0.7,1.8,1.3,3.6,1.8,5.4c0.3,1,0.5,2,0.7,2.9
			c0,0.1,0.1,0.3,0.1,0.4c0.1,0.1,0,1.2,1.3,1.2s1.3-1.1,1.3-1.1s0.1-0.4,0.1-0.6c0.2-1.5,0.5-3,0.9-4.4c0.3-1.1,0.7-2.2,1.3-3.2
			c0.1-0.2-0.1-0.3,0.1-0.3c0.5-0.1,1-0.2,1.5-0.5c1.2-0.7,2-1.8,2.3-3.2c0.1-0.6,0.2-1.3,0.3-1.9
			C858.6,234.5,858.5,234.4,858.3,234.5z"/>
	</g>
</g>
<g id="mezze_and_shawarma">
</g>
<g id="cotton_candy">
</g>
<g id="crepes">
</g>
<g id="iced_tea">
</g>
<g id="drinks">
	
		<rect x="806.3" y="241.1" transform="matrix(0.7071 -0.7071 0.7071 0.7071 60.7283 652.7102)" class="st12" width="23.9" height="23.9"/>
	<path class="st13" d="M820.1,243.5c-1.3,0-2.4,0.8-2.9,1.9c0,0.1,0,0.1,0.1,0.2l0,0v0.1c0,0.1,0.1,0.1,0.2,0.2c0,0,0,0,0.1,0
		s0.1,0,0.2,0c0.1,0,0.1,0,0.2,0.1h0.1c0.1,0,0.2,0.1,0.3,0.1c-1.2,0-2.4,0-3.6,0c-0.1,0-0.1,0-0.2,0c-0.2,0-0.3,0.1-0.3,0.3
		c0,0.1,0,0.2,0,0.2c0,1.2,0,2.4,0,3.6c0,3.5,0,7.1,0,10.6c0,0.4,0.1,0.6,0.6,0.6c1.4,0,2.8,0,4.2,0c0.4,0,0.9,0,1.3,0
		c0.3,0,0.4-0.1,0.4-0.4c0-0.1,0-0.1,0-0.2c0-2.4,0-4.7,0-7.1c0-2.2,0-4.5,0-6.7l0,0c0.1,0.1,0.3,0.1,0.4,0.2
		c0.3,0.1,0.5,0.2,0.8,0.3c0.1,0,0.2,0.1,0.3,0.1s0.2,0.1,0.4,0.1c0.1,0,0.1,0,0.2,0l0,0l0,0c0.1,0,0.1,0,0.2,0l0,0c0,0,0,0,0.1,0
		l0,0c0.1-0.4,0.2-0.7,0.2-1.1C823.3,245,821.9,243.5,820.1,243.5z M819.8,244.1c0.1,0,0.2,0,0.3,0s0.2,0,0.3,0
		c0.3,0,0.4,0.3,0.3,0.6c-0.1,0.3-0.2,0.6-0.3,0.8c-0.1,0.1-0.1,0.3-0.2,0.4c0,0.1-0.1,0.1-0.1,0.1c-0.1,0-0.1,0-0.1-0.1
		c-0.2-0.4-0.4-0.8-0.5-1.3C819.4,244.4,819.6,244.1,819.8,244.1z M819.3,246.2c-0.4-0.1-0.7-0.3-1.1-0.4c-0.3-0.1-0.3-0.4-0.1-0.7
		c0.1-0.1,0.3-0.3,0.4-0.4c0.1-0.1,0.2-0.1,0.3-0.1s0.3,0.1,0.3,0.2c0.2,0.4,0.3,0.8,0.5,1.2v0.1v0.1
		C819.6,246.2,819.4,246.2,819.3,246.2L819.3,246.2z M816.8,255c0,0.2,0,0.5,0,0.7c0,0.1,0,0.2-0.2,0.2c-0.5,0-1,0-1.5,0
		c-0.1,0-0.2,0-0.2-0.2c0-0.5,0-1,0-1.5c0-0.1,0-0.2,0.2-0.2c0.5,0,1,0,1.4,0c0.1,0,0.2,0,0.2,0.2
		C816.7,254.5,816.8,254.7,816.8,255z M819.8,257.6c-0.4,0.4-0.7,0.7-1.1,1.1c-0.1,0.1-0.1,0.1-0.2,0c-0.4-0.4-0.7-0.7-1.1-1.1
		c-0.1-0.1-0.1-0.1,0-0.2c0.4-0.4,0.7-0.7,1.1-1.1c0,0,0,0,0.1,0s0.1,0,0.1,0.1c0.4,0.4,0.7,0.7,1.1,1.1
		C819.8,257.5,819.8,257.5,819.8,257.6z M820,249.5c0,0.1,0,0.2-0.1,0.1c-0.8-0.2-1.6-0.1-2.4,0.1c-0.5,0.1-1.1,0.3-1.6,0.2
		c-0.2,0-0.5,0-0.7-0.1c-0.1,0-0.1-0.1-0.1-0.2c0-0.9,0-1.8,0-2.7c0-0.1,0.1-0.1,0.2-0.1c0.8,0,1.6,0,2.3,0c0.8,0,1.5,0,2.3,0
		c0.1,0,0.2,0,0.2,0.2C820,247.9,820,248.7,820,249.5z M820.7,246.3c-0.1,0-0.1-0.1-0.1-0.2c0-0.1,0.1-0.2,0.1-0.3
		c0.1-0.3,0.3-0.6,0.4-1c0.1-0.2,0.2-0.3,0.4-0.3c0.1,0,0.2,0,0.3,0.1s0.3,0.3,0.4,0.4c0.2,0.2,0.1,0.6-0.1,0.7
		c-0.4,0.2-0.8,0.3-1.2,0.5C820.8,246.2,820.7,246.3,820.7,246.3z M822.8,247c0,0.3-0.3,0.5-0.6,0.4c-0.4-0.2-0.8-0.4-1.3-0.5
		c-0.1,0-0.1-0.1-0.1-0.1c0-0.1,0-0.1,0.1-0.1c0.4-0.2,0.9-0.4,1.3-0.5c0.3-0.1,0.5,0.1,0.5,0.4c0,0.1,0,0.2,0,0.3l0,0
		C822.8,246.8,822.8,246.9,822.8,247z"/>
</g>
<g id="cake">
</g>
<g id="desserts">
	
		<rect x="344.9" y="51.2" transform="matrix(0.7071 -0.7071 0.7071 0.7071 59.8997 270.8396)" class="st12" width="23.9" height="23.9"/>
	<g>
		<path class="st13" d="M350.5,62.8c0-0.9,0.4-1.5,1.2-1.7c0.1,0,0.1-0.1,0.2-0.2c0.1-0.6,0.2-1.1,0.5-1.7c0.2-0.4,0.4-0.7,0.8-1
			c0.1-0.1,0.1-0.2,0.1-0.3c0.1-1.2,0.7-2.1,1.6-2.8c0.2-0.2,0.5-0.2,0.7-0.1c0.2,0.1,0.3,0.2,0.5,0.2c0.1,0.1,0.2,0,0.2,0
			c0.2-0.3,0.5-0.5,0.9-0.6c0.1,0,0.1-0.1,0.2-0.2c0.2-0.7,0.8-1.2,1.5-1.2c0.3,0,0.5,0.2,0.4,0.5c-0.1,0.2-0.2,0.2-0.4,0.2
			c-0.3,0-0.6,0.2-0.8,0.5c-0.1,0.1-0.1,0.2,0.1,0.3c0.8,0.3,1.2,1.1,1.1,1.9c0,0.2,0,0.2,0.1,0.2c0.5,0.2,1,0.5,1.4,0.8
			c0.7,0.7,1.1,1.6,1.2,2.6c0,0.1,0.1,0.2,0.2,0.2c0.8,0.3,1.2,0.8,1.2,1.7c0,0.5,0,1-0.4,1.4c-0.5,0.6-0.8,1.3-1.2,2
			c-1.5,2.6-3,5.2-4.5,7.9c-0.2,0.4-0.5,0.4-0.7,0c-1.7-3-3.5-6.1-5.2-9.1c-0.1-0.1-0.2-0.2-0.3-0.3
			C350.7,63.7,350.6,63.3,350.5,62.8z M359,63.4c0.1,0,0.2,0,0.2,0c0.9,0,1.7,0,2.6,0c0.4,0,0.7-0.2,0.8-0.6c0.1-0.3,0.1-0.7,0-1.1
			c-0.1-0.6-0.7-0.8-1.2-0.5c-0.1,0-0.1,0.1-0.2,0.1c-0.2,0.1-0.4,0-0.5-0.1c-0.1-0.2,0-0.4,0.2-0.5c0.1-0.1,0.2-0.1,0.3-0.2
			c0.1,0,0.1-0.1,0.1-0.2c0-0.4-0.1-0.8-0.3-1.2c0-0.1-0.1-0.1-0.1,0c-0.6,0.5-1.4,0.7-2.2,0.9c-0.2,0-0.4-0.1-0.5-0.3
			c0-0.2,0.1-0.4,0.3-0.4c0.2,0,0.4-0.1,0.5-0.1c0.5-0.1,0.9-0.3,1.3-0.6c0.2-0.1,0.2-0.2,0-0.4c-0.4-0.3-0.8-0.6-1.3-0.8
			c-0.1,0-0.2,0-0.3,0c-0.1,0.1-0.1,0.1-0.2,0.2c-0.6,0.4-1.2,0.5-1.8,0.2c-0.6-0.3-0.9-0.8-1-1.4c0-0.4-0.1-0.5-0.4-0.6
			c0,0-0.1,0-0.1-0.1c-0.1,0-0.1,0-0.2,0c-0.6,0.5-1.1,1.2-1.2,2c0,0.1,0,0.2,0.1,0.2c0.2,0,0.5,0,0.7,0c0.3,0,0.4,0.2,0.4,0.4
			s-0.2,0.3-0.4,0.4c-0.3,0-0.5,0-0.8,0c-0.4,0-0.6,0.1-0.8,0.4c-0.3,0.5-0.5,1-0.6,1.5c0,0.2,0,0.2,0.2,0.2c1-0.3,2-0.6,3.1-0.9
			c0.3-0.1,0.6-0.2,1-0.3c0.2-0.1,0.4,0.1,0.4,0.2c0.1,0.2,0,0.4-0.2,0.4c-0.1,0-0.2,0.1-0.2,0.1c-0.9,0.3-1.8,0.5-2.7,0.8
			c-0.8,0.2-1.5,0.5-2.3,0.6c-0.4,0-0.7,0.5-0.6,1c0,0.4,0.3,0.6,0.7,0.6c1.9,0,3.8,0,5.7,0c0.1,0,0.2,0,0.3-0.1
			c0.3-0.3,0.6-0.5,1-0.8c0.3-0.2,0.5-0.4,0.8-0.7c0.2-0.2,0.4-0.2,0.5,0s0.1,0.4-0.1,0.5c-0.1,0.1-0.1,0.1-0.2,0.2
			C359.7,62.9,359.4,63.2,359,63.4z"/>
	</g>
</g>
<g id="coffee">
	
		<rect x="333.4" y="23.2" transform="matrix(0.7071 -0.7071 0.7071 0.7071 76.3129 254.4831)" class="st12" width="23.9" height="23.9"/>
	<g>
		<path class="st13" d="M338.9,36.2c0-0.5,0-0.9,0-1.3c0-0.5,0.2-0.9,0.6-1.2c0.6-0.5,1.2-0.7,1.9-0.9c0.9-0.2,1.7-0.3,2.6-0.4
			c1.3-0.1,2.5,0,3.8,0.3c0.8,0.2,1.6,0.4,2.3,0.9c0.2,0.1,0.4,0.3,0.5,0.5c0.2,0.2,0.3,0.5,0.3,0.8c0,0.1,0,0.2,0.1,0.2
			c0.6,0,1.2,0.3,1.7,0.7c0.7,0.6,1.1,1.4,1.1,2.3c0,1.1-0.5,2-1.5,2.6c-0.5,0.3-1,0.4-1.6,0.4c-0.4,0-0.7,0-1.1,0
			c-0.1,0-0.2,0-0.3,0.2c-0.7,0.8-1.5,1.4-2.5,1.7c-1.9,0.6-3.6,0.4-5.3-0.7c-1.5-1-2.3-2.5-2.6-4.2
			C338.9,37.3,338.9,36.7,338.9,36.2z M344.9,35.6c0.9,0,1.8-0.1,2.7-0.3c0.5-0.1,1.1-0.3,1.6-0.5c0.1-0.1,0.1-0.1,0-0.2
			c-0.2-0.1-0.4-0.2-0.6-0.3c-0.9-0.3-1.9-0.5-2.9-0.5c-1.2-0.1-2.3,0-3.5,0.3c-0.5,0.1-1.1,0.3-1.6,0.5c-0.1,0-0.1,0-0.1,0.1
			s0.1,0.1,0.1,0.1c0.2,0.1,0.4,0.2,0.5,0.2C342.4,35.4,343.6,35.6,344.9,35.6z M350.7,39.7c0.1,0,0.2,0,0.3,0
			c0.8-0.1,1.4-0.8,1.4-1.6s-0.5-1.6-1.3-1.7c-0.3-0.1-0.3-0.1-0.3,0.2c0,0.9,0,1.8-0.4,2.7C350.3,39.7,350.3,39.7,350.7,39.7z"/>
		<path class="st13" d="M348.8,27c0,0.4-0.1,0.8-0.3,1.2c-0.1,0.3-0.2,0.5-0.3,0.8c-0.2,0.5-0.2,1.1,0,1.6c0,0.1,0.1,0.2,0.1,0.3
			c0,0.2-0.1,0.4-0.2,0.5c-0.2,0.1-0.4,0.1-0.5-0.1c-0.5-0.6-0.8-1.2-0.7-2c0.1-0.6,0.3-1.1,0.5-1.6c0-0.1,0.1-0.2,0.1-0.3
			c0.2-0.4,0.2-0.8,0.1-1.3c0-0.1-0.1-0.2-0.1-0.3c0-0.2,0-0.4,0.2-0.5s0.4-0.1,0.5,0.1c0.3,0.3,0.5,0.7,0.6,1.1
			C348.8,26.7,348.8,26.9,348.8,27z"/>
		<path class="st13" d="M341,29.5c0-0.5,0.1-1,0.4-1.5c0.1-0.2,0.2-0.4,0.3-0.7c0.2-0.4,0.2-0.9,0-1.3c0-0.1,0-0.1-0.1-0.2
			c0-0.2,0-0.4,0.2-0.5s0.4-0.1,0.5,0.1c0.3,0.3,0.5,0.8,0.6,1.2c0.1,0.5-0.1,1-0.3,1.5c-0.2,0.4-0.4,0.9-0.4,1.3
			c-0.1,0.4,0,0.7,0.1,1c0,0.1,0.1,0.2,0.1,0.3c0,0.2-0.1,0.4-0.3,0.4c-0.2,0.1-0.4,0-0.5-0.1C341.3,30.8,341,30.2,341,29.5z"/>
		<path class="st13" d="M345.9,26.8c0,0.3-0.1,0.6-0.2,0.9c-0.2,0.4-0.3,0.7-0.4,1.1c-0.2,0.5-0.2,0.9,0,1.4c0,0.1,0.1,0.3,0.1,0.4
			c0,0.2-0.1,0.4-0.2,0.5c-0.2,0.1-0.4,0.1-0.5-0.1c-0.7-0.9-0.8-1.8-0.5-2.8c0.1-0.3,0.3-0.7,0.4-1c0.2-0.4,0.2-0.8,0.1-1.3
			c0-0.1-0.1-0.2-0.1-0.3c-0.1-0.2,0-0.4,0.2-0.5s0.4,0,0.5,0.1C345.7,25.7,345.9,26.2,345.9,26.8z"/>
	</g>
</g>
<g id="popcorn">
</g>
<g id="_x31_3_1_">
</g>
<g id="_x31_0">
</g>
<g id="_x34_7">
</g>
<g id="_x33_4">
</g>
<g id="_x31_4">
</g>
<g id="_x33_7">
</g>
<g id="_x34_3">
</g>
<g id="_x33_6">
</g>
<g id="_x34_2">
</g>
<g id="_x39_">
</g>
<g id="_x31_5">
</g>
<g id="_x31_2">
	<circle class="st14" cx="421.9" cy="322.5" r="16"/>
	<g>
		<g>
			<path class="st15" d="M415.7,318.9l-2,0.5l-0.6-2.5l3.5-1h2.4v12h-3.2L415.7,318.9L415.7,318.9z"/>
			<path class="st15" d="M420.6,325.3l4.5-3.4c0.6-0.4,0.9-0.8,1.2-1.1s0.3-0.7,0.3-1c0-0.4-0.1-0.7-0.4-0.9c-0.2-0.2-0.6-0.3-1-0.3
				s-0.8,0.1-1.1,0.4c-0.4,0.2-0.8,0.6-1.2,1.2l-2.2-1.9c0.3-0.4,0.6-0.8,1-1.1c0.3-0.3,0.7-0.6,1.1-0.8c0.4-0.2,0.8-0.4,1.3-0.5
				s1-0.2,1.6-0.2s1.2,0.1,1.8,0.3c0.5,0.2,1,0.4,1.4,0.8c0.4,0.3,0.7,0.7,0.9,1.2c0.2,0.5,0.3,1,0.3,1.5l0,0c0,0.5-0.1,0.9-0.2,1.3
				s-0.3,0.7-0.5,1s-0.5,0.6-0.9,0.9c-0.3,0.3-0.7,0.6-1.2,0.9l-2,1.4h4.9v2.7h-9.4v-2.4H420.6z"/>
		</g>
	</g>
</g>
<g id="_x31_">
	<circle class="st14" cx="641.3" cy="234.2" r="16"/>
	<g>
		<g>
			<path class="st15" d="M640,230.3l-2,0.5l-0.6-2.5l3.5-1h2.4v12H640V230.3z"/>
		</g>
	</g>
</g>
<g id="_x33_2">
	<circle class="st14" cx="819.2" cy="162.6" r="16"/>
	<g>
		<g>
			<path class="st15" d="M813.7,167.5c-1.2,0-2.1-0.2-3-0.6c-0.8-0.4-1.5-0.9-2.1-1.5l2.1-2.1c0.4,0.4,0.9,0.8,1.3,1
				c0.5,0.2,1,0.4,1.5,0.4s0.9-0.1,1.1-0.3c0.3-0.2,0.4-0.5,0.4-0.9l0,0c0-0.4-0.2-0.7-0.5-0.9s-0.8-0.3-1.4-0.3h-1.4l-0.5-1.7
				l2.7-2.5h-4.6v-2.7h8.6v2.4l-2.8,2.4c0.4,0.1,0.8,0.2,1.2,0.4s0.7,0.4,1,0.7s0.5,0.6,0.7,1s0.2,0.8,0.2,1.3l0,0
				c0,0.6-0.1,1.1-0.3,1.6s-0.6,0.9-1,1.2s-0.9,0.6-1.5,0.8C814.9,167.4,814.3,167.5,813.7,167.5z"/>
			<path class="st15" d="M819.3,164.8l4.5-3.4c0.6-0.4,0.9-0.8,1.2-1.1s0.3-0.7,0.3-1c0-0.4-0.1-0.7-0.4-0.9c-0.2-0.2-0.6-0.3-1-0.3
				s-0.8,0.1-1.1,0.4c-0.4,0.2-0.8,0.6-1.2,1.2l-2.2-1.9c0.3-0.4,0.6-0.8,1-1.1c0.3-0.3,0.7-0.6,1.1-0.8c0.4-0.2,0.8-0.4,1.3-0.5
				s1-0.2,1.6-0.2s1.2,0.1,1.8,0.3c0.5,0.2,1,0.4,1.4,0.8c0.4,0.3,0.7,0.7,0.9,1.2s0.3,1,0.3,1.5l0,0c0,0.5-0.1,0.9-0.2,1.3
				s-0.3,0.7-0.5,1s-0.5,0.6-0.9,0.9c-0.3,0.3-0.7,0.6-1.2,0.9l-2,1.4h4.9v2.7h-9.4v-2.4H819.3z"/>
		</g>
	</g>
</g>
<g id="_x31_1">
	<circle class="st14" cx="379.4" cy="41.4" r="16"/>
	<g>
		<g>
			<path class="st15" d="M375.1,38.4l-2,0.5l-0.6-2.5l3.5-1h2.4v12h-3.2L375.1,38.4L375.1,38.4z"/>
			<path class="st15" d="M382.2,38.4l-2,0.5l-0.6-2.5l3.5-1h2.4v12h-3.2L382.2,38.4L382.2,38.4z"/>
		</g>
	</g>
</g>
<g id="_x31_9">
	<circle class="st14" cx="319.7" cy="51.8" r="16"/>
	<g>
		<g>
			<path class="st15" d="M313.3,48.9l-2,0.5l-0.6-2.5l3.5-1h2.4v12h-3.2L313.3,48.9L313.3,48.9z"/>
			<path class="st15" d="M322.7,58c-0.9,0-1.7-0.1-2.3-0.4c-0.7-0.3-1.3-0.6-1.8-1l1.5-2.3c0.4,0.3,0.8,0.6,1.2,0.7
				c0.4,0.2,0.8,0.2,1.3,0.2c0.7,0,1.2-0.2,1.6-0.7c0.4-0.4,0.6-1,0.7-1.8c-0.3,0.3-0.7,0.5-1.1,0.7s-0.9,0.3-1.4,0.3
				c-0.6,0-1.1-0.1-1.6-0.3s-0.9-0.4-1.3-0.7s-0.6-0.7-0.8-1.2c-0.2-0.5-0.3-1-0.3-1.6l0,0c0-0.7,0.1-1.3,0.4-1.8
				c0.2-0.5,0.6-1,1-1.4s0.9-0.7,1.5-0.9s1.2-0.3,1.9-0.3c0.9,0,1.6,0.1,2.1,0.4c0.6,0.2,1.1,0.6,1.5,1s0.8,1,1,1.7
				c0.3,0.7,0.4,1.6,0.4,2.7l0,0c0,1-0.1,1.9-0.4,2.7c-0.2,0.8-0.6,1.5-1,2.1s-1,1-1.7,1.3C324.4,57.9,323.6,58,322.7,58z
				 M323.3,51.4c0.5,0,0.9-0.2,1.2-0.5c0.3-0.3,0.4-0.7,0.4-1.1l0,0c0-0.5-0.2-0.9-0.5-1.2s-0.7-0.5-1.2-0.5s-0.9,0.2-1.2,0.5
				s-0.4,0.7-0.4,1.2l0,0c0,0.5,0.2,0.8,0.5,1.1S322.7,51.4,323.3,51.4z"/>
		</g>
	</g>
</g>
<g id="_x35_2">
</g>
<g id="_x31_3_x5F_2">
</g>
<g id="_x34_8">
</g>
<g id="_x34_1">
</g>
<g id="_x33_9">
	<circle class="st16" cx="647.7" cy="300.9" r="16"/>
	<g>
		<path class="st15" d="M642.2,307.4c-1.2,0-2.1-0.2-3-0.6c-0.8-0.4-1.5-0.9-2.1-1.5l2.1-2.1c0.4,0.4,0.9,0.8,1.3,1
			c0.5,0.2,1,0.4,1.5,0.4s0.9-0.1,1.1-0.3c0.3-0.2,0.4-0.5,0.4-0.9l0,0c0-0.4-0.2-0.7-0.5-0.9c-0.3-0.2-0.8-0.3-1.4-0.3h-1.4
			l-0.5-1.7l2.7-2.5h-4.6v-2.7h8.6v2.4l-2.8,2.4c0.4,0.1,0.8,0.2,1.2,0.4s0.7,0.4,1,0.7c0.3,0.3,0.5,0.6,0.7,1s0.2,0.8,0.2,1.3l0,0
			c0,0.6-0.1,1.1-0.3,1.6s-0.6,0.9-1,1.2c-0.4,0.3-0.9,0.6-1.5,0.8C643.5,307.3,642.8,307.4,642.2,307.4z"/>
		<path class="st15" d="M652.4,307.4c-0.9,0-1.7-0.1-2.3-0.4c-0.7-0.3-1.3-0.6-1.8-1l1.5-2.3c0.4,0.3,0.8,0.6,1.2,0.7
			c0.4,0.2,0.8,0.2,1.3,0.2c0.7,0,1.2-0.2,1.6-0.7c0.4-0.4,0.6-1,0.7-1.8c-0.3,0.3-0.7,0.5-1.1,0.7s-0.9,0.3-1.4,0.3
			c-0.6,0-1.1-0.1-1.6-0.3c-0.5-0.2-0.9-0.4-1.3-0.7c-0.4-0.3-0.6-0.7-0.8-1.2s-0.3-1-0.3-1.6l0,0c0-0.7,0.1-1.3,0.4-1.8
			c0.2-0.5,0.6-1,1-1.4s0.9-0.7,1.5-0.9s1.2-0.3,1.9-0.3c0.9,0,1.6,0.1,2.1,0.4c0.6,0.2,1.1,0.6,1.5,1s0.8,1,1,1.7
			c0.3,0.7,0.4,1.6,0.4,2.7l0,0c0,1-0.1,1.9-0.4,2.7c-0.2,0.8-0.6,1.5-1,2.1s-1,1-1.7,1.3C654,307.2,653.2,307.4,652.4,307.4z
			 M652.9,300.8c0.5,0,0.9-0.2,1.2-0.5s0.4-0.7,0.4-1.1l0,0c0-0.5-0.2-0.9-0.5-1.2s-0.7-0.5-1.2-0.5s-0.9,0.2-1.2,0.5
			s-0.4,0.7-0.4,1.2l0,0c0,0.5,0.2,0.8,0.5,1.1S652.4,300.8,652.9,300.8z"/>
	</g>
</g>
<g id="_x34_0">
</g>
<g id="_x31_7">
</g>
<g id="_x36_">
</g>
<g id="_x34_">
	<circle class="st17" cx="151.2" cy="297.4" r="16"/>
	<g>
		<g>
			<path class="st15" d="M150.6,300.5h-5.8l-0.5-2.3l6.2-7.3h3.3v7.2h1.5v2.5h-1.5v2.3h-3.2V300.5z M150.6,298.1v-3.4l-2.8,3.4
				H150.6z"/>
		</g>
	</g>
</g>
<g id="_x33_1">
	<circle class="st17" cx="718.8" cy="122.3" r="16"/>
	<g>
		<g>
			<path class="st15" d="M715.2,128.2c-1.2,0-2.1-0.2-3-0.6c-0.8-0.4-1.5-0.9-2.1-1.5l2.1-2.1c0.4,0.4,0.9,0.8,1.3,1
				c0.5,0.2,1,0.4,1.5,0.4s0.9-0.1,1.1-0.3c0.3-0.2,0.4-0.5,0.4-0.9l0,0c0-0.4-0.2-0.7-0.5-0.9c-0.3-0.2-0.8-0.3-1.4-0.3h-1.4
				l-0.5-1.7l2.7-2.5h-4.6v-2.7h8.6v2.4l-2.8,2.4c0.4,0.1,0.8,0.2,1.2,0.4s0.7,0.4,1,0.7c0.3,0.3,0.5,0.6,0.7,1s0.2,0.8,0.2,1.3l0,0
				c0,0.6-0.1,1.1-0.3,1.6s-0.6,0.9-1,1.2c-0.4,0.3-0.9,0.6-1.5,0.8C716.4,128.1,715.8,128.2,715.2,128.2z"/>
			<path class="st15" d="M723,119.1l-2,0.5l-0.6-2.5l3.5-1h2.4v12H723V119.1z"/>
		</g>
	</g>
</g>
<g id="_x35_5">
	<circle class="st17" cx="201.6" cy="182.7" r="16"/>
	<g>
		<g>
			<path class="st15" d="M195.9,189.4c-1.1,0-2-0.2-2.7-0.5c-0.8-0.3-1.5-0.8-2.1-1.4l1.9-2.2c0.5,0.4,1,0.7,1.4,1
				c0.5,0.2,1,0.3,1.5,0.3s1-0.1,1.3-0.4c0.3-0.2,0.5-0.6,0.5-1l0,0c0-0.4-0.2-0.8-0.5-1s-0.7-0.4-1.3-0.4c-0.4,0-0.7,0.1-1,0.2
				c-0.3,0.1-0.6,0.3-0.9,0.4l-2-1.1l0.3-6h8v2.7H195l-0.1,1.8c0.3-0.1,0.6-0.2,0.9-0.3c0.3-0.1,0.6-0.1,1-0.1c0.5,0,1,0.1,1.5,0.2
				c0.5,0.2,0.9,0.4,1.3,0.7c0.4,0.3,0.7,0.7,0.9,1.2s0.3,1,0.3,1.7l0,0c0,0.7-0.1,1.3-0.4,1.8c-0.2,0.5-0.6,1-1,1.3
				s-0.9,0.6-1.5,0.8S196.7,189.4,195.9,189.4z"/>
			<path class="st15" d="M206.6,189.4c-1.1,0-2-0.2-2.7-0.5c-0.8-0.3-1.5-0.8-2.1-1.4l1.9-2.2c0.5,0.4,1,0.7,1.4,1
				c0.5,0.2,1,0.3,1.5,0.3s1-0.1,1.3-0.4c0.3-0.2,0.5-0.6,0.5-1l0,0c0-0.4-0.2-0.8-0.5-1s-0.7-0.4-1.3-0.4c-0.4,0-0.7,0.1-1,0.2
				c-0.3,0.1-0.6,0.3-0.9,0.4l-2-1.1l0.3-6h8v2.7h-5.4l-0.1,1.8c0.3-0.1,0.6-0.2,0.9-0.3c0.3-0.1,0.6-0.1,1-0.1c0.5,0,1,0.1,1.5,0.2
				c0.5,0.2,0.9,0.4,1.3,0.7c0.4,0.3,0.7,0.7,0.9,1.2s0.3,1,0.3,1.7l0,0c0,0.7-0.1,1.3-0.4,1.8c-0.2,0.5-0.6,1-1,1.3
				s-0.9,0.6-1.5,0.8S207.3,189.4,206.6,189.4z"/>
		</g>
	</g>
</g>
<g id="_x35_8">
	<circle class="st18" cx="686.5" cy="88.3" r="16"/>
	<g>
		<g>
			<path class="st15" d="M680,94.9c-1.1,0-2-0.2-2.7-0.5c-0.8-0.3-1.5-0.8-2.1-1.4l1.9-2.2c0.5,0.4,1,0.7,1.4,1
				c0.5,0.2,1,0.3,1.5,0.3s1-0.1,1.3-0.4c0.3-0.2,0.5-0.6,0.5-1l0,0c0-0.4-0.2-0.8-0.5-1s-0.7-0.4-1.3-0.4c-0.4,0-0.7,0.1-1,0.2
				s-0.6,0.3-0.9,0.4l-2-1.1l0.3-6h8v2.7H679l-0.1,1.8c0.3-0.1,0.6-0.2,0.9-0.3c0.3-0.1,0.6-0.1,1-0.1c0.5,0,1,0.1,1.5,0.2
				c0.5,0.2,0.9,0.4,1.3,0.7c0.4,0.3,0.7,0.7,0.9,1.2s0.3,1,0.3,1.7l0,0c0,0.7-0.1,1.3-0.4,1.8c-0.2,0.5-0.6,1-1,1.3
				s-0.9,0.6-1.5,0.8S680.7,94.9,680,94.9z"/>
			<path class="st15" d="M690.8,94.9c-0.7,0-1.4-0.1-2-0.3s-1.1-0.4-1.5-0.7c-0.4-0.3-0.8-0.7-1-1.1s-0.4-0.9-0.4-1.4l0,0
				c0-0.7,0.2-1.3,0.5-1.8c0.4-0.5,0.9-0.8,1.5-1.1c-0.5-0.3-0.9-0.6-1.2-1s-0.5-0.9-0.5-1.6l0,0c0-0.5,0.1-0.9,0.3-1.3
				s0.5-0.8,0.9-1.1c0.4-0.3,0.9-0.5,1.4-0.7s1.2-0.2,1.8-0.2c0.7,0,1.3,0.1,1.8,0.2s1,0.4,1.4,0.7c0.4,0.3,0.7,0.7,0.9,1.1
				s0.3,0.8,0.3,1.3l0,0c0,0.6-0.2,1.2-0.5,1.6s-0.7,0.7-1.2,1c0.3,0.1,0.6,0.3,0.8,0.5s0.5,0.4,0.6,0.6s0.3,0.5,0.4,0.8
				c0.1,0.3,0.2,0.6,0.2,1l0,0c0,0.5-0.1,1-0.4,1.4c-0.2,0.4-0.6,0.8-1,1.1s-0.9,0.5-1.5,0.7C692.2,94.8,691.6,94.9,690.8,94.9z
				 M690.8,92.4c0.6,0,1-0.1,1.3-0.4s0.4-0.6,0.4-0.9l0,0c0-0.4-0.2-0.7-0.5-0.9c-0.3-0.2-0.7-0.4-1.2-0.4s-0.9,0.1-1.2,0.4
				c-0.3,0.2-0.5,0.5-0.5,0.9l0,0c0,0.4,0.1,0.7,0.4,0.9C689.9,92.3,690.3,92.4,690.8,92.4z M690.8,87.6c0.4,0,0.8-0.1,1.1-0.4
				c0.3-0.2,0.4-0.6,0.4-0.9l0,0c0-0.3-0.1-0.6-0.4-0.9s-0.6-0.4-1.1-0.4s-0.8,0.1-1.1,0.4c-0.3,0.2-0.4,0.5-0.4,0.9l0,0
				c0,0.4,0.1,0.7,0.4,0.9C690,87.5,690.4,87.6,690.8,87.6z"/>
		</g>
	</g>
</g>
<g id="_x32_9">
	<circle class="st18" cx="760.2" cy="96.5" r="16"/>
	<g>
		<g>
			<path class="st15" d="M749.9,100l4.5-3.4c0.6-0.4,0.9-0.8,1.2-1.1s0.3-0.7,0.3-1c0-0.4-0.1-0.7-0.4-0.9c-0.2-0.2-0.6-0.3-1-0.3
				s-0.8,0.1-1.1,0.4c-0.4,0.2-0.8,0.6-1.2,1.2L750,93c0.3-0.4,0.6-0.8,1-1.1s0.7-0.6,1.1-0.8c0.4-0.2,0.8-0.4,1.3-0.5
				s1-0.2,1.6-0.2s1.2,0.1,1.8,0.3c0.5,0.2,1,0.4,1.4,0.8c0.4,0.3,0.7,0.7,0.9,1.2s0.3,1,0.3,1.5l0,0c0,0.5-0.1,0.9-0.2,1.3
				s-0.3,0.7-0.5,1s-0.5,0.6-0.9,0.9c-0.3,0.3-0.7,0.6-1.2,0.9l-2,1.4h4.9v2.7h-9.4V100H749.9z"/>
			<path class="st15" d="M764.9,102.7c-0.9,0-1.7-0.1-2.3-0.4c-0.7-0.3-1.3-0.6-1.8-1l1.5-2.3c0.4,0.3,0.8,0.6,1.2,0.7
				c0.4,0.2,0.8,0.2,1.3,0.2c0.7,0,1.2-0.2,1.6-0.7c0.4-0.4,0.6-1,0.7-1.8c-0.3,0.3-0.7,0.5-1.1,0.7s-0.9,0.3-1.4,0.3
				c-0.6,0-1.1-0.1-1.6-0.3s-0.9-0.4-1.3-0.7s-0.6-0.7-0.8-1.2s-0.3-1-0.3-1.6l0,0c0-0.7,0.1-1.3,0.4-1.8c0.2-0.5,0.6-1,1-1.4
				s0.9-0.7,1.5-0.9s1.2-0.3,1.9-0.3c0.9,0,1.6,0.1,2.1,0.4c0.6,0.2,1.1,0.6,1.5,1s0.8,1,1,1.7c0.3,0.7,0.4,1.6,0.4,2.7l0,0
				c0,1-0.1,1.9-0.4,2.7c-0.2,0.8-0.6,1.5-1,2.1c-0.5,0.6-1,1-1.7,1.3C766.6,102.5,765.8,102.7,764.9,102.7z M765.5,96.1
				c0.5,0,0.9-0.2,1.2-0.5s0.4-0.7,0.4-1.1l0,0c0-0.5-0.2-0.9-0.5-1.2c-0.3-0.3-0.7-0.5-1.2-0.5s-0.9,0.2-1.2,0.5s-0.4,0.7-0.4,1.2
				l0,0c0,0.5,0.2,0.8,0.5,1.1C764.5,95.9,764.9,96.1,765.5,96.1z"/>
		</g>
	</g>
</g>
<g id="_x33_">
</g>
<g id="_x35_5_1_">
</g>
<g id="_x34_6">
</g>
<g id="_x37_">
</g>
<g id="_x35_">
</g>
<g id="_x34_4">
</g>
<g id="_x32_6">
</g>
<g id="_x32_8">
	<circle class="st18" cx="752.3" cy="151" r="16"/>
	<g>
		<g>
			<path class="st15" d="M741.2,154.6l4.5-3.4c0.6-0.4,0.9-0.8,1.2-1.1s0.3-0.7,0.3-1c0-0.4-0.1-0.7-0.4-0.9c-0.2-0.2-0.6-0.3-1-0.3
				s-0.8,0.1-1.1,0.4c-0.4,0.2-0.8,0.6-1.2,1.2l-2.2-1.9c0.3-0.4,0.6-0.8,1-1.1c0.3-0.3,0.7-0.6,1.1-0.8c0.4-0.2,0.8-0.4,1.3-0.5
				s1-0.2,1.6-0.2s1.2,0.1,1.8,0.3c0.5,0.2,1,0.4,1.4,0.8c0.4,0.3,0.7,0.7,0.9,1.2s0.3,1,0.3,1.5l0,0c0,0.5-0.1,0.9-0.2,1.3
				s-0.3,0.7-0.5,1s-0.5,0.6-0.9,0.9c-0.3,0.3-0.7,0.6-1.2,0.9l-2,1.4h4.9v2.7h-9.4v-2.4H741.2z"/>
			<path class="st15" d="M756.5,157.3c-0.7,0-1.4-0.1-2-0.3s-1.1-0.4-1.5-0.7s-0.8-0.7-1-1.1c-0.2-0.4-0.4-0.9-0.4-1.4l0,0
				c0-0.7,0.2-1.3,0.5-1.8c0.4-0.5,0.9-0.8,1.5-1.1c-0.5-0.3-0.9-0.6-1.2-1s-0.5-0.9-0.5-1.6l0,0c0-0.5,0.1-0.9,0.3-1.3
				c0.2-0.4,0.5-0.8,0.9-1.1s0.9-0.5,1.4-0.7s1.2-0.2,1.8-0.2c0.7,0,1.3,0.1,1.8,0.2c0.5,0.2,1,0.4,1.4,0.7s0.7,0.7,0.9,1.1
				c0.2,0.4,0.3,0.8,0.3,1.3l0,0c0,0.6-0.2,1.2-0.5,1.6c-0.3,0.4-0.7,0.7-1.2,1c0.3,0.1,0.6,0.3,0.8,0.5s0.5,0.4,0.6,0.6
				c0.2,0.2,0.3,0.5,0.4,0.8c0.1,0.3,0.2,0.6,0.2,1l0,0c0,0.5-0.1,1-0.4,1.4c-0.2,0.4-0.6,0.8-1,1.1s-0.9,0.5-1.5,0.7
				C757.9,157.2,757.2,157.3,756.5,157.3z M756.5,154.9c0.6,0,1-0.1,1.3-0.4c0.3-0.3,0.4-0.6,0.4-0.9l0,0c0-0.4-0.2-0.7-0.5-0.9
				s-0.7-0.4-1.2-0.4s-0.9,0.1-1.2,0.4c-0.3,0.2-0.5,0.5-0.5,0.9l0,0c0,0.4,0.1,0.7,0.4,0.9C755.5,154.7,756,154.9,756.5,154.9z
				 M756.5,150c0.4,0,0.8-0.1,1.1-0.4c0.3-0.2,0.4-0.6,0.4-0.9l0,0c0-0.3-0.1-0.6-0.4-0.9s-0.6-0.4-1.1-0.4s-0.8,0.1-1.1,0.4
				c-0.3,0.2-0.4,0.5-0.4,0.9l0,0c0,0.4,0.1,0.7,0.4,0.9C755.7,149.9,756.1,150,756.5,150z"/>
		</g>
	</g>
</g>
<g id="_x32_7">
	<circle class="st18" cx="772.8" cy="180.7" r="16"/>
	<g>
		<g>
			<path class="st15" d="M762,185l4.5-3.4c0.6-0.4,0.9-0.8,1.2-1.1s0.3-0.7,0.3-1c0-0.4-0.1-0.7-0.4-0.9c-0.2-0.2-0.6-0.3-1-0.3
				s-0.8,0.1-1.1,0.4c-0.4,0.2-0.8,0.6-1.2,1.2l-2.2-1.9c0.3-0.4,0.6-0.8,1-1.1c0.3-0.3,0.7-0.6,1.1-0.8c0.4-0.2,0.8-0.4,1.3-0.5
				s1-0.2,1.6-0.2s1.2,0.1,1.8,0.3c0.5,0.2,1,0.4,1.4,0.8c0.4,0.3,0.7,0.7,0.9,1.2s0.3,1,0.3,1.5l0,0c0,0.5-0.1,0.9-0.2,1.3
				s-0.3,0.7-0.5,1s-0.5,0.6-0.9,0.9c-0.3,0.3-0.7,0.6-1.2,0.9l-2,1.4h4.9v2.7H762V185z"/>
			<path class="st15" d="M778.3,178.3h-5.5v-2.8h9.2v2.5l-5.3,9.4H773L778.3,178.3z"/>
		</g>
	</g>
</g>
<g id="_x33_3">
	<circle class="st18" cx="778" cy="128.2" r="16"/>
	<g>
		<g>
			<path class="st15" d="M772.8,135.5c-1.2,0-2.1-0.2-3-0.6c-0.8-0.4-1.5-0.9-2.1-1.5l2.1-2.1c0.4,0.4,0.9,0.8,1.3,1
				c0.5,0.2,1,0.4,1.5,0.4s0.9-0.1,1.1-0.3c0.3-0.2,0.4-0.5,0.4-0.9l0,0c0-0.4-0.2-0.7-0.5-0.9s-0.8-0.3-1.4-0.3h-1.4l-0.5-1.7
				l2.7-2.5h-4.6v-2.7h8.6v2.4l-2.8,2.4c0.4,0.1,0.8,0.2,1.2,0.4s0.7,0.4,1,0.7s0.5,0.6,0.7,1s0.2,0.8,0.2,1.3l0,0
				c0,0.6-0.1,1.1-0.3,1.6s-0.6,0.9-1,1.2s-0.9,0.6-1.5,0.8C774.1,135.4,773.5,135.5,772.8,135.5z"/>
			<path class="st15" d="M783.3,135.5c-1.2,0-2.1-0.2-3-0.6c-0.8-0.4-1.5-0.9-2.1-1.5l2.1-2.1c0.4,0.4,0.9,0.8,1.3,1
				c0.5,0.2,1,0.4,1.5,0.4s0.9-0.1,1.1-0.3c0.3-0.2,0.4-0.5,0.4-0.9l0,0c0-0.4-0.2-0.7-0.5-0.9s-0.8-0.3-1.4-0.3h-1.4l-0.5-1.7
				l2.7-2.5H779v-2.7h8.6v2.4l-2.8,2.4c0.4,0.1,0.8,0.2,1.2,0.4s0.7,0.4,1,0.7s0.5,0.6,0.7,1s0.2,0.8,0.2,1.3l0,0
				c0,0.6-0.1,1.1-0.3,1.6s-0.6,0.9-1,1.2s-0.9,0.6-1.5,0.8C784.6,135.4,783.9,135.5,783.3,135.5z"/>
		</g>
	</g>
</g>
<g id="_x32_3">
	<circle class="st18" cx="202.4" cy="440.7" r="16"/>
	<g>
		<g>
			<path class="st15" d="M192.8,444.4l4.5-3.4c0.6-0.4,0.9-0.8,1.2-1.1s0.3-0.7,0.3-1c0-0.4-0.1-0.7-0.4-0.9c-0.2-0.2-0.6-0.3-1-0.3
				s-0.8,0.1-1.1,0.4c-0.4,0.2-0.8,0.6-1.2,1.2l-2.2-1.9c0.3-0.4,0.6-0.8,1-1.1c0.3-0.3,0.7-0.6,1.1-0.8c0.4-0.2,0.8-0.4,1.3-0.5
				s1-0.2,1.6-0.2s1.2,0.1,1.8,0.3c0.5,0.2,1,0.4,1.4,0.8c0.4,0.3,0.7,0.7,0.9,1.2s0.3,1,0.3,1.5l0,0c0,0.5-0.1,0.9-0.2,1.3
				s-0.3,0.7-0.5,1s-0.5,0.6-0.9,0.9c-0.3,0.3-0.7,0.6-1.2,0.9l-2,1.4h4.9v2.7H193v-2.4H192.8z"/>
			<path class="st15" d="M208.1,447.2c-1.2,0-2.1-0.2-3-0.6c-0.8-0.4-1.5-0.9-2.1-1.5l2.1-2.1c0.4,0.4,0.9,0.8,1.3,1
				c0.5,0.2,1,0.4,1.5,0.4s0.9-0.1,1.1-0.3c0.3-0.2,0.4-0.5,0.4-0.9l0,0c0-0.4-0.2-0.7-0.5-0.9c-0.3-0.2-0.8-0.3-1.4-0.3h-1.4
				l-0.5-1.7l2.7-2.5h-4.6V435h8.6v2.4l-2.8,2.4c0.4,0.1,0.8,0.2,1.2,0.4s0.7,0.4,1,0.7c0.3,0.3,0.5,0.6,0.7,1s0.2,0.8,0.2,1.3l0,0
				c0,0.6-0.1,1.1-0.3,1.6s-0.6,0.9-1,1.2c-0.4,0.3-0.9,0.6-1.5,0.8C209.4,447.1,208.8,447.2,208.1,447.2z"/>
		</g>
	</g>
</g>
<g id="_x32_4">
	<circle class="st18" cx="155.4" cy="446.5" r="16"/>
	<g>
		<g>
			<path class="st15" d="M144.9,449.7l4.5-3.4c0.6-0.4,0.9-0.8,1.2-1.1s0.3-0.7,0.3-1c0-0.4-0.1-0.7-0.4-0.9c-0.2-0.2-0.6-0.3-1-0.3
				s-0.8,0.1-1.1,0.4c-0.4,0.2-0.8,0.6-1.2,1.2l-2.2-1.9c0.3-0.4,0.6-0.8,1-1.1c0.3-0.3,0.7-0.6,1.1-0.8c0.4-0.2,0.8-0.4,1.3-0.5
				s1-0.2,1.6-0.2s1.2,0.1,1.8,0.3c0.5,0.2,1,0.4,1.4,0.8c0.4,0.3,0.7,0.7,0.9,1.2s0.3,1,0.3,1.5l0,0c0,0.5-0.1,0.9-0.2,1.3
				s-0.3,0.7-0.5,1s-0.5,0.6-0.9,0.9c-0.3,0.3-0.7,0.6-1.2,0.9l-2,1.4h4.9v2.7h-9.4v-2.4H144.9z"/>
			<path class="st15" d="M161.4,449.9h-5.8l-0.5-2.3l6.2-7.3h3.3v7.2h1.5v2.5h-1.5v2.3h-3.2V449.9z M161.4,447.4V444l-2.8,3.4H161.4
				z"/>
		</g>
	</g>
</g>
<g id="_x35_7">
	<circle class="st18" cx="395.2" cy="266.9" r="16"/>
	<g>
		<g>
			<path class="st15" d="M390.3,273.1c-1.1,0-2-0.2-2.7-0.5c-0.8-0.3-1.5-0.8-2.1-1.4l1.9-2.2c0.5,0.4,1,0.7,1.4,1
				c0.5,0.2,1,0.3,1.5,0.3s1-0.1,1.3-0.4c0.3-0.2,0.5-0.6,0.5-1l0,0c0-0.4-0.2-0.8-0.5-1s-0.7-0.4-1.3-0.4c-0.4,0-0.7,0.1-1,0.2
				s-0.6,0.3-0.9,0.4l-2-1.1l0.3-6h8v2.7h-5.4l-0.1,1.8c0.3-0.1,0.6-0.2,0.9-0.3c0.3-0.1,0.6-0.1,1-0.1c0.5,0,1,0.1,1.5,0.2
				c0.5,0.2,0.9,0.4,1.3,0.7c0.4,0.3,0.7,0.7,0.9,1.2c0.2,0.5,0.3,1,0.3,1.7l0,0c0,0.7-0.1,1.3-0.4,1.8c-0.2,0.5-0.6,1-1,1.3
				s-0.9,0.6-1.5,0.8S391,273.1,390.3,273.1z"/>
			<path class="st15" d="M402.1,263.8h-5.5V261h9.2v2.5l-5.3,9.4h-3.6L402.1,263.8z"/>
		</g>
	</g>
</g>
<g id="_x33_0">
	<circle class="st18" cx="723.7" cy="171.1" r="16"/>
	<g>
		<g>
			<path class="st15" d="M716.9,177c-1.2,0-2.1-0.2-3-0.6c-0.8-0.4-1.5-0.9-2.1-1.5l2.1-2.1c0.4,0.4,0.9,0.8,1.3,1
				c0.5,0.2,1,0.4,1.5,0.4s0.9-0.1,1.1-0.3c0.3-0.2,0.4-0.5,0.4-0.9l0,0c0-0.4-0.2-0.7-0.5-0.9s-0.8-0.3-1.4-0.3h-1.4l-0.5-1.7
				l2.7-2.5h-4.6v-2.7h8.6v2.4l-2.8,2.4c0.4,0.1,0.8,0.2,1.2,0.4s0.7,0.4,1,0.7s0.5,0.6,0.7,1s0.2,0.8,0.2,1.3l0,0
				c0,0.6-0.1,1.1-0.3,1.6s-0.6,0.9-1,1.2s-0.9,0.6-1.5,0.8C718.2,176.9,717.5,177,716.9,177z"/>
			<path class="st15" d="M728.2,177c-0.9,0-1.6-0.2-2.3-0.5s-1.3-0.8-1.7-1.3c-0.5-0.6-0.8-1.2-1.1-2c-0.3-0.7-0.4-1.5-0.4-2.4l0,0
				c0-0.8,0.1-1.6,0.4-2.4c0.3-0.8,0.6-1.4,1.1-2s1.1-1,1.7-1.3c0.7-0.3,1.4-0.5,2.3-0.5c0.9,0,1.6,0.2,2.3,0.5s1.2,0.8,1.7,1.3
				c0.5,0.6,0.8,1.2,1.1,2c0.3,0.7,0.4,1.5,0.4,2.4l0,0c0,0.8-0.1,1.6-0.4,2.4c-0.3,0.8-0.6,1.4-1.1,2s-1.1,1-1.7,1.3
				C729.8,176.8,729,177,728.2,177z M728.2,174.1c0.3,0,0.6-0.1,0.9-0.2c0.3-0.2,0.5-0.4,0.7-0.7s0.3-0.6,0.4-1
				c0.1-0.4,0.2-0.8,0.2-1.3l0,0c0-0.5-0.1-0.9-0.2-1.3s-0.3-0.7-0.5-1s-0.4-0.5-0.7-0.7s-0.6-0.2-0.9-0.2c-0.3,0-0.6,0.1-0.9,0.2
				c-0.3,0.2-0.5,0.4-0.7,0.7s-0.3,0.6-0.4,1s-0.2,0.8-0.2,1.3l0,0c0,0.5,0.1,0.9,0.2,1.3c0.1,0.4,0.3,0.7,0.5,1s0.4,0.5,0.7,0.7
				C727.6,174,727.9,174.1,728.2,174.1z"/>
		</g>
	</g>
</g>
<g id="_x35_0">
</g>
<g id="_x34_9">
</g>
<g id="_x32_1">
</g>
<g id="_x34_5">
</g>
<g id="_x32_0">
</g>
<g id="_x35_1">
	<circle class="st19" cx="247.1" cy="164.8" r="16"/>
	<g>
		<g>
			<path class="st15" d="M241.6,170c-1.1,0-2-0.2-2.7-0.5c-0.8-0.3-1.5-0.8-2.1-1.4l1.9-2.2c0.5,0.4,1,0.7,1.4,1
				c0.5,0.2,1,0.3,1.5,0.3s1-0.1,1.3-0.4c0.3-0.2,0.5-0.6,0.5-1l0,0c0-0.4-0.2-0.8-0.5-1s-0.7-0.4-1.3-0.4c-0.4,0-0.7,0.1-1,0.2
				c-0.3,0.1-0.6,0.3-0.9,0.4l-2-1.1l0.3-6h8v2.7h-5.4l-0.1,1.8c0.3-0.1,0.6-0.2,0.9-0.3c0.3-0.1,0.6-0.1,1-0.1c0.5,0,1,0.1,1.5,0.2
				c0.5,0.2,0.9,0.4,1.3,0.7c0.4,0.3,0.7,0.7,0.9,1.2s0.3,1,0.3,1.7l0,0c0,0.7-0.1,1.3-0.4,1.8c-0.2,0.5-0.6,1-1,1.3
				s-0.9,0.6-1.5,0.8S242.4,170,241.6,170z"/>
			<path class="st15" d="M249.9,160.8l-2,0.5l-0.6-2.5l3.5-1h2.4v12H250L249.9,160.8L249.9,160.8z"/>
		</g>
	</g>
</g>
<g id="_x35_3">
	<circle class="st19" cx="149.4" cy="229.2" r="16"/>
	<g>
		<g>
			<path class="st15" d="M144.4,235.4c-1.1,0-2-0.2-2.7-0.5c-0.8-0.3-1.5-0.8-2.1-1.4l1.9-2.2c0.5,0.4,1,0.7,1.4,1
				c0.5,0.2,1,0.3,1.5,0.3s1-0.1,1.3-0.4c0.3-0.2,0.5-0.6,0.5-1l0,0c0-0.4-0.2-0.8-0.5-1s-0.7-0.4-1.3-0.4c-0.4,0-0.7,0.1-1,0.2
				c-0.3,0.1-0.6,0.3-0.9,0.4l-2-1.1l0.3-6h8v2.7h-5.4l-0.1,1.8c0.3-0.1,0.6-0.2,0.9-0.3c0.3-0.1,0.6-0.1,1-0.1c0.5,0,1,0.1,1.5,0.2
				c0.5,0.2,0.9,0.4,1.3,0.7c0.4,0.3,0.7,0.7,0.9,1.2s0.3,1,0.3,1.7l0,0c0,0.7-0.1,1.3-0.4,1.8c-0.2,0.5-0.6,1-1,1.3
				s-0.9,0.6-1.5,0.8S145.2,235.4,144.4,235.4z"/>
			<path class="st15" d="M155.3,235.4c-1.2,0-2.1-0.2-3-0.6c-0.8-0.4-1.5-0.9-2.1-1.5l2.1-2.1c0.4,0.4,0.9,0.8,1.3,1
				c0.5,0.2,1,0.4,1.5,0.4s0.9-0.1,1.1-0.3c0.3-0.2,0.4-0.5,0.4-0.9l0,0c0-0.4-0.2-0.7-0.5-0.9s-0.8-0.3-1.4-0.3h-1.4l-0.5-1.7
				l2.7-2.5H151v-2.7h8.6v2.4l-2.8,2.4c0.4,0.1,0.8,0.2,1.2,0.4s0.7,0.4,1,0.7s0.5,0.6,0.7,1s0.2,0.8,0.2,1.3l0,0
				c0,0.6-0.1,1.1-0.3,1.6s-0.6,0.9-1,1.2s-0.9,0.6-1.5,0.8C156.6,235.4,155.9,235.4,155.3,235.4z"/>
		</g>
	</g>
</g>
<g id="_x35_4">
</g>
<g id="_x31_8">
	<circle class="st19" cx="441.4" cy="42.4" r="16"/>
	<g>
		<g>
			<path class="st15" d="M434.3,38.9l-2,0.5l-0.6-2.5l3.5-1h2.4v12h-3.2L434.3,38.9L434.3,38.9z"/>
			<path class="st15" d="M444,48c-0.7,0-1.4-0.1-2-0.3s-1.1-0.4-1.5-0.7s-0.8-0.7-1-1.1c-0.2-0.4-0.4-0.9-0.4-1.4l0,0
				c0-0.7,0.2-1.3,0.5-1.8c0.4-0.5,0.9-0.8,1.5-1.1c-0.5-0.3-0.9-0.6-1.2-1c-0.3-0.4-0.5-0.9-0.5-1.6l0,0c0-0.5,0.1-0.9,0.3-1.3
				c0.2-0.4,0.5-0.8,0.9-1.1s0.9-0.5,1.4-0.7s1.2-0.2,1.8-0.2c0.7,0,1.3,0.1,1.8,0.2s1,0.4,1.4,0.7s0.7,0.7,0.9,1.1
				c0.2,0.4,0.3,0.8,0.3,1.3l0,0c0,0.6-0.2,1.2-0.5,1.6c-0.3,0.4-0.7,0.7-1.2,1c0.3,0.1,0.6,0.3,0.8,0.5s0.5,0.4,0.6,0.6
				s0.3,0.5,0.4,0.8s0.2,0.6,0.2,1l0,0c0,0.5-0.1,1-0.4,1.4c-0.2,0.4-0.6,0.8-1,1.1s-0.9,0.5-1.5,0.7C445.4,47.9,444.7,48,444,48z
				 M444,45.6c0.6,0,1-0.1,1.3-0.4c0.3-0.3,0.4-0.6,0.4-0.9l0,0c0-0.4-0.2-0.7-0.5-0.9S444.5,43,444,43s-0.9,0.1-1.2,0.4
				c-0.3,0.2-0.5,0.5-0.5,0.9l0,0c0,0.4,0.1,0.7,0.4,0.9C443,45.4,443.4,45.6,444,45.6z M444,40.7c0.4,0,0.8-0.1,1.1-0.4
				c0.3-0.2,0.4-0.6,0.4-0.9l0,0c0-0.3-0.1-0.6-0.4-0.9s-0.6-0.4-1.1-0.4s-0.8,0.1-1.1,0.4c-0.3,0.2-0.4,0.5-0.4,0.9l0,0
				c0,0.4,0.1,0.7,0.4,0.9C443.2,40.6,443.5,40.7,444,40.7z"/>
		</g>
	</g>
</g>
<g id="_x35_9">
</g>
<g id="Buttons">
</g>
</svg>
